SplineFontDB: 3.0
FontName: ThiruValluvar-BoldItalic
FullName: ThiruValluvar Bold Italic
FamilyName: ThiruValluvar
Weight: Bold
Copyright: Copyright (c) 1995-2015, NLCI (http://www.nlci.in/fonts/) Derived from TAM ThiruValluvar Bold Italic by ttfbuilder v0.33
Version: 1.0 Thu Apr 27 12:52:25 1995
ItalicAngle: 12
UnderlinePosition: -532
UnderlineWidth: 40
Ascent: 1638
Descent: 410
InvalidEm: 0
sfntRevision: 0x00010000
LayerCount: 2
Layer: 0 0 "Back" 1
Layer: 1 0 "Fore" 0
XUID: [1021 79 -1883390436 15599467]
StyleMap: 0x0021
FSType: 0
OS2Version: 1
OS2_WeightWidthSlopeOnly: 0
OS2_UseTypoMetrics: 0
CreationTime: 1547921071
ModificationTime: 1547921083
PfmFamily: 17
TTFWeight: 700
TTFWidth: 5
LineGap: 0
VLineGap: 0
Panose: 2 0 0 3 0 0 0 0 0 0
OS2TypoAscent: 1952
OS2TypoAOffset: 0
OS2TypoDescent: -745
OS2TypoDOffset: 0
OS2TypoLinegap: 0
OS2WinAscent: 1952
OS2WinAOffset: 0
OS2WinDescent: 745
OS2WinDOffset: 0
HheadAscent: 1952
HheadAOffset: 0
HheadDescent: -745
HheadDOffset: 0
OS2SubXSize: 1434
OS2SubYSize: 1331
OS2SubXOff: 0
OS2SubYOff: 293
OS2SupXSize: 1434
OS2SupYSize: 1331
OS2SupXOff: 0
OS2SupYOff: 928
OS2StrikeYSize: 102
OS2StrikeYPos: 530
OS2Vendor: 'Alts'
OS2CodePages: 20000001.00000000
OS2UnicodeRanges: a01080ff.520021cb.08000028.00000000
Lookup: 260 0 0 "_holdAnchorsbase" { "_someAnchorsbase"  } []
DEI: 91125
ShortTable: maxp 16
  1
  0
  243
  215
  12
  365
  16
  1
  0
  0
  0
  0
  3
  0
  3
  2
EndShort

StartChar: .notdef
Encoding: 0 -1 0
Width: 1024
Flags: HW
LayerCount: 2
Fore
SplineSet
64 0 m 1
 64 1536 l 1
 960 1536 l 1
 960 0 l 1
 64 0 l 1
896 64 m 1
 896 1472 l 1
 128 1472 l 1
 128 64 l 1
 896 64 l 1
EndSplineSet
EndChar

StartChar: exclam.taml
Encoding: 4 -1 4
Width: 686
Flags: HW
LayerCount: 2
Fore
SplineSet
644 762 m 1
 603.333333333 650 562 531.333333333 520 406 c 2
 429 135 l 1
 390 135 l 1
 413 405 l 2
 417.666666667 457 422 502 426 540 c 0
 436 636.666666667 441 710 441 760 c 1
 463 868 507.666666667 922 575 922 c 0
 626.333333333 922 652 891 652 829 c 0
 652 811 649.333333333 788.666666667 644 762 c 1
466 -51 m 0
 460 -80.3333333333 445.833333333 -104.833333333 423.5 -124.5 c 128
 401.166666667 -144.166666667 375.333333333 -154 346 -154 c 0
 323.333333333 -154 304.666666667 -146.333333333 290 -131 c 128
 275.333333333 -115.666666667 268 -96 268 -72 c 0
 268 -67.3333333333 268.666666667 -60.3333333333 270 -51 c 0
 275.333333333 -26.3333333333 289.166666667 -4.83333333333 311.5 13.5 c 128
 333.833333333 31.8333333333 358.666666667 41 386 41 c 0
 411.333333333 41 431.333333333 34.3333333333 446 21 c 128
 460.666666667 7.66666666667 468 -10 468 -32 c 0
 468 -36.6666666667 467.333333333 -43 466 -51 c 0
EndSplineSet
EndChar

StartChar: quoteleft.taml
Encoding: 5 -1 5
Width: 573
Flags: HW
LayerCount: 2
Fore
SplineSet
727 1323 m 1
 653 1301 589 1262.66666667 535 1208 c 0
 490.333333333 1162.66666667 468 1127.33333333 468 1102 c 0
 468 1098.66666667 469 1096 471 1094 c 0
 477 1088.66666667 484.333333333 1086 493 1086 c 0
 499.666666667 1086 519 1094.33333333 551 1111 c 0
 566.333333333 1119 580 1123 592 1123 c 256
 604 1123 616.333333333 1118.66666667 629 1110 c 0
 659 1088.66666667 674 1058.33333333 674 1019 c 0
 674 982.333333333 660.333333333 948.666666667 633 918 c 0
 617 898 598.166666667 883.5 576.5 874.5 c 128
 554.833333333 865.5 531 861 505 861 c 0
 492.333333333 861 479 862 465 864 c 0
 429 868 401.833333333 883.833333333 383.5 911.5 c 128
 365.166666667 939.166666667 356 972.666666667 356 1012 c 0
 356 1046 362.666666667 1077.33333333 376 1106 c 0
 404.666666667 1174 450.666666667 1232.33333333 514 1281 c 0
 557.333333333 1314.33333333 608.666666667 1342 668 1364 c 0
 708 1378.66666667 732.333333333 1386 741 1386 c 1
 727 1323 l 1
EndSplineSet
EndChar

StartChar: u20A8
Encoding: 6 8360 6
Width: 1669
Flags: HW
LayerCount: 2
Fore
SplineSet
1546 187 m 0
 1532.66666667 129 1499.33333333 79.8333333333 1446 39.5 c 128
 1392.66666667 -0.833333333333 1336 -21 1276 -21 c 0
 1250.66666667 -21 1222.16666667 -15.8333333333 1190.5 -5.5 c 128
 1158.83333333 4.83333333333 1138.33333333 10 1129 10 c 0
 1115.66666667 10 1104.66666667 3.33333333333 1096 -10 c 1
 1051 -10 l 1
 1104 240 l 1
 1151 240 l 1
 1151 205.333333333 1154.5 176 1161.5 152 c 128
 1168.5 128 1178.33333333 108.666666667 1191 94 c 0
 1214.33333333 68 1248.66666667 53 1294 49 c 0
 1316.66666667 49 1339.33333333 57.8333333333 1362 75.5 c 128
 1384.66666667 93.1666666667 1398 111.666666667 1402 131 c 0
 1403.33333333 140.333333333 1404 147 1404 151 c 0
 1404 170.333333333 1396.33333333 187 1381 201 c 0
 1361 219 1327 240 1279 264 c 0
 1249.66666667 281.333333333 1225.5 297 1206.5 311 c 128
 1187.5 325 1173.33333333 338.333333333 1164 351 c 0
 1150.66666667 366.333333333 1144 388 1144 416 c 0
 1144 422 1144.33333333 428.666666667 1145 436 c 128
 1145.66666667 443.333333333 1147 451 1149 459 c 0
 1156.33333333 497 1171.66666667 530.166666667 1195 558.5 c 128
 1218.33333333 586.833333333 1247.16666667 609 1281.5 625 c 128
 1315.83333333 641 1352 649 1390 649 c 0
 1412 649 1435.66666667 644.666666667 1461 636 c 128
 1486.33333333 627.333333333 1503 623 1511 623 c 0
 1527 623 1538.33333333 631.666666667 1545 649 c 1
 1596 649 l 1
 1546 414 l 1
 1493 414 l 1
 1493 478.666666667 1483.33333333 522.833333333 1464 546.5 c 128
 1444.66666667 570.166666667 1413.66666667 582 1371 582 c 0
 1349 582 1328.16666667 576.333333333 1308.5 565 c 128
 1288.83333333 553.666666667 1276.33333333 537.333333333 1271 516 c 0
 1269.66666667 511.333333333 1269 505 1269 497 c 0
 1269 487 1270.66666667 478.666666667 1274 472 c 0
 1280.66666667 459.333333333 1291.33333333 447.666666667 1306 437 c 0
 1311.33333333 433.666666667 1318.33333333 429.333333333 1327 424 c 128
 1335.66666667 418.666666667 1344.33333333 413.666666667 1353 409 c 2
 1410 381 l 1
 1459.33333333 353 1497 324.666666667 1523 296 c 0
 1540.33333333 276 1549 250.666666667 1549 220 c 0
 1549 210 1548 199 1546 187 c 0
975 0 m 1
 705 0 l 1
 482 420 l 1
 409 420 l 1
 357 174 l 2
 351 144 348 120.333333333 348 103 c 0
 348 93 349.666666667 84 353 76 c 0
 361.666666667 59.3333333333 380.333333333 51 409 51 c 2
 464 51 l 1
 453 0 l 1
 27 0 l 1
 38 51 l 1
 85 51 l 2
 114.333333333 51 137 59.3333333333 153 76 c 0
 169.666666667 90.6666666667 183.666666667 123.333333333 195 174 c 2
 319 758 l 2
 323.666666667 778.666666667 326 797 326 813 c 0
 326 828.333333333 323.333333333 840.333333333 318 849 c 0
 310 865 290.666666667 873 260 873 c 2
 213 873 l 1
 223 924 l 1
 569 924 l 2
 707 924 805 906 863 870 c 0
 906.333333333 842.666666667 928 800.666666667 928 744 c 0
 928 731.333333333 927.666666667 721.666666667 927 715 c 128
 926.333333333 708.333333333 924.333333333 698 921 684 c 0
 896.333333333 564 805.333333333 484.333333333 648 445 c 1
 774 218.333333333 845 100 861 90 c 0
 885.666666667 73.3333333333 927 59.6666666667 985 49 c 1
 975 0 l 1
733 662 m 0
 735 673.333333333 736.333333333 681.166666667 737 685.5 c 128
 737.666666667 689.833333333 738 697 738 707 c 0
 738 738.333333333 729.666666667 765.666666667 713 789 c 0
 689 824.333333333 640.666666667 842 568 842 c 0
 547.333333333 842 524 840 498 836 c 1
 425 494 l 1
 507 494 576.333333333 510 633 542 c 128
 689.666666667 574 723 614 733 662 c 0
EndSplineSet
EndChar

StartChar: percent.taml
Encoding: 7 -1 7
Width: 1221
Flags: HW
LayerCount: 2
Fore
SplineSet
1114 328 m 0
 1098.66666667 258 1075.16666667 201 1043.5 157 c 128
 1011.83333333 113 977.333333333 80.6666666667 940 60 c 128
 902.666666667 39.3333333333 865 29 827 29 c 0
 784.333333333 29 746.666666667 45.3333333333 714 78 c 0
 695.333333333 97.3333333333 686 129.666666667 686 175 c 0
 686 207 690.333333333 243.666666667 699 285 c 0
 715 360.333333333 739.666666667 421 773 467 c 0
 804.333333333 510.333333333 839.666666667 543 879 565 c 0
 913 584.333333333 946.333333333 594 979 594 c 0
 1027 594 1067 575 1099 537 c 0
 1117 515 1126 481.333333333 1126 436 c 0
 1126 405.333333333 1122 369.333333333 1114 328 c 0
1120 1022 m 1
 308 24 l 1
 192 24 l 1
 1003 1022 l 1
 1120 1022 l 1
627 769 m 0
 611 693.666666667 586 632.333333333 552 585 c 0
 520.666666667 542.333333333 485 509.666666667 445 487 c 0
 410.333333333 467.666666667 376.666666667 458 344 458 c 0
 296.666666667 458 257.666666667 477.333333333 227 516 c 0
 209 539.333333333 200 572.666666667 200 616 c 0
 200 631.333333333 201 647.666666667 203 665 c 128
 205 682.333333333 208.333333333 702 213 724 c 0
 227.666666667 793.333333333 250.666666667 850.666666667 282 896 c 0
 311.333333333 938 345 969.666666667 383 991 c 128
 421 1012.33333333 459 1023 497 1023 c 0
 539.666666667 1023 577.666666667 1007 611 975 c 0
 631 955.666666667 641 923 641 877 c 0
 641 848.333333333 636.333333333 812.333333333 627 769 c 0
985 254 m 0
 992.333333333 290.666666667 996 321.333333333 996 346 c 0
 996 374 991.666666667 396.333333333 983 413 c 0
 965.666666667 446.333333333 938.666666667 463 902 463 c 0
 882 463 867.333333333 457.333333333 858 446 c 128
 848.666666667 434.666666667 839.833333333 411.333333333 831.5 376 c 128
 823.166666667 340.666666667 819 307.666666667 819 277 c 0
 819 197.666666667 850.666666667 158 914 158 c 0
 947.333333333 158 971 190 985 254 c 0
495 673 m 0
 502.333333333 706.333333333 506 738.333333333 506 769 c 0
 506 809.666666667 498.5 840.666666667 483.5 862 c 128
 468.5 883.333333333 447.333333333 894 420 894 c 0
 399.333333333 894 382.833333333 886.5 370.5 871.5 c 128
 358.166666667 856.5 348.333333333 831.666666667 341 797 c 128
 333.666666667 762.333333333 330 732.333333333 330 707 c 0
 330 679 334.333333333 656.333333333 343 639 c 0
 359 604.333333333 385 587 421 587 c 0
 458.333333333 587 483 615.666666667 495 673 c 0
EndSplineSet
EndChar

StartChar: ampersand.taml
Encoding: 8 -1 8
Width: 1034
Flags: HW
LayerCount: 2
Fore
SplineSet
1020 191 m 1
 990 130.333333333 953.666666667 83.6666666667 911 51 c 128
 868.333333333 18.3333333333 823.333333333 2 776 2 c 0
 738.666666667 2 701.666666667 12.3333333333 665 33 c 0
 635.666666667 47.6666666667 605 77 573 121 c 1
 462.333333333 41.6666666667 361.666666667 2 271 2 c 0
 207 2 155 22.6666666667 115 64 c 0
 88.3333333333 92.6666666667 75 127 75 167 c 0
 75 181 76.3333333333 194.333333333 79 207 c 0
 89.6666666667 257.666666667 119.666666667 309.666666667 169 363 c 0
 215.666666667 411.666666667 294.333333333 463.333333333 405 518 c 1
 393.666666667 565.333333333 388 607.666666667 388 645 c 0
 388 662.333333333 389.666666667 681 393 701 c 0
 407 765.666666667 440.833333333 818.333333333 494.5 859 c 128
 548.166666667 899.666666667 607.666666667 920 673 920 c 0
 723 920 762.666666667 904.333333333 792 873 c 0
 812 849.666666667 822 822 822 790 c 0
 822 779.333333333 821 768 819 756 c 0
 809.666666667 710.666666667 786 670 748 634 c 128
 710 598 648.666666667 560.666666667 564 522 c 1
 614 398.666666667 648.333333333 320.333333333 667 287 c 1
 746.333333333 365.666666667 793.666666667 433.333333333 809 490 c 0
 810.333333333 498 811 503.666666667 811 507 c 0
 811 532.333333333 794.666666667 547 762 551 c 1
 772 596 l 1
 1059 596 l 1
 1049 549 l 1
 1029.66666667 549 1012.5 547.166666667 997.5 543.5 c 128
 982.5 539.833333333 968.666666667 534.333333333 956 527 c 0
 940 516.333333333 907.5 478.333333333 858.5 413 c 128
 809.5 347.666666667 756 286.666666667 698 230 c 1
 715.333333333 202.666666667 740.333333333 175.333333333 773 148 c 1
 799.666666667 132.666666667 824.666666667 125 848 125 c 0
 873.333333333 125 898 133.666666667 922 151 c 128
 946 168.333333333 965.333333333 193.333333333 980 226 c 1
 1020 191 l 1
722 758 m 0
 723.333333333 763.333333333 724 770.666666667 724 780 c 0
 724 796.666666667 719.666666667 810.666666667 711 822 c 0
 697.666666667 842 679.333333333 852 656 852 c 0
 627.333333333 852 601.333333333 841 578 819 c 0
 566.666666667 808.333333333 557.833333333 797.666666667 551.5 787 c 128
 545.166666667 776.333333333 540 764 536 750 c 0
 533.333333333 736.666666667 532 720.666666667 532 702 c 0
 532 670 537.666666667 631.333333333 549 586 c 1
 650.333333333 633.333333333 708 690.666666667 722 758 c 0
536 178 m 1
 504 242 480.166666667 293.166666667 464.5 331.5 c 128
 448.833333333 369.833333333 434 410.333333333 420 453 c 1
 364.666666667 421.666666667 326 393.666666667 304 369 c 0
 272.666666667 336.333333333 253 300.666666667 245 262 c 0
 243.666666667 256.666666667 242.666666667 249.166666667 242 239.5 c 128
 241.333333333 229.833333333 241 224.666666667 241 224 c 0
 241 198 248 173.333333333 262 150 c 0
 286 116 317 99 355 99 c 0
 402.333333333 99 462.666666667 125.333333333 536 178 c 1
EndSplineSet
EndChar

StartChar: quoteright.taml
Encoding: 9 -1 9
Width: 573
Flags: HW
LayerCount: 2
Fore
SplineSet
640 1124 m 0
 610.666666667 1054.66666667 565 996 503 948 c 0
 459 914 408 886 350 864 c 0
 310.666666667 849.333333333 286.333333333 842 277 842 c 1
 290 905 l 1
 364.666666667 927.666666667 428.666666667 966 482 1020 c 0
 526.666666667 1064.66666667 549 1100 549 1126 c 0
 549 1130 548 1133 546 1135 c 0
 539.333333333 1139.66666667 532 1142 524 1142 c 0
 517.333333333 1142 498 1133.66666667 466 1117 c 0
 450.666666667 1109 437.333333333 1105 426 1105 c 0
 418 1105 411.333333333 1105.83333333 406 1107.5 c 128
 400.666666667 1109.16666667 394.666666667 1112.66666667 388 1118 c 0
 373.333333333 1128 362 1141.33333333 354 1158 c 128
 346 1174.66666667 342 1192 342 1210 c 0
 342 1248 355.666666667 1281.66666667 383 1311 c 0
 399 1330.33333333 418 1344.5 440 1353.5 c 128
 462 1362.5 485.333333333 1367 510 1367 c 0
 524 1367 543.333333333 1365.5 568 1362.5 c 128
 592.666666667 1359.5 614.666666667 1343.66666667 634 1315 c 0
 651.333333333 1289 660 1256.66666667 660 1218 c 0
 660 1184 653.333333333 1152.66666667 640 1124 c 0
EndSplineSet
EndChar

StartChar: parenleft.taml
Encoding: 10 -1 10
Width: 604
Flags: HW
LayerCount: 2
Fore
SplineSet
923 1260 m 1
 749 1145.33333333 608 976.666666667 500 754 c 0
 396 540 344 323 344 103 c 0
 344 -17.6666666667 360.833333333 -127.666666667 394.5 -227 c 128
 428.166666667 -326.333333333 480.333333333 -410.333333333 551 -479 c 1
 513 -518 l 1
 393 -442.666666667 303 -345.666666667 243 -227 c 0
 186.333333333 -115.666666667 158 9.66666666667 158 149 c 0
 158 225 166.666666667 304.333333333 184 387 c 0
 224.666666667 579 302.666666667 751.333333333 418 904 c 0
 542 1068 701.333333333 1198 896 1294 c 1
 923 1260 l 1
EndSplineSet
EndChar

StartChar: parenright.taml
Encoding: 11 -1 11
Width: 604
Flags: HW
LayerCount: 2
Fore
SplineSet
502 387 m 0
 481.333333333 289.666666667 451.666666667 198.833333333 413 114.5 c 128
 374.333333333 30.1666666667 325.166666667 -51.1666666667 265.5 -129.5 c 128
 205.833333333 -207.833333333 135.666666667 -280 55 -346 c 0
 -21 -409.333333333 -110.333333333 -466.666666667 -213 -518 c 1
 -238 -484 l 1
 -192.666666667 -452.666666667 -148.5 -416.666666667 -105.5 -376 c 128
 -62.5 -335.333333333 -23.3333333333 -292.333333333 12 -247 c 0
 86.6666666667 -153.666666667 148.666666667 -52.3333333333 198 57 c 128
 247.333333333 166.333333333 284.333333333 277.666666667 309 391 c 0
 321 445 329.166666667 499.333333333 333.5 554 c 128
 337.833333333 608.666666667 340 667.333333333 340 730 c 0
 340 782.666666667 334.833333333 834.333333333 324.5 885 c 128
 314.166666667 935.666666667 300.5 984 283.5 1030 c 128
 266.5 1076 245.5 1118.33333333 220.5 1157 c 128
 195.5 1195.66666667 167 1230 135 1260 c 1
 174 1295 l 1
 276 1231.66666667 355.833333333 1152.16666667 413.5 1056.5 c 128
 471.166666667 960.833333333 507 856.666666667 521 744 c 0
 525.666666667 706.666666667 528 666.333333333 528 623 c 0
 528 583.666666667 526 545 522 507 c 128
 518 469 511.333333333 429 502 387 c 0
EndSplineSet
EndChar

StartChar: asterisk.taml
Encoding: 12 -1 12
Width: 1260
Flags: HW
LayerCount: 2
Fore
SplineSet
1064 677 m 0
 1042.66666667 652.333333333 1016 640 984 640 c 0
 966 640 952.666666667 645.666666667 944 657 c 0
 929.333333333 671.666666667 906.333333333 697.333333333 875 734 c 0
 853.666666667 758.666666667 834.666666667 777.666666667 818 791 c 1
 817.333333333 786.333333333 817 781 817 775 c 128
 817 766 817 766 817 761 c 0
 817 747 818.5 722 821.5 686 c 128
 824.5 650 826 620 826 596 c 1
 820.666666667 570 809.5 549 792.5 533 c 128
 775.5 517 756 509 734 509 c 0
 716.666666667 509 702.166666667 514.5 690.5 525.5 c 128
 678.833333333 536.5 673 552 673 572 c 0
 673 580 674 588 676 596 c 0
 683.333333333 613.333333333 703.666666667 657.666666667 737 729 c 0
 747.666666667 751.666666667 756.666666667 773.666666667 764 795 c 1
 741.333333333 781 715.666666667 762 687 738 c 0
 638.333333333 698 604.833333333 671.166666667 586.5 657.5 c 128
 568.166666667 643.833333333 549 637 529 637 c 0
 499 637 479.333333333 649 470 673 c 0
 467.333333333 679 466 686.333333333 466 695 c 0
 466 712.333333333 472.5 729.5 485.5 746.5 c 128
 498.5 763.5 515.333333333 775 536 781 c 0
 560.666666667 789 599.333333333 799 652 811 c 0
 690 819.666666667 720.333333333 829 743 839 c 1
 726.333333333 846.333333333 698.5 854.833333333 659.5 864.5 c 128
 620.5 874.166666667 586.666666667 884 558 894 c 0
 545.333333333 898.666666667 536.166666667 906 530.5 916 c 128
 524.833333333 926 522 937.666666667 522 951 c 0
 522 970.333333333 527.333333333 988 538 1004 c 1
 560 1028 586.666666667 1040 618 1040 c 0
 636.666666667 1040 652.333333333 1034.66666667 665 1024 c 0
 683 1003.33333333 705.333333333 975.333333333 732 940 c 0
 752 914 768.666666667 894.666666667 782 882 c 1
 782 923.333333333 781.666666667 959.666666667 781 991 c 128
 780.333333333 1022.33333333 779.666666667 1053 779 1083 c 1
 784.333333333 1108.33333333 796.166666667 1128.5 814.5 1143.5 c 128
 832.833333333 1158.5 852.666666667 1166 874 1166 c 0
 912 1166 931 1144.66666667 931 1102 c 0
 931 1094.66666667 930 1087 928 1079 c 0
 906 1033.66666667 884 988.666666667 862 944 c 0
 852 922 844 902 838 884 c 1
 860.666666667 897.333333333 887.333333333 916.666666667 918 942 c 0
 966.666666667 981.333333333 1001.33333333 1008.66666667 1022 1024 c 1
 1037.33333333 1032 1052.66666667 1036 1068 1036 c 0
 1082 1036 1095.16666667 1033 1107.5 1027 c 128
 1119.83333333 1021 1128.33333333 1012.66666667 1133 1002 c 0
 1134.33333333 998 1135 991.666666667 1135 983 c 0
 1135 963 1128.33333333 944.333333333 1115 927 c 128
 1101.66666667 909.666666667 1085.66666667 898.666666667 1067 894 c 128
 1048.33333333 889.333333333 1015.5 881.5 968.5 870.5 c 128
 921.5 859.5 884.666666667 849 858 839 c 1
 874.666666667 830.333333333 892.666666667 823 912 817 c 0
 955.333333333 805 999 793 1043 781 c 0
 1055 777.666666667 1064.33333333 771.166666667 1071 761.5 c 128
 1077.66666667 751.833333333 1081 740.333333333 1081 727 c 0
 1081 709 1075.33333333 692.333333333 1064 677 c 0
EndSplineSet
EndChar

StartChar: plus.taml
Encoding: 13 -1 13
Width: 891
Flags: HW
LayerCount: 2
Fore
SplineSet
749 381 m 1
 595 381 l 1
 562 226 l 1
 392 226 l 1
 425 381 l 1
 272 381 l 1
 306 541 l 1
 459 541 l 1
 493 699 l 1
 663 699 l 1
 629 541 l 1
 783 541 l 1
 749 381 l 1
EndSplineSet
EndChar

StartChar: comma.taml
Encoding: 14 -1 14
Width: 573
Flags: HW
LayerCount: 2
Fore
SplineSet
481 68 m 0
 466.333333333 -2 429.666666667 -63.6666666667 371 -117 c 0
 328.333333333 -156.333333333 275 -189.333333333 211 -216 c 0
 163.666666667 -236 132 -246 116 -246 c 1
 128 -186 l 1
 156.666666667 -183.333333333 199.333333333 -160.666666667 256 -118 c 0
 322.666666667 -68 361 -19 371 29 c 0
 372.333333333 34.3333333333 369.333333333 37 362 37 c 0
 353.333333333 37 338 30.8333333333 316 18.5 c 128
 294 6.16666666667 276.666666667 0 264 0 c 0
 242.666666667 0 223 11 205 33 c 128
 187 55 178 80.3333333333 178 109 c 0
 178 119 178.666666667 126.333333333 180 131 c 0
 186.666666667 165 206.166666667 194.666666667 238.5 220 c 128
 270.833333333 245.333333333 304.666666667 258 340 258 c 0
 385.333333333 258 421.333333333 242.666666667 448 212 c 0
 472.666666667 183.333333333 485 148 485 106 c 0
 485 94 485 94 485 83 c 0
 483 75.6666666667 481.666666667 70.6666666667 481 68 c 0
EndSplineSet
EndChar

StartChar: hyphen.taml
Encoding: 15 -1 15
Width: 891
Flags: HW
LayerCount: 2
Fore
SplineSet
728 379 m 1
 130 379 l 1
 165 547 l 1
 763 547 l 1
 728 379 l 1
EndSplineSet
EndChar

StartChar: period.taml
Encoding: 16 -1 16
Width: 506
Flags: HW
LayerCount: 2
Fore
SplineSet
385 127 m 0
 377.666666667 91.6666666667 356.833333333 61.6666666667 322.5 37 c 128
 288.166666667 12.3333333333 251 0 211 0 c 0
 177 0 149 9.66666666667 127 29 c 128
 105 48.3333333333 94 73 94 103 c 0
 94 111 95 119 97 127 c 0
 104.333333333 162.333333333 124.5 192.333333333 157.5 217 c 128
 190.5 241.666666667 226.333333333 254 265 254 c 0
 299.666666667 254 328.666666667 244 352 224 c 128
 375.333333333 204 387 179 387 149 c 0
 387 139 386.333333333 131.666666667 385 127 c 0
EndSplineSet
EndChar

StartChar: slash.taml
Encoding: 18 -1 18
Width: 563
Flags: HW
LayerCount: 2
Fore
SplineSet
835 1258 m 1
 27 -193 l 1
 -86 -193 l 1
 724 1258 l 1
 835 1258 l 1
EndSplineSet
EndChar

StartChar: zero.taml
Encoding: 19 -1 19
Width: 711
Flags: HW
LayerCount: 2
Fore
SplineSet
776 451 m 0
 762 383.666666667 737.666666667 314.5 703 243.5 c 128
 668.333333333 172.5 620.666666667 111 560 59 c 128
 499.333333333 7 429.666666667 -19 351 -19 c 0
 270.333333333 -19 212 7 176 59 c 0
 156.666666667 85 141.5 113.5 130.5 144.5 c 128
 119.5 175.5 114 208.333333333 114 243 c 0
 114 300.333333333 114.666666667 340.833333333 116 364.5 c 128
 117.333333333 388.166666667 121.5 416.333333333 128.5 449 c 128
 135.5 481.666666667 145.166666667 515.666666667 157.5 551 c 128
 169.833333333 586.333333333 184.666666667 622.333333333 202 659 c 0
 236 731 282.666666667 792.833333333 342 844.5 c 128
 401.333333333 896.166666667 471 922 551 922 c 0
 629 922 687.666666667 896 727 844 c 0
 747 816.666666667 762.666666667 787.5 774 756.5 c 128
 785.333333333 725.5 791 692.666666667 791 658 c 0
 791 610.666666667 790.166666667 572 788.5 542 c 128
 786.833333333 512 782.666666667 481.666666667 776 451 c 0
614 451 m 0
 634 545 644 622.333333333 644 683 c 0
 644 798.333333333 608.333333333 856 537 856 c 0
 430.333333333 856 348.333333333 721 291 451 c 0
 284.333333333 419 278.333333333 387.5 273 356.5 c 128
 267.666666667 325.5 263 293.666666667 259 261 c 0
 258.333333333 253 257.833333333 244.5 257.5 235.5 c 128
 257.166666667 226.5 257 219.666666667 257 215 c 0
 257 177 262 142 272 110 c 0
 286 66.6666666667 317 45 365 45 c 0
 473 45 556 180.333333333 614 451 c 0
EndSplineSet
EndChar

StartChar: one.taml
Encoding: 20 -1 20
Width: 711
Flags: HW
LayerCount: 2
Fore
SplineSet
568 0 m 1
 160 0 l 1
 170 49 l 1
 218 49 253 54.1666666667 275 64.5 c 128
 297 74.8333333333 312 99 320 137 c 2
 446 731 l 2
 447.333333333 735 448 738.833333333 448 742.5 c 128
 448 748 448 748 448 751 c 0
 448 769 439.666666667 778 423 778 c 0
 413 778 375.333333333 766.666666667 310 744 c 1
 321 793 l 1
 608 922 l 1
 632 910 l 1
 463 113 l 2
 461 103 460 94.6666666667 460 88 c 0
 460 82 461.333333333 76.3333333333 464 71 c 0
 469.333333333 63 480.166666667 57.5 496.5 54.5 c 128
 512.833333333 51.5 527.333333333 49.8333333333 540 49.5 c 128
 552.666666667 49.1666666667 565.333333333 49 578 49 c 1
 568 0 l 1
EndSplineSet
EndChar

StartChar: two.taml
Encoding: 21 -1 21
Width: 711
Flags: HW
LayerCount: 2
Fore
SplineSet
726 205 m 1
 596 0 l 1
 39 0 l 1
 47 37 l 1
 64.3333333333 51.6666666667 82 66.3333333333 100 81 c 0
 172 140.333333333 212.333333333 173.666666667 221 181 c 0
 268.333333333 221 311 257.666666667 349 291 c 0
 418.333333333 352.333333333 473 409.333333333 513 462 c 0
 556.333333333 519.333333333 583 572.333333333 593 621 c 0
 595.666666667 633.666666667 597 647 597 661 c 0
 597 689.666666667 590.333333333 715.333333333 577 738 c 0
 557.666666667 774.666666667 515.333333333 793 450 793 c 0
 398.666666667 793 357.666666667 778.666666667 327 750 c 128
 296.333333333 721.333333333 263.666666667 679 229 623 c 1
 176 635 l 1
 219.333333333 737 273.166666667 810.333333333 337.5 855 c 128
 401.833333333 899.666666667 470 922 542 922 c 0
 586.666666667 922 627 911.666666667 663 891 c 128
 699 870.333333333 725.333333333 841 742 803 c 0
 752 779.666666667 757 754 757 726 c 0
 757 708.666666667 755 690 751 670 c 0
 738.333333333 607.333333333 708.333333333 549.333333333 661 496 c 0
 637 467.333333333 612.833333333 441 588.5 417 c 128
 564.166666667 393 534.666666667 366.666666667 500 338 c 2
 249 131 l 1
 542 131 l 2
 566.666666667 131 587.833333333 135.833333333 605.5 145.5 c 128
 623.166666667 155.166666667 650 179.666666667 686 219 c 1
 726 205 l 1
EndSplineSet
EndChar

StartChar: three.taml
Encoding: 22 -1 22
Width: 711
Flags: HW
LayerCount: 2
Fore
SplineSet
683 301 m 0
 669 237.666666667 640 181.666666667 596 133 c 128
 552 84.3333333333 497.5 46.8333333333 432.5 20.5 c 128
 367.5 -5.83333333333 297.333333333 -19 222 -19 c 0
 188 -19 153 -12 117 2 c 0
 87.6666666667 13.3333333333 73 31.3333333333 73 56 c 0
 73 58.6666666667 73.6666666667 64 75 72 c 0
 80.3333333333 93.3333333333 90.6666666667 108.833333333 106 118.5 c 128
 121.333333333 128.166666667 137.666666667 133 155 133 c 0
 169.666666667 133 183 130 195 124 c 128
 207 118 222 108.666666667 240 96 c 0
 259.333333333 84 275.833333333 75 289.5 69 c 128
 303.166666667 63 318.333333333 60 335 60 c 0
 389.666666667 60 435 78.5 471 115.5 c 128
 507 152.5 531 196.666666667 543 248 c 0
 546.333333333 264.666666667 548 278.666666667 548 290 c 0
 548 387.333333333 465.333333333 436 300 436 c 1
 309 479 l 1
 468.333333333 524.333333333 558.333333333 594.666666667 579 690 c 0
 581 700 582 709.333333333 582 718 c 0
 582 738.666666667 575.333333333 758.333333333 562 777 c 0
 544 801 514 813 472 813 c 0
 394 813 319.333333333 766 248 672 c 1
 203 684 l 1
 286.333333333 842.666666667 398 922 538 922 c 0
 623.333333333 922 678.333333333 900.666666667 703 858 c 0
 722.333333333 827.333333333 732 795 732 761 c 0
 732 749.666666667 731 738.333333333 729 727 c 0
 713.666666667 660.333333333 663 600.333333333 577 547 c 1
 653 509 691 449.333333333 691 368 c 0
 691 348.666666667 688.333333333 326.333333333 683 301 c 0
EndSplineSet
EndChar

StartChar: four.taml
Encoding: 23 -1 23
Width: 711
Flags: HW
LayerCount: 2
Fore
SplineSet
721 219 m 1
 582 219 l 1
 535 0 l 1
 400 0 l 1
 447 219 l 1
 64 219 l 1
 86 326 l 1
 647 922 l 1
 731 922 l 1
 606 336 l 1
 745 336 l 1
 721 219 l 1
469 336 m 1
 553 729 l 1
 186 336 l 1
 469 336 l 1
EndSplineSet
EndChar

StartChar: five.taml
Encoding: 24 -1 24
Width: 711
Flags: HW
LayerCount: 2
Fore
SplineSet
825 914 m 1
 741 787 l 2
 732.333333333 770.333333333 715.666666667 762 691 762 c 2
 433 762 l 1
 370 676 l 1
 432.666666667 667.333333333 487.833333333 653.333333333 535.5 634 c 128
 583.166666667 614.666666667 620.666666667 584.333333333 648 543 c 0
 672.666666667 505 686.333333333 471.666666667 689 443 c 0
 689.666666667 438.333333333 690 430.666666667 690 420 c 0
 690 396 685.666666667 359 677 309 c 0
 663.666666667 249 635.666666667 194.166666667 593 144.5 c 128
 550.333333333 94.8333333333 496.666666667 55.1666666667 432 25.5 c 128
 367.333333333 -4.16666666667 298.666666667 -19 226 -19 c 0
 169.333333333 -19 126 -10 96 8 c 0
 70.6666666667 22.6666666667 58 41.3333333333 58 64 c 0
 58 69.3333333333 58.3333333333 73.3333333333 59 76 c 0
 69 120 97 142 143 142 c 0
 160.333333333 142 176.166666667 138.5 190.5 131.5 c 128
 204.833333333 124.5 220.333333333 113.666666667 237 99 c 2
 279 68 l 2
 291.666666667 61.3333333333 305.666666667 58 321 58 c 0
 367 58 412.166666667 77.3333333333 456.5 116 c 128
 500.833333333 154.666666667 530.333333333 209 545 279 c 0
 549 297 551 314 551 330 c 0
 551 367.333333333 539.333333333 400.333333333 516 429 c 0
 484.666666667 466.333333333 442.333333333 494 389 512 c 0
 359.666666667 521.333333333 332 528.5 306 533.5 c 128
 280 538.5 253.333333333 541 226 541 c 0
 214.666666667 541 209 548 209 562 c 2
 211 578 l 1
 432 895 l 1
 727 895 l 2
 739.666666667 895 749.666666667 897.666666667 757 903 c 2
 797 938 l 1
 825 914 l 1
EndSplineSet
EndChar

StartChar: six.taml
Encoding: 25 -1 25
Width: 711
Flags: HW
LayerCount: 2
Fore
SplineSet
732 303 m 0
 722 255.666666667 704 210.333333333 678 167 c 0
 646 114.333333333 603.666666667 70.1666666667 551 34.5 c 128
 498.333333333 -1.16666666667 433.666666667 -19 357 -19 c 0
 297.666666667 -19 248 -3.66666666667 208 27 c 128
 168 57.6666666667 140 104.333333333 124 167 c 0
 118 194.333333333 115 224.333333333 115 257 c 0
 115 297.666666667 120.666666667 345.333333333 132 400 c 0
 146 466.666666667 173.666666667 531.666666667 215 595 c 128
 256.333333333 658.333333333 308.833333333 715 372.5 765 c 128
 436.166666667 815 507.666666667 854.666666667 587 884 c 0
 628.333333333 899.333333333 669.166666667 911.166666667 709.5 919.5 c 128
 749.833333333 927.833333333 791.666666667 932 835 932 c 1
 829 885 l 1
 717 867.666666667 619.666666667 827 537 763 c 0
 458.333333333 701.666666667 398.666666667 629.666666667 358 547 c 1
 386 563.666666667 413.166666667 575.666666667 439.5 583 c 128
 465.833333333 590.333333333 495.333333333 594 528 594 c 0
 578.666666667 594 621.666666667 582.5 657 559.5 c 128
 692.333333333 536.5 717 503 731 459 c 0
 737.666666667 437 741 411.666666667 741 383 c 0
 741 359 738 332.333333333 732 303 c 0
567 250 m 0
 575.666666667 289.333333333 580 325.333333333 580 358 c 0
 580 454 537 502 451 502 c 0
 398.333333333 502 356.333333333 490.333333333 325 467 c 1
 306.333333333 449.666666667 290.666666667 411.666666667 278 353 c 0
 268 305 263 262.666666667 263 226 c 0
 263 186.666666667 269 153 281 125 c 0
 303 73 339.666666667 47 391 47 c 0
 433 47 469.333333333 64.3333333333 500 99 c 128
 530.666666667 133.666666667 553 184 567 250 c 0
EndSplineSet
EndChar

StartChar: seven.taml
Encoding: 26 -1 26
Width: 711
Flags: HW
LayerCount: 2
Fore
SplineSet
839 921 m 1
 830 887 l 1
 350 10 l 1
 230 10 l 1
 669 794 l 1
 392 794 l 2
 355.333333333 794 326.666666667 787 306 773 c 128
 285.333333333 759 256 730 218 686 c 1
 173 706 l 1
 309 921 l 1
 839 921 l 1
EndSplineSet
EndChar

StartChar: eight.taml
Encoding: 27 -1 27
Width: 711
Flags: HW
LayerCount: 2
Fore
SplineSet
682 213 m 0
 670.666666667 158.333333333 638 106 584 56 c 128
 530 6 450.666666667 -19 346 -19 c 0
 290 -19 243.166666667 -7.83333333333 205.5 14.5 c 128
 167.833333333 36.8333333333 142.333333333 65 129 99 c 0
 120.333333333 120.333333333 116 143 116 167 c 0
 116 182.333333333 117.333333333 195.666666667 120 207 c 0
 127.333333333 243.666666667 139.666666667 275.666666667 157 303 c 0
 175.666666667 330.333333333 197.333333333 353.333333333 222 372 c 0
 250 393.333333333 289.333333333 420.333333333 340 453 c 1
 290 507 257 550 241 582 c 0
 231.666666667 600 227 622 227 648 c 0
 227 664.666666667 229 683 233 703 c 0
 243 747 264.166666667 785.5 296.5 818.5 c 128
 328.833333333 851.5 368.5 877 415.5 895 c 128
 462.5 913 507.666666667 922 551 922 c 0
 629 922 686.666666667 902.333333333 724 863 c 0
 752 833 766 798 766 758 c 0
 766 753.333333333 765.833333333 748.166666667 765.5 742.5 c 128
 765.166666667 736.833333333 764 729 762 719 c 0
 751.333333333 668.333333333 726.5 626.5 687.5 593.5 c 128
 648.5 560.5 601.333333333 530.666666667 546 504 c 1
 612.666666667 447.333333333 655 397.333333333 673 354 c 0
 683 328 688 300 688 270 c 0
 688 252 686 233 682 213 c 0
638 725 m 0
 640 736.333333333 641 746.666666667 641 756 c 0
 641 779.333333333 634.666666667 799.666666667 622 817 c 0
 604 841.666666667 572.666666667 854 528 854 c 0
 484 854 448.833333333 842.5 422.5 819.5 c 128
 396.166666667 796.5 379.333333333 769.333333333 372 738 c 0
 370 728.666666667 369 720 369 712 c 0
 369 656 408.333333333 601 487 547 c 1
 571.666666667 595 622 654.333333333 638 725 c 0
541 183 m 0
 542.333333333 187.666666667 543.333333333 193.5 544 200.5 c 128
 544.666666667 207.5 545 213.666666667 545 219 c 0
 545 233.666666667 542.666666667 246.666666667 538 258 c 0
 528.666666667 279.333333333 513.666666667 300 493 320 c 0
 485 327.333333333 467 343 439 367 c 0
 419 385 403.333333333 398.666666667 392 408 c 1
 320.666666667 361.333333333 276 299 258 221 c 0
 256 214.333333333 254.666666667 207 254 199 c 128
 253.333333333 191 253 182.666666667 253 174 c 0
 253 158.666666667 254.333333333 145.333333333 257 134 c 0
 264.333333333 107.333333333 278.333333333 86.1666666667 299 70.5 c 128
 319.666666667 54.8333333333 345.666666667 47 377 47 c 0
 417.666666667 47 453 59.1666666667 483 83.5 c 128
 513 107.833333333 532.333333333 141 541 183 c 0
EndSplineSet
EndChar

StartChar: nine.taml
Encoding: 28 -1 28
Width: 711
Flags: HW
LayerCount: 2
Fore
SplineSet
770 537 m 0
 750.666666667 443 709.333333333 353.666666667 646 269 c 128
 582.666666667 184.333333333 501.333333333 115 402 61 c 0
 348.666666667 32.3333333333 295.166666667 9.83333333333 241.5 -6.5 c 128
 187.833333333 -22.8333333333 132.333333333 -31 75 -31 c 1
 81 25 l 1
 223.666666667 47 332 96 406 172 c 0
 470 238.666666667 520.666666667 303 558 365 c 1
 537.333333333 351 509.666666667 339 475 329 c 128
 440.333333333 319 404.666666667 314 368 314 c 0
 280.666666667 314 221.666666667 342.666666667 191 400 c 0
 169.666666667 439.333333333 159 481 159 525 c 0
 159 546.333333333 161.333333333 567.333333333 166 588 c 0
 179.333333333 650 203.666666667 706.5 239 757.5 c 128
 274.333333333 808.5 318.166666667 848.666666667 370.5 878 c 128
 422.833333333 907.333333333 478.666666667 922 538 922 c 0
 596 922 645.5 905.833333333 686.5 873.5 c 128
 727.5 841.166666667 755.333333333 795.333333333 770 736 c 0
 778 706.666666667 782 675.333333333 782 642 c 0
 782 609.333333333 778 574.333333333 770 537 c 0
608 535 m 0
 613.333333333 569 617.833333333 599.5 621.5 626.5 c 128
 625.166666667 653.5 627 677.333333333 627 698 c 0
 627 724 624.333333333 746 619 764 c 0
 611 792.666666667 599 814.333333333 583 829 c 0
 564.333333333 845.666666667 539.333333333 854 508 854 c 0
 421.333333333 854 363 782.333333333 333 639 c 0
 325.666666667 604.333333333 322 573.333333333 322 546 c 0
 322 519.333333333 325 494.333333333 331 471 c 0
 343.666666667 422.333333333 380 398 440 398 c 0
 461.333333333 398 483.833333333 402.166666667 507.5 410.5 c 128
 531.166666667 418.833333333 551.666666667 429.666666667 569 443 c 0
 579.666666667 451.666666667 588.333333333 464.666666667 595 482 c 0
 599.666666667 494.666666667 604 512.333333333 608 535 c 0
EndSplineSet
EndChar

StartChar: colon.taml
Encoding: 29 -1 29
Width: 506
Flags: HW
LayerCount: 2
Fore
SplineSet
474 670 m 0
 466 632.666666667 444.333333333 600.333333333 409 573 c 128
 373.666666667 545.666666667 336.333333333 532 297 532 c 0
 264.333333333 532 237 542.666666667 215 564 c 128
 193 585.333333333 182 611.666666667 182 643 c 0
 182 651.666666667 183 660.666666667 185 670 c 0
 193 707.333333333 213.833333333 739.5 247.5 766.5 c 128
 281.166666667 793.5 317.333333333 807 356 807 c 0
 390.666666667 807 419.5 796.166666667 442.5 774.5 c 128
 465.5 752.833333333 477 726.333333333 477 695 c 0
 477 687.666666667 476 679.333333333 474 670 c 0
357 117 m 0
 349 79.6666666667 327.5 47.5 292.5 20.5 c 128
 257.5 -6.5 220 -20 180 -20 c 0
 146.666666667 -20 119.166666667 -9.5 97.5 11.5 c 128
 75.8333333333 32.5 65 58.6666666667 65 90 c 0
 65 98.6666666667 66 107.666666667 68 117 c 0
 76 154.333333333 96.8333333333 186.5 130.5 213.5 c 128
 164.166666667 240.5 200 254 238 254 c 0
 272.666666667 254 301.666666667 243.333333333 325 222 c 128
 348.333333333 200.666666667 360 174 360 142 c 0
 360 134.666666667 359 126.333333333 357 117 c 0
EndSplineSet
EndChar

StartChar: semicolon.taml
Encoding: 30 -1 30
Width: 506
Flags: HW
LayerCount: 2
Fore
SplineSet
529 670 m 0
 521 632 499.5 599.166666667 464.5 571.5 c 128
 429.5 543.833333333 392.333333333 530 353 530 c 0
 319.666666667 530 292 540.666666667 270 562 c 128
 248 583.333333333 237 610.333333333 237 643 c 0
 237 651.666666667 238 660.666666667 240 670 c 0
 248 708 268.833333333 740.333333333 302.5 767 c 128
 336.166666667 793.666666667 372.666666667 807 412 807 c 0
 446 807 474.5 796.166666667 497.5 774.5 c 128
 520.5 752.833333333 532 726.333333333 532 695 c 0
 532 686.333333333 531 678 529 670 c 0
403 76 m 0
 387.666666667 4.66666666667 350.333333333 -58.6666666667 291 -114 c 0
 247 -154.666666667 193.666666667 -188.666666667 131 -216 c 0
 85 -236 53.3333333333 -246 36 -246 c 1
 49 -184 l 1
 77.6666666667 -181.333333333 120.333333333 -158 177 -114 c 0
 243.666666667 -62 282.333333333 -11.6666666667 293 37 c 0
 293.666666667 41.6666666667 292.666666667 44.1666666667 290 44.5 c 128
 287.333333333 44.8333333333 285.333333333 45 284 45 c 0
 275.333333333 45 259.833333333 38.5 237.5 25.5 c 128
 215.166666667 12.5 197.666666667 6 185 6 c 0
 163.666666667 6 144.166666667 17.5 126.5 40.5 c 128
 108.833333333 63.5 100 89.6666666667 100 119 c 0
 100 129 100.666666667 136.333333333 102 141 c 0
 109.333333333 176.333333333 129.166666667 207.333333333 161.5 234 c 128
 193.833333333 260.666666667 227.666666667 274 263 274 c 0
 307.666666667 274 343.333333333 258 370 226 c 0
 394.666666667 196 407 159.333333333 407 116 c 0
 407 100.666666667 405.666666667 87.3333333333 403 76 c 0
EndSplineSet
EndChar

StartChar: less.taml
Encoding: 31 -1 31
Width: 1110
Flags: HW
LayerCount: 2
Fore
SplineSet
902 -13 m 1
 123 359 l 1
 147 471 l 1
 1084 840 l 1
 1054 703 l 1
 322 414 l 1
 932 125 l 1
 902 -13 l 1
EndSplineSet
EndChar

StartChar: equal.taml
Encoding: 32 -1 32
Width: 1186
Flags: HW
LayerCount: 2
Fore
SplineSet
1151 606 m 1
 293 606 l 1
 320 735 l 1
 1178 735 l 1
 1151 606 l 1
1086 301 m 1
 228 301 l 1
 255 430 l 1
 1113 430 l 1
 1086 301 l 1
EndSplineSet
EndChar

StartChar: greater.taml
Encoding: 33 -1 33
Width: 1110
Flags: HW
LayerCount: 2
Fore
SplineSet
981 359 m 1
 44 -13 l 1
 74 125 l 1
 805 414 l 1
 196 703 l 1
 226 840 l 1
 1005 471 l 1
 981 359 l 1
EndSplineSet
EndChar

StartChar: question.taml
Encoding: 34 -1 34
Width: 846
Flags: HW
LayerCount: 2
Fore
SplineSet
799 645 m 0
 791 606.333333333 768.833333333 563.333333333 732.5 516 c 128
 696.166666667 468.666666667 657.666666667 425 617 385 c 1
 559 333.666666667 514.833333333 287.333333333 484.5 246 c 128
 454.166666667 204.666666667 425.333333333 148.666666667 398 78 c 1
 343 78 l 1
 357.666666667 152 391.333333333 234.666666667 444 326 c 0
 448 332.666666667 462.333333333 353.666666667 487 389 c 0
 495 400.333333333 503.666666667 414 513 430 c 0
 543 479.333333333 566 520.666666667 582 554 c 0
 602 594.666666667 615.333333333 630 622 660 c 0
 624 667.333333333 625.333333333 675 626 683 c 128
 626.666666667 691 627 699.666666667 627 709 c 0
 627 738.333333333 620.333333333 765 607 789 c 0
 587 827 550 846 496 846 c 0
 463.333333333 846 430.666666667 838 398 822 c 128
 365.333333333 806 346.666666667 786.666666667 342 764 c 0
 340 752 346.666666667 734.333333333 362 711 c 0
 374 693 380 675 380 657 c 0
 380 651.666666667 379.666666667 647.666666667 379 645 c 0
 375 626.333333333 364.333333333 608.333333333 347 591 c 128
 329.666666667 573.666666667 308 565 282 565 c 0
 231.333333333 565 206 589.333333333 206 638 c 0
 206 648 207.666666667 662 211 680 c 0
 227 758.666666667 269.166666667 819 337.5 861 c 128
 405.833333333 903 474.666666667 924 544 924 c 0
 591.333333333 924 637.166666667 914.333333333 681.5 895 c 128
 725.833333333 875.666666667 756.666666667 853.333333333 774 828 c 0
 792 798 803 770.666666667 807 746 c 0
 807.666666667 742.666666667 808 738.833333333 808 734.5 c 128
 808 728 808 728 808 722 c 0
 808 702 805 676.333333333 799 645 c 0
442 -97 m 0
 436 -127 420.166666667 -150.833333333 394.5 -168.5 c 128
 368.833333333 -186.166666667 343.333333333 -195 318 -195 c 0
 291.333333333 -195 269.333333333 -186.666666667 252 -170 c 0
 239.333333333 -158 233 -141.666666667 233 -121 c 0
 233 -111 233.666666667 -103 235 -97 c 0
 241 -69.6666666667 255.833333333 -46.3333333333 279.5 -27 c 128
 303.166666667 -7.66666666667 329.666666667 2 359 2 c 0
 387.666666667 2 410 -7.66666666667 426 -27 c 0
 438 -42.3333333333 444 -58.6666666667 444 -76 c 0
 444 -85.3333333333 443.333333333 -92.3333333333 442 -97 c 0
EndSplineSet
EndChar

StartChar: u0952
Encoding: 38 2386 38
Width: 20
Flags: HW
LayerCount: 2
Fore
SplineSet
-590 -745 m 1
 -1295 -745 l 1
 -1352 -608 l 1
 -647 -608 l 1
 -590 -745 l 1
EndSplineSet
EndChar

StartChar: u0B83
Encoding: 40 2947 40
Width: 1047
Flags: HW
LayerCount: 2
Fore
SplineSet
714 785 m 0
 706.666666667 751.666666667 688.166666667 722.5 658.5 697.5 c 128
 628.833333333 672.5 596.666666667 660 562 660 c 0
 528.666666667 660 501.666666667 672.333333333 481 697 c 0
 466.333333333 714.333333333 459 735 459 759 c 0
 459 767 460 775.666666667 462 785 c 0
 468.666666667 817.666666667 487.5 846.666666667 518.5 872 c 128
 549.5 897.333333333 581.666666667 910 615 910 c 0
 661.666666667 910 693.333333333 888.666666667 710 846 c 0
 714.666666667 834.666666667 717 821.666666667 717 807 c 0
 717 800.333333333 716 793 714 785 c 0
871 137 m 0
 863.666666667 103 845 73.8333333333 815 49.5 c 128
 785 25.1666666667 753.333333333 13 720 13 c 0
 686 13 659 25.3333333333 639 50 c 0
 624.333333333 67.3333333333 617 88 617 112 c 0
 617 118 617 118 617 124 c 0
 618.333333333 130 619 134.333333333 619 137 c 0
 625.666666667 170.333333333 644.5 199.833333333 675.5 225.5 c 128
 706.5 251.166666667 739 264 773 264 c 0
 807.666666667 264 834.333333333 251.666666667 853 227 c 0
 867 209 874 188 874 164 c 0
 874 155.333333333 873 146.333333333 871 137 c 0
281 137 m 0
 273.666666667 103.666666667 254.833333333 74.6666666667 224.5 50 c 128
 194.166666667 25.3333333333 162 13 128 13 c 256
 94 13 67.6666666667 25.3333333333 49 50 c 0
 33.6666666667 68.6666666667 26 89.3333333333 26 112 c 0
 26 119.333333333 27 127.666666667 29 137 c 0
 36.3333333333 171 55.1666666667 200.666666667 85.5 226 c 128
 115.833333333 251.333333333 147.666666667 264 181 264 c 0
 216.333333333 264 243.333333333 251.333333333 262 226 c 0
 276.666666667 208.666666667 284 187.666666667 284 163 c 0
 284 155 283 146.333333333 281 137 c 0
EndSplineSet
EndChar

StartChar: u0B85
Encoding: 41 2949 41
Width: 1676
Flags: HW
AnchorPoint: "V" 865.5 939 basechar 0
AnchorPoint: "N" 865.5 15.74 basechar 0
LayerCount: 2
Fore
SplineSet
1439 -150 m 1
 1265 -150 l 1
 1355 271 l 1
 1181 271 l 1
 1111.66666667 186.333333333 1020.33333333 120 907 72 c 128
 793.666666667 24 673.666666667 0 547 0 c 0
 439 0 351.833333333 13.3333333333 285.5 40 c 128
 219.166666667 66.6666666667 170 99.6666666667 138 139 c 0
 121.333333333 159 107.666666667 178.833333333 97 198.5 c 128
 86.3333333333 218.166666667 77 240 69 264 c 0
 65.6666666667 272 64 279.333333333 64 286 c 0
 64 289.333333333 64.6666666667 294.333333333 66 301 c 0
 75.3333333333 342.333333333 105 363 155 363 c 2
 1068 363 l 1
 1092 392.333333333 1112 423.666666667 1128 457 c 128
 1144 490.333333333 1156 525 1164 561 c 0
 1169.33333333 586.333333333 1172 609 1172 629 c 0
 1172 709 1133 765.666666667 1055 799 c 1
 1070.33333333 775.666666667 1078 746 1078 710 c 0
 1078 687.333333333 1075 662.333333333 1069 635 c 0
 1055.66666667 571.666666667 1027.33333333 519.333333333 984 478 c 128
 940.666666667 436.666666667 881.666666667 416 807 416 c 0
 740.333333333 416 693.666666667 440.333333333 667 489 c 0
 650.333333333 519.666666667 642 555.333333333 642 596 c 0
 642 617.333333333 644.666666667 641.333333333 650 668 c 0
 666 741.333333333 703.166666667 801.833333333 761.5 849.5 c 128
 819.833333333 897.166666667 893 921 981 921 c 0
 1065.66666667 921 1135.66666667 905.833333333 1191 875.5 c 128
 1246.33333333 845.166666667 1284 799.666666667 1304 739 c 0
 1314.66666667 707.666666667 1320 672.666666667 1320 634 c 0
 1320 598 1315.66666667 560.666666667 1307 522 c 0
 1295.66666667 468 1275.66666667 415 1247 363 c 1
 1374 363 l 1
 1493 921 l 1
 1667 921 l 1
 1439 -150 l 1
934 652 m 0
 937.333333333 670 939 685.666666667 939 699 c 0
 939 723.666666667 935 745.333333333 927 764 c 128
 919 782.666666667 908.666666667 795.666666667 896 803 c 1
 859.333333333 803 827.166666667 789.833333333 799.5 763.5 c 128
 771.833333333 737.166666667 753.333333333 704.666666667 744 666 c 0
 742.666666667 661.333333333 741.666666667 655.5 741 648.5 c 128
 740.333333333 641.5 740 635.333333333 740 630 c 0
 740 603.333333333 747.166666667 582.5 761.5 567.5 c 128
 775.833333333 552.5 794.333333333 545 817 545 c 0
 844.333333333 545 869 555.666666667 891 577 c 128
 913 598.333333333 927.333333333 623.333333333 934 652 c 0
986 271 m 1
 198 271 l 2
 181.333333333 271 171 262.666666667 167 246 c 1
 216.333333333 144.666666667 337.333333333 94 530 94 c 0
 614 94 695.5 109.166666667 774.5 139.5 c 128
 853.5 169.833333333 924 213.666666667 986 271 c 1
EndSplineSet
EndChar

StartChar: u0B86
Encoding: 42 2950 42
Width: 2044
Flags: HW
AnchorPoint: "V" 968.5 939 basechar 0
AnchorPoint: "N" 968.5 -498 basechar 0
LayerCount: 2
Fore
SplineSet
1861 105 m 0
 1834.33333333 -24.3333333333 1783.16666667 -134.166666667 1707.5 -224.5 c 128
 1631.83333333 -314.833333333 1538.83333333 -383 1428.5 -429 c 128
 1318.16666667 -475 1200 -498 1074 -498 c 0
 958.666666667 -498 861.666666667 -487.5 783 -466.5 c 128
 704.333333333 -445.5 647.333333333 -414.333333333 612 -373 c 0
 586 -343 573 -309 573 -271 c 0
 573 -259 574.666666667 -245.333333333 578 -230 c 0
 591.333333333 -170 626.833333333 -124.166666667 684.5 -92.5 c 128
 742.166666667 -60.8333333333 808.333333333 -45 883 -45 c 0
 936.333333333 -45 987 -54.6666666667 1035 -74 c 128
 1083 -93.3333333333 1120.66666667 -118.666666667 1148 -150 c 1
 1103 -207 l 1
 1072.33333333 -177.666666667 1034.83333333 -156 990.5 -142 c 128
 946.166666667 -128 901.666666667 -121 857 -121 c 0
 805 -121 762.666666667 -130.166666667 730 -148.5 c 128
 697.333333333 -166.833333333 677 -192.666666667 669 -226 c 0
 667 -236 666 -245.333333333 666 -254 c 0
 666 -302.666666667 696.333333333 -339 757 -363 c 0
 831 -391.666666667 922.666666667 -406 1032 -406 c 0
 1138 -406 1238 -383.333333333 1332 -338 c 128
 1426 -292.666666667 1503.5 -231.5 1564.5 -154.5 c 128
 1625.5 -77.5 1666 6.33333333333 1686 97 c 0
 1689.33333333 112.333333333 1692 128 1694 144 c 128
 1696 160 1697 174.666666667 1697 188 c 0
 1697 221.333333333 1691 249 1679 271 c 0
 1657.66666667 310.333333333 1628 330 1590 330 c 0
 1570 330 1552.66666667 324.666666667 1538 314 c 1
 1439 -150 l 1
 1265 -150 l 1
 1355 271 l 1
 1181 271 l 1
 1111.66666667 186.333333333 1020.33333333 120 907 72 c 128
 793.666666667 24 673.666666667 0 547 0 c 0
 439 0 351.833333333 13.3333333333 285.5 40 c 128
 219.166666667 66.6666666667 170 99.6666666667 138 139 c 0
 121.333333333 159 107.666666667 178.833333333 97 198.5 c 128
 86.3333333333 218.166666667 77 240 69 264 c 0
 65.6666666667 272 64 279.333333333 64 286 c 0
 64 289.333333333 64.6666666667 294.333333333 66 301 c 0
 75.3333333333 342.333333333 105 363 155 363 c 2
 1068 363 l 1
 1092 392.333333333 1112 423.666666667 1128 457 c 128
 1144 490.333333333 1156 525 1164 561 c 0
 1169.33333333 586.333333333 1172 609 1172 629 c 0
 1172 709 1133 765.666666667 1055 799 c 1
 1070.33333333 775.666666667 1078 746 1078 710 c 0
 1078 687.333333333 1075 662.333333333 1069 635 c 0
 1055.66666667 571.666666667 1027.33333333 519.333333333 984 478 c 128
 940.666666667 436.666666667 881.666666667 416 807 416 c 0
 740.333333333 416 693.666666667 440.333333333 667 489 c 0
 650.333333333 519.666666667 642 555.333333333 642 596 c 0
 642 617.333333333 644.666666667 641.333333333 650 668 c 0
 666 741.333333333 703.333333333 802 762 850 c 128
 820.666666667 898 893.666666667 922 981 922 c 0
 1065 922 1134.83333333 906.666666667 1190.5 876 c 128
 1246.16666667 845.333333333 1284 799.666666667 1304 739 c 0
 1314.66666667 707.666666667 1320 672.666666667 1320 634 c 0
 1320 598 1315.66666667 560.666666667 1307 522 c 0
 1295.66666667 468 1275.66666667 415 1247 363 c 1
 1374 363 l 1
 1493 922 l 1
 1667 922 l 1
 1559 412 l 1
 1591 434 1628 445 1670 445 c 0
 1716.66666667 445 1757.16666667 432 1791.5 406 c 128
 1825.83333333 380 1850 340.666666667 1864 288 c 0
 1870 264 1873 238 1873 210 c 0
 1873 178 1869 143 1861 105 c 0
934 652 m 0
 937.333333333 670.666666667 939 687 939 701 c 0
 939 718.333333333 936.666666667 734 932 748 c 0
 924 775.333333333 912 793.666666667 896 803 c 1
 859.333333333 803 827.166666667 789.833333333 799.5 763.5 c 128
 771.833333333 737.166666667 753.333333333 704.666666667 744 666 c 0
 740.666666667 650.666666667 739 638 739 628 c 0
 739 607.333333333 744 590 754 576 c 0
 770.666666667 555.333333333 791.666666667 545 817 545 c 0
 845 545 870 556 892 578 c 128
 914 600 928 624.666666667 934 652 c 0
986 271 m 1
 198 271 l 2
 181.333333333 271 171 262.666666667 167 246 c 1
 216.333333333 144.666666667 337.333333333 94 530 94 c 0
 614 94 695.5 109.166666667 774.5 139.5 c 128
 853.5 169.833333333 924 213.666666667 986 271 c 1
EndSplineSet
EndChar

StartChar: u0B87
Encoding: 43 2951 43
Width: 1585
Flags: HW
AnchorPoint: "V" 758.5 1289.06 basechar 0
AnchorPoint: "N" 758.5 -180 basechar 0
LayerCount: 2
Fore
SplineSet
1489 506 m 0
 1467.66666667 406.666666667 1437.33333333 309.5 1398 214.5 c 128
 1358.66666667 119.5 1320.33333333 40 1283 -24 c 0
 1240.33333333 -98 1207.33333333 -151 1184 -183 c 1
 1116 -154 l 1
 1161.33333333 -92.6666666667 1211 -6.33333333333 1265 105 c 0
 1317 213 1356.66666667 331.666666667 1384 461 c 0
 1390.66666667 493.666666667 1396 526.5 1400 559.5 c 128
 1404 592.5 1406 623.333333333 1406 652 c 0
 1406 712 1398 768.666666667 1382 822 c 0
 1350.66666667 926 1294.33333333 1005.5 1213 1060.5 c 128
 1131.66666667 1115.5 1033 1143 917 1143 c 0
 809 1143 706.5 1122 609.5 1080 c 128
 512.5 1038 430.666666667 980 364 906 c 128
 297.333333333 832 254 750 234 660 c 0
 229.333333333 639.333333333 226.333333333 616 225 590 c 128
 223.666666667 564 223 535.333333333 223 504 c 2
 223 480 l 2
 223 448 226.666666667 415.666666667 234 383 c 0
 238.666666667 361 248 329 262 287 c 1
 328 317.666666667 398.333333333 341.666666667 473 359 c 128
 547.666666667 376.333333333 621 385 693 385 c 0
 746.333333333 385 797 381 845 373 c 1
 855 392.333333333 864.833333333 415.5 874.5 442.5 c 128
 884.166666667 469.5 892 495.333333333 898 520 c 0
 905.333333333 556.666666667 909 588.666666667 909 616 c 0
 909 708 871.666666667 769 797 799 c 1
 811 775 818 745.333333333 818 710 c 0
 818 688 815 663 809 635 c 0
 795.666666667 571.666666667 767.333333333 519.333333333 724 478 c 128
 680.666666667 436.666666667 621.666666667 416 547 416 c 0
 481.666666667 416 435.666666667 440.333333333 409 489 c 0
 392.333333333 519.666666667 384 555.666666667 384 597 c 0
 384 617.666666667 386.666666667 641.333333333 392 668 c 0
 407.333333333 740.666666667 444.5 801.166666667 503.5 849.5 c 128
 562.5 897.833333333 635 922 721 922 c 0
 805.666666667 922 875.833333333 906.666666667 931.5 876 c 128
 987.166666667 845.333333333 1025 799.666666667 1045 739 c 0
 1055.66666667 707 1061 670.666666667 1061 630 c 0
 1061 597.333333333 1057 561.333333333 1049 522 c 0
 1035 454.666666667 1013.66666667 392 985 334 c 1
 1047.66666667 308 1094.33333333 274 1125 232 c 0
 1148.33333333 199.333333333 1160 164.333333333 1160 127 c 0
 1160 122.333333333 1159.83333333 117.166666667 1159.5 111.5 c 128
 1159.16666667 105.833333333 1158 98 1156 88 c 0
 1136.66666667 -0.666666666667 1089 -67.5 1013 -112.5 c 128
 937 -157.5 842.666666667 -180 730 -180 c 0
 644.666666667 -180 565.333333333 -163.666666667 492 -131 c 1
 408.666666667 -163.666666667 324.333333333 -180 239 -180 c 0
 154.333333333 -180 91 -162.333333333 49 -127 c 0
 17.6666666667 -99.6666666667 2 -62.6666666667 2 -16 c 0
 2 -2 3.66666666667 15 7 35 c 0
 23 109 77.3333333333 176.666666667 170 238 c 1
 140 327.333333333 125 416 125 504 c 0
 125 558 130.666666667 613.333333333 142 670 c 0
 164 770.666666667 201.666666667 862.166666667 255 944.5 c 128
 308.333333333 1026.83333333 371.333333333 1094.5 444 1147.5 c 128
 516.666666667 1200.5 597 1241 685 1269 c 128
 773 1297 862.333333333 1311 953 1311 c 0
 1059 1311 1151.66666667 1293 1231 1257 c 128
 1310.33333333 1221 1374 1168.66666667 1422 1100 c 0
 1445.33333333 1064.66666667 1464.33333333 1026.33333333 1479 985 c 128
 1493.66666667 943.666666667 1504 897.333333333 1510 846 c 0
 1512 832 1513.33333333 817.333333333 1514 802 c 128
 1514.66666667 786.666666667 1515 768.666666667 1515 748 c 0
 1515 675.333333333 1506.33333333 594.666666667 1489 506 c 0
674 652 m 0
 677.333333333 670.666666667 679 687 679 701 c 0
 679 718.333333333 676.666666667 734 672 748 c 0
 664 775.333333333 652 793.666666667 636 803 c 1
 598.666666667 803 566.666666667 790 540 764 c 128
 513.333333333 738 495.333333333 705.333333333 486 666 c 0
 482.666666667 650.666666667 481 638 481 628 c 0
 481 608 485.666666667 590.666666667 495 576 c 0
 511.666666667 555.333333333 532.333333333 545 557 545 c 0
 585 545 610 556 632 578 c 128
 654 600 668 624.666666667 674 652 c 0
993 92 m 0
 994.333333333 97.3333333333 995 105.333333333 995 116 c 0
 995 156.666666667 972.333333333 193.333333333 927 226 c 1
 846.333333333 106 744 7.33333333333 620 -70 c 1
 662 -80.6666666667 706 -86 752 -86 c 0
 794.666666667 -86 833.166666667 -78 867.5 -62 c 128
 901.833333333 -46 929.666666667 -24 951 4 c 128
 972.333333333 32 986.333333333 61.3333333333 993 92 c 0
793 283 m 1
 759 292.333333333 717.666666667 297 669 297 c 0
 612.333333333 297 550.833333333 288.833333333 484.5 272.5 c 128
 418.166666667 256.166666667 356.666666667 233.666666667 300 205 c 1
 326 159 343 130.333333333 351 119 c 0
 387 70.3333333333 433.666666667 26.3333333333 491 -13 c 1
 612.333333333 57 713 155.666666667 793 283 c 1
377 -64 m 1
 351 -43.3333333333 328 -22.3333333333 308 -1 c 128
 288 20.3333333333 270 42.6666666667 254 66 c 0
 238.666666667 86.6666666667 222.666666667 115.333333333 206 152 c 1
 145.333333333 113.333333333 110 71.6666666667 100 27 c 0
 98.6666666667 22.3333333333 98 15.3333333333 98 6 c 0
 98 -18 109.333333333 -38.3333333333 132 -55 c 0
 160.666666667 -75.6666666667 200.333333333 -86 251 -86 c 0
 288.333333333 -86 330.333333333 -78.6666666667 377 -64 c 1
EndSplineSet
EndChar

StartChar: u0B88
Encoding: 44 2952 44
Width: 1059
Flags: HW
AnchorPoint: "V" 494.5 939 basechar 0
AnchorPoint: "N" 494.5 0 basechar 0
LayerCount: 2
Fore
SplineSet
952 461 m 0
 946 433 931 409.333333333 907 390 c 128
 883 370.666666667 857.666666667 361 831 361 c 0
 803 361 781.333333333 370.666666667 766 390 c 0
 755.333333333 404.666666667 750 421.333333333 750 440 c 0
 750 449.333333333 750.666666667 456.333333333 752 461 c 0
 758 489 772.833333333 513 796.5 533 c 128
 820.166666667 553 846 563 874 563 c 0
 901.333333333 563 922.666666667 553 938 533 c 0
 948.666666667 518.333333333 954 501.333333333 954 482 c 0
 954 472.666666667 953.333333333 465.666666667 952 461 c 0
969 828 m 1
 768 828 l 1
 592 0 l 1
 420 0 l 1
 596 828 l 1
 270 828 l 1
 94 0 l 1
 0 0 l 1
 196 922 l 1
 989 922 l 1
 969 828 l 1
453 461 m 0
 447 434.333333333 432.333333333 410.666666667 409 390 c 0
 385.666666667 370.666666667 360.333333333 361 333 361 c 0
 305 361 283.333333333 370.666666667 268 390 c 0
 257.333333333 404.666666667 252 421.333333333 252 440 c 0
 252 449.333333333 252.666666667 456.333333333 254 461 c 0
 260 488.333333333 274.333333333 512.333333333 297 533 c 0
 321 553 347.333333333 563 376 563 c 0
 404 563 425 553 439 533 c 0
 449.666666667 518.333333333 455 501.333333333 455 482 c 0
 455 472.666666667 454.333333333 465.666666667 453 461 c 0
EndSplineSet
EndChar

StartChar: u0B89
Encoding: 45 2953 45
Width: 1639
Flags: HW
AnchorPoint: "V" 790.5 939 basechar 0
AnchorPoint: "N" 790.5 0 basechar 0
LayerCount: 2
Fore
SplineSet
1555 43 m 0
 1549.66666667 14.3333333333 1524.33333333 0 1479 0 c 2
 170 0 l 2
 117.333333333 0 78.3333333333 13.6666666667 53 41 c 0
 34.3333333333 63 25 87 25 113 c 0
 25 121.666666667 26 130.666666667 28 140 c 0
 36 178 58 210.666666667 94 238 c 128
 130 265.333333333 175 279 229 279 c 2
 481 279 l 2
 537.666666667 279 589.333333333 304.666666667 636 356 c 128
 682.666666667 407.333333333 713 464.333333333 727 527 c 0
 735 565 739 599.333333333 739 630 c 0
 739 762 664 828 514 828 c 0
 462.666666667 828 411.833333333 815.666666667 361.5 791 c 128
 311.166666667 766.333333333 275.333333333 736.333333333 254 701 c 1
 293.333333333 735 340 752 394 752 c 0
 433.333333333 752 465.833333333 741.833333333 491.5 721.5 c 128
 517.166666667 701.166666667 535 674 545 640 c 0
 547.666666667 631.333333333 549.666666667 622.666666667 551 614 c 128
 552.333333333 605.333333333 553 595.666666667 553 585 c 0
 553 575 552.166666667 564.833333333 550.5 554.5 c 128
 548.833333333 544.166666667 547.333333333 535.666666667 546 529 c 0
 532 460.333333333 501 407 453 369 c 128
 405 331 347.666666667 312 281 312 c 0
 171.666666667 312 117 372 117 492 c 0
 117 528.666666667 122 571.166666667 132 619.5 c 128
 142 667.833333333 166.666666667 715.833333333 206 763.5 c 128
 245.333333333 811.166666667 296.166666667 849.5 358.5 878.5 c 128
 420.833333333 907.5 488.333333333 922 561 922 c 0
 651 922 723.5 905.833333333 778.5 873.5 c 128
 833.5 841.166666667 870.333333333 795.666666667 889 737 c 0
 894.333333333 721.666666667 898 706.333333333 900 691 c 128
 902 675.666666667 903 657.666666667 903 637 c 0
 903 602.333333333 899.333333333 568.333333333 892 535 c 0
 866 415.666666667 816.666666667 326 744 266 c 128
 671.333333333 206 577 176 461 176 c 2
 263 176 l 2
 241.666666667 176 224.166666667 172 210.5 164 c 128
 196.833333333 156 188.666666667 145 186 131 c 0
 183.333333333 117.666666667 186.666666667 106.5 196 97.5 c 128
 205.333333333 88.5 220.333333333 84 241 84 c 2
 1497 84 l 2
 1536.33333333 84 1556 73.3333333333 1556 52 c 0
 1556 48 1555.66666667 45 1555 43 c 0
398 533 m 0
 399.333333333 541 400 548.333333333 400 555 c 0
 400 567 398.5 578.166666667 395.5 588.5 c 128
 392.5 598.833333333 387.333333333 607.666666667 380 615 c 0
 365.333333333 628.333333333 347.333333333 635 326 635 c 0
 286.666666667 635 250 614.666666667 216 574 c 1
 212 554.666666667 210 537.333333333 210 522 c 0
 210 502 213.666666667 483.666666667 221 467 c 0
 234.333333333 438.333333333 257 424 289 424 c 0
 315.666666667 424 339 435 359 457 c 128
 379 479 392 504.333333333 398 533 c 0
EndSplineSet
EndChar

StartChar: u0B8A
Encoding: 46 2954 46
Width: 2642
Flags: HW
AnchorPoint: "V" 1329 939 basechar 0
AnchorPoint: "N" 1329 0 basechar 0
LayerCount: 2
Fore
SplineSet
2613 828 m 1
 2415 828 l 1
 2265 121 l 1
 2091 121 l 1
 2241 828 l 1
 2036 828 l 1
 1886 121 l 1
 1712 121 l 1
 1822 639 l 2
 1823.33333333 643.666666667 1824.33333333 649.333333333 1825 656 c 128
 1825.66666667 662.666666667 1826 668.666666667 1826 674 c 0
 1826 714 1809.66666667 747.666666667 1777 775 c 0
 1734.33333333 810.333333333 1672.33333333 828 1591 828 c 0
 1506.33333333 828 1427.83333333 810 1355.5 774 c 128
 1283.16666667 738 1232.66666667 698 1204 654 c 1
 1256.66666667 685.333333333 1317.33333333 701 1386 701 c 0
 1434 701 1475.66666667 689 1511 665 c 128
 1546.33333333 641 1571 607.333333333 1585 564 c 0
 1592.33333333 542.666666667 1596 518 1596 490 c 0
 1596 474.666666667 1595.66666667 463 1595 455 c 128
 1594.33333333 447 1592 435.333333333 1588 420 c 0
 1569.33333333 329.333333333 1534.5 256.833333333 1483.5 202.5 c 128
 1432.5 148.166666667 1370 121 1296 121 c 0
 1201.33333333 121 1133 156.666666667 1091 228 c 0
 1067 272 1055 325.666666667 1055 389 c 0
 1055 429.666666667 1060 474 1070 522 c 0
 1088 606.666666667 1121.5 678.666666667 1170.5 738 c 128
 1219.5 797.333333333 1281.33333333 842.833333333 1356 874.5 c 128
 1430.66666667 906.166666667 1509.66666667 922 1593 922 c 0
 1695 922 1774.83333333 911.166666667 1832.5 889.5 c 128
 1890.16666667 867.833333333 1928.66666667 840.333333333 1948 807 c 1
 1972 922 l 1
 2633 922 l 1
 2613 828 l 1
2432 43 m 0
 2426 14.3333333333 2400.33333333 0 2355 0 c 2
 170 0 l 2
 117.333333333 0 78.3333333333 13.6666666667 53 41 c 0
 34.3333333333 63 25 87 25 113 c 0
 25 121.666666667 26 130.666666667 28 140 c 0
 36 178 58 210.666666667 94 238 c 128
 130 265.333333333 175 279 229 279 c 2
 481 279 l 2
 537.666666667 279 589.333333333 304.666666667 636 356 c 128
 682.666666667 407.333333333 713 464.333333333 727 527 c 0
 735 565 739 599.333333333 739 630 c 0
 739 762 664 828 514 828 c 0
 462.666666667 828 411.833333333 815.666666667 361.5 791 c 128
 311.166666667 766.333333333 275.333333333 736.333333333 254 701 c 1
 293.333333333 735 340 752 394 752 c 0
 433.333333333 752 465.833333333 741.833333333 491.5 721.5 c 128
 517.166666667 701.166666667 535 674 545 640 c 0
 547.666666667 631.333333333 549.666666667 622.666666667 551 614 c 128
 552.333333333 605.333333333 553 595.666666667 553 585 c 0
 553 575 552.166666667 564.833333333 550.5 554.5 c 128
 548.833333333 544.166666667 547.333333333 535.666666667 546 529 c 0
 532 460.333333333 501 407 453 369 c 128
 405 331 347.666666667 312 281 312 c 0
 171.666666667 312 117 372 117 492 c 0
 117 528.666666667 122 571.166666667 132 619.5 c 128
 142 667.833333333 166.666666667 715.833333333 206 763.5 c 128
 245.333333333 811.166666667 296.166666667 849.5 358.5 878.5 c 128
 420.833333333 907.5 488.333333333 922 561 922 c 0
 651 922 723.5 905.833333333 778.5 873.5 c 128
 833.5 841.166666667 870.333333333 795.666666667 889 737 c 0
 894.333333333 721.666666667 898 706.333333333 900 691 c 128
 902 675.666666667 903 657.666666667 903 637 c 0
 903 602.333333333 899.333333333 568.333333333 892 535 c 0
 866 415.666666667 816.666666667 326 744 266 c 128
 671.333333333 206 577 176 461 176 c 2
 263 176 l 2
 241.666666667 176 224.166666667 172 210.5 164 c 128
 196.833333333 156 188.666666667 145 186 131 c 0
 183.333333333 117.666666667 186.666666667 106.5 196 97.5 c 128
 205.333333333 88.5 220.333333333 84 241 84 c 2
 2373 84 l 2
 2417.66666667 84 2437.33333333 70.3333333333 2432 43 c 0
1409 422 m 0
 1409.66666667 428 1410.5 433.666666667 1411.5 439 c 128
 1412.5 444.333333333 1413 450.333333333 1413 457 c 0
 1413 482.333333333 1406 506.666666667 1392 530 c 0
 1372 563.333333333 1343.66666667 580 1307 580 c 0
 1273.66666667 580 1243 571 1215 553 c 128
 1187 535 1167 513.333333333 1155 488 c 0
 1153.66666667 483.333333333 1152.5 475.5 1151.5 464.5 c 128
 1150.5 453.5 1150 442.666666667 1150 432 c 0
 1150 402 1155 371.333333333 1165 340 c 0
 1182.33333333 292.666666667 1213 269 1257 269 c 0
 1294.33333333 269 1326.83333333 284 1354.5 314 c 128
 1382.16666667 344 1400.33333333 380 1409 422 c 0
398 533 m 0
 399.333333333 541 400 548.333333333 400 555 c 0
 400 567 398.5 578.166666667 395.5 588.5 c 128
 392.5 598.833333333 387.333333333 607.666666667 380 615 c 0
 365.333333333 628.333333333 347.333333333 635 326 635 c 0
 286.666666667 635 250 614.666666667 216 574 c 1
 212 554.666666667 210 537.333333333 210 522 c 0
 210 502 213.666666667 483.666666667 221 467 c 0
 234.333333333 438.333333333 257 424 289 424 c 0
 315.666666667 424 339 435 359 457 c 128
 379 479 392 504.333333333 398 533 c 0
EndSplineSet
EndChar

StartChar: u0B8E
Encoding: 47 2958 47
Width: 1307
Flags: HW
AnchorPoint: "V" 685.5 939 basechar 0
AnchorPoint: "N" 685.5 0 basechar 0
LayerCount: 2
Fore
SplineSet
1278 828 m 1
 1077 828 l 1
 901 0 l 1
 729 0 l 1
 905 828 l 1
 633 828 l 2
 527 828 438 800.333333333 366 745 c 128
 294 689.666666667 245 626.333333333 219 555 c 1
 271 595 334 615 408 615 c 0
 460.666666667 615 505.166666667 602.333333333 541.5 577 c 128
 577.833333333 551.666666667 603.333333333 517 618 473 c 0
 624.666666667 451 628 426.333333333 628 399 c 0
 628 374.333333333 625 348 619 320 c 0
 597.666666667 221.333333333 561.166666667 143.333333333 509.5 86 c 128
 457.833333333 28.6666666667 392.666666667 0 314 0 c 0
 249.333333333 0 196.666666667 17 156 51 c 128
 115.333333333 85 89.6666666667 133.333333333 79 196 c 0
 75 219.333333333 73 244.333333333 73 271 c 0
 73 292.333333333 74.6666666667 316.666666667 78 344 c 128
 81.3333333333 371.333333333 85.6666666667 398.666666667 91 426 c 0
 107 502.666666667 131.666666667 571.333333333 165 632 c 0
 183 663.333333333 202 691.833333333 222 717.5 c 128
 242 743.166666667 264 767 288 789 c 0
 336 832.333333333 389.666666667 865.333333333 449 888 c 128
 508.333333333 910.666666667 570.333333333 922 635 922 c 2
 1298 922 l 1
 1278 828 l 1
444 316 m 0
 447.333333333 331.333333333 449 345 449 357 c 0
 449 385 441.666666667 412 427 438 c 0
 407 475.333333333 377.666666667 494 339 494 c 0
 303.666666667 494 271.666666667 484 243 464 c 128
 214.333333333 444 192.333333333 419 177 389 c 1
 173.666666667 374.333333333 171 359 169 343 c 128
 167 327 166 312 166 298 c 0
 166 268 170.666666667 240 180 214 c 0
 196.666666667 167.333333333 231 144 283 144 c 0
 323.666666667 144 358.166666667 160.833333333 386.5 194.5 c 128
 414.833333333 228.166666667 434 268.666666667 444 316 c 0
EndSplineSet
EndChar

StartChar: u0B8F
Encoding: 48 2959 48
Width: 1307
Flags: HW
AnchorPoint: "V" 685.5 939 basechar 0
AnchorPoint: "N" 685.5 -252.488 basechar 0
LayerCount: 2
Fore
SplineSet
1278 828 m 1
 1077 828 l 1
 902 6 l 1
 506 -277 l 1
 353 -279 l 1
 733 17 l 1
 905 828 l 1
 633 828 l 2
 527 828 438 800.333333333 366 745 c 128
 294 689.666666667 245 626.333333333 219 555 c 1
 271 595 334 615 408 615 c 0
 460.666666667 615 505.166666667 602.333333333 541.5 577 c 128
 577.833333333 551.666666667 603.333333333 517 618 473 c 0
 624.666666667 451 628 426.333333333 628 399 c 0
 628 374.333333333 625 348 619 320 c 0
 597.666666667 221.333333333 561.166666667 143.333333333 509.5 86 c 128
 457.833333333 28.6666666667 392.666666667 0 314 0 c 0
 249.333333333 0 196.666666667 17 156 51 c 128
 115.333333333 85 89.6666666667 133.333333333 79 196 c 0
 75 219.333333333 73 244.333333333 73 271 c 0
 73 292.333333333 74.6666666667 316.666666667 78 344 c 128
 81.3333333333 371.333333333 85.6666666667 398.666666667 91 426 c 0
 107 502.666666667 131.666666667 571.333333333 165 632 c 0
 183 663.333333333 202 691.833333333 222 717.5 c 128
 242 743.166666667 264 767 288 789 c 0
 336 832.333333333 389.666666667 865.333333333 449 888 c 128
 508.333333333 910.666666667 570.333333333 922 635 922 c 2
 1298 922 l 1
 1278 828 l 1
444 316 m 0
 447.333333333 331.333333333 449 345 449 357 c 0
 449 385 441.666666667 412 427 438 c 0
 407 475.333333333 377.666666667 494 339 494 c 0
 303.666666667 494 271.666666667 484 243 464 c 128
 214.333333333 444 192.333333333 419 177 389 c 1
 173.666666667 374.333333333 171 359 169 343 c 128
 167 327 166 312 166 298 c 0
 166 268 170.666666667 240 180 214 c 0
 196.666666667 167.333333333 231 144 283 144 c 0
 323.666666667 144 358.166666667 160.833333333 386.5 194.5 c 128
 414.833333333 228.166666667 434 268.666666667 444 316 c 0
EndSplineSet
EndChar

StartChar: u0B90
Encoding: 49 2960 49
Width: 1325
Flags: HW
AnchorPoint: "V" 640 939 basechar 0
AnchorPoint: "N" 640 -353 basechar 0
LayerCount: 2
Fore
SplineSet
1247 594 m 0
 1233.66666667 528.666666667 1207.16666667 464.5 1167.5 401.5 c 128
 1127.83333333 338.5 1077.66666667 292 1017 262 c 0
 969.666666667 240.666666667 918.333333333 225 863 215 c 0
 832.333333333 209.666666667 799.833333333 205 765.5 201 c 128
 731.166666667 197 695.666666667 195 659 195 c 0
 621 195 584.333333333 193.333333333 549 190 c 128
 513.666666667 186.666666667 489.333333333 184.333333333 476 183 c 0
 435.333333333 179 395 170 355 156 c 0
 324.333333333 146 293.166666667 124.166666667 261.5 90.5 c 128
 229.833333333 56.8333333333 207.333333333 13 194 -41 c 0
 191.333333333 -55 189.333333333 -67.3333333333 188 -78 c 128
 186.666666667 -88.6666666667 186 -100.666666667 186 -114 c 0
 186 -143.333333333 191 -170 201 -194 c 0
 218.333333333 -235.333333333 251.666666667 -256 301 -256 c 0
 341.666666667 -256 382.833333333 -238.166666667 424.5 -202.5 c 128
 466.166666667 -166.833333333 490.333333333 -132.333333333 497 -99 c 2
 527 41 l 1
 691 41 l 1
 662 -94 l 2
 660 -105.333333333 659 -116.666666667 659 -128 c 0
 659 -155.333333333 667 -181.666666667 683 -207 c 0
 706.333333333 -242.333333333 743 -260 793 -260 c 0
 838.333333333 -260 875 -244.833333333 903 -214.5 c 128
 931 -184.166666667 950 -146.333333333 960 -101 c 0
 966 -73.6666666667 969 -48 969 -24 c 0
 969 18 959.333333333 54.6666666667 940 86 c 1
 1063 135 l 1
 1081 95 1090 51.3333333333 1090 4 c 0
 1090 -22.6666666667 1087 -50.6666666667 1081 -80 c 0
 1065 -155.333333333 1029.33333333 -219.666666667 974 -273 c 128
 918.666666667 -326.333333333 847.666666667 -353 761 -353 c 0
 659 -353 593.666666667 -320.666666667 565 -256 c 1
 536.333333333 -283.333333333 498.666666667 -306.333333333 452 -325 c 0
 427.333333333 -334.333333333 403.166666667 -341.333333333 379.5 -346 c 128
 355.833333333 -350.666666667 330.666666667 -353 304 -353 c 0
 192.666666667 -353 114 -325 68 -269 c 0
 36.6666666667 -229.666666667 21 -181 21 -123 c 0
 21 -97.6666666667 24 -70.3333333333 30 -41 c 0
 40 6.33333333333 56.6666666667 48.1666666667 80 84.5 c 128
 103.333333333 120.833333333 130.666666667 150.5 162 173.5 c 128
 193.333333333 196.5 225.666666667 214 259 226 c 0
 332.333333333 252 410.666666667 269 494 277 c 2
 737 298 l 1
 774.333333333 298 808.333333333 301.666666667 839 309 c 128
 869.666666667 316.333333333 898.666666667 326 926 338 c 0
 968 357.333333333 1003.33333333 396.166666667 1032 454.5 c 128
 1060.66666667 512.833333333 1079.66666667 565 1089 611 c 0
 1091.66666667 624.333333333 1093.66666667 636.5 1095 647.5 c 128
 1096.33333333 658.5 1097 670 1097 682 c 0
 1097 714 1091 742 1079 766 c 0
 1059.66666667 807.333333333 1022.33333333 828 967 828 c 0
 931 828 900.333333333 812.333333333 875 781 c 0
 862.333333333 765.666666667 852.5 750.666666667 845.5 736 c 128
 838.5 721.333333333 833 706 829 690 c 2
 773 428 l 1
 609 428 l 1
 663 680 l 2
 664.333333333 685.333333333 665 693.333333333 665 704 c 0
 665 716 663 729 659 743 c 0
 651.666666667 766.333333333 636.333333333 786.333333333 613 803 c 0
 587.666666667 819.666666667 554.666666667 828 514 828 c 0
 462.666666667 828 411.833333333 815.666666667 361.5 791 c 128
 311.166666667 766.333333333 275.333333333 736.333333333 254 701 c 1
 293.333333333 735 340 752 394 752 c 0
 433.333333333 752 465.833333333 741.833333333 491.5 721.5 c 128
 517.166666667 701.166666667 535 674 545 640 c 0
 547.666666667 631.333333333 549.666666667 622.666666667 551 614 c 128
 552.333333333 605.333333333 553 595.666666667 553 585 c 0
 553 575 552.166666667 564.833333333 550.5 554.5 c 128
 548.833333333 544.166666667 547.333333333 535.666666667 546 529 c 0
 532 460.333333333 501 407 453 369 c 128
 405 331 347.666666667 312 281 312 c 0
 171.666666667 312 117 372 117 492 c 0
 117 528.666666667 122.333333333 572.166666667 133 622.5 c 128
 143.666666667 672.833333333 167.833333333 721.166666667 205.5 767.5 c 128
 243.166666667 813.833333333 293.333333333 851.166666667 356 879.5 c 128
 418.666666667 907.833333333 487 922 561 922 c 0
 690.333333333 922 768.666666667 889.333333333 796 824 c 1
 847.333333333 889.333333333 917 922 1005 922 c 0
 1107.66666667 922 1179.33333333 893.666666667 1220 837 c 0
 1246 799.666666667 1259 753 1259 697 c 0
 1259 665.666666667 1255 631.333333333 1247 594 c 0
398 533 m 0
 399.333333333 541 400 548.333333333 400 555 c 0
 400 567 398.5 578.166666667 395.5 588.5 c 128
 392.5 598.833333333 387.333333333 607.666666667 380 615 c 0
 365.333333333 628.333333333 347.333333333 635 326 635 c 0
 286.666666667 635 250 614.666666667 216 574 c 1
 212 554.666666667 210 537.333333333 210 522 c 0
 210 502 213.666666667 483.666666667 221 467 c 0
 234.333333333 438.333333333 257 424 289 424 c 0
 315.666666667 424 339 435 359 457 c 128
 379 479 392 504.333333333 398 533 c 0
EndSplineSet
EndChar

StartChar: u0B92
Encoding: 50 2962 50
Width: 1366
Flags: HW
AnchorPoint: "V" 675 939 basechar 0
AnchorPoint: "N" 675 -484.659 basechar 0
LayerCount: 2
Fore
SplineSet
1254 436 m 0
 1240 370.666666667 1217.66666667 313.333333333 1187 264 c 128
 1156.33333333 214.666666667 1118.83333333 176.833333333 1074.5 150.5 c 128
 1030.16666667 124.166666667 984.666666667 111 938 111 c 0
 841.333333333 111 793 160 793 258 c 1
 790.333333333 244.666666667 788.333333333 233 787 223 c 128
 785.666666667 213 785 202.333333333 785 191 c 0
 785 153.666666667 795 126.333333333 815 109 c 0
 848.333333333 83 898.666666667 70 966 70 c 2
 1129 70 l 1
 1107 -31 l 1
 982 -31 l 2
 949.333333333 -31 921.833333333 -43.1666666667 899.5 -67.5 c 128
 877.166666667 -91.8333333333 852.333333333 -132.333333333 825 -189 c 2
 768 -301 l 2
 733.333333333 -363.666666667 686.833333333 -412.166666667 628.5 -446.5 c 128
 570.166666667 -480.833333333 494.666666667 -498 402 -498 c 0
 331.333333333 -498 271.666666667 -486.166666667 223 -462.5 c 128
 174.333333333 -438.833333333 140.666666667 -406.666666667 122 -366 c 0
 109.333333333 -337.333333333 103 -308.666666667 103 -280 c 0
 103 -264 105 -247.333333333 109 -230 c 0
 124.333333333 -160 154.333333333 -103.166666667 199 -59.5 c 128
 243.666666667 -15.8333333333 296.666666667 6 358 6 c 1
 366 -99 l 1
 276 -99 221.666666667 -142.666666667 203 -230 c 0
 201 -240 200 -249.666666667 200 -259 c 0
 200 -295 216.666666667 -326.666666667 250 -354 c 0
 292 -388.666666667 355 -406 439 -406 c 0
 477.666666667 -406 510.333333333 -398.666666667 537 -384 c 128
 563.666666667 -369.333333333 585.666666667 -349.833333333 603 -325.5 c 128
 620.333333333 -301.166666667 635.333333333 -272 648 -238 c 2
 683 -150 l 2
 691.666666667 -129.333333333 700.166666667 -111.166666667 708.5 -95.5 c 128
 716.833333333 -79.8333333333 725.333333333 -66 734 -54 c 0
 750 -29.3333333333 771.333333333 -10 798 4 c 1
 735.333333333 30 704 80.3333333333 704 155 c 0
 704 177.666666667 707 202.666666667 713 230 c 0
 722.333333333 273.333333333 739.166666667 318.166666667 763.5 364.5 c 128
 787.833333333 410.833333333 814.666666667 449.666666667 844 481 c 128
 873.333333333 512.333333333 901.333333333 533 928 543 c 1
 981 510 l 1
 931.666666667 473.333333333 899 420 883 350 c 0
 880.333333333 336.666666667 879 323 879 309 c 0
 879 295.666666667 881.5 280.833333333 886.5 264.5 c 128
 891.5 248.166666667 905.333333333 240 928 240 c 0
 1001.33333333 240 1051.66666667 304 1079 432 c 0
 1081.66666667 442 1083.66666667 454.166666667 1085 468.5 c 128
 1086.33333333 482.833333333 1087 496 1087 508 c 0
 1087 536.666666667 1083 564 1075 590 c 0
 1061 638.666666667 1036.5 681 1001.5 717 c 128
 966.5 753 925.166666667 780.5 877.5 799.5 c 128
 829.833333333 818.5 780.333333333 828 729 828 c 0
 621 828 524 808.333333333 438 769 c 128
 352 729.666666667 285.333333333 668.666666667 238 586 c 1
 280 612 329 625 385 625 c 0
 458.333333333 625 513 602 549 556 c 0
 574.333333333 524.666666667 587 486.333333333 587 441 c 0
 587 422.333333333 585 403 581 383 c 0
 565.666666667 305.666666667 534 242.666666667 486 194 c 128
 438 145.333333333 378.333333333 121 307 121 c 0
 249.666666667 121 202.833333333 136.166666667 166.5 166.5 c 128
 130.166666667 196.833333333 106 236.333333333 94 285 c 0
 88 309 85 334.666666667 85 362 c 0
 85 385.333333333 88.3333333333 413 95 445 c 0
 125.666666667 592.333333333 197.833333333 708.666666667 311.5 794 c 128
 425.166666667 879.333333333 577.333333333 922 768 922 c 0
 898 922 1002.66666667 899.666666667 1082 855 c 128
 1161.33333333 810.333333333 1214.33333333 751.333333333 1241 678 c 0
 1257 634.666666667 1265 589 1265 541 c 0
 1265 509 1261.33333333 474 1254 436 c 0
409 379 m 0
 410.333333333 384.333333333 411.333333333 390.666666667 412 398 c 128
 412.666666667 405.333333333 413 412 413 418 c 0
 413 441.333333333 408.333333333 461.333333333 399 478 c 0
 385 506 361.333333333 520 328 520 c 0
 262 520 215 493 187 439 c 1
 185 423.666666667 184 409.333333333 184 396 c 0
 184 366 189.333333333 337.333333333 200 310 c 0
 216 270 245.666666667 250 289 250 c 0
 320.333333333 250 345.833333333 262.166666667 365.5 286.5 c 128
 385.166666667 310.833333333 399.666666667 341.666666667 409 379 c 0
EndSplineSet
EndChar

StartChar: u0B93
Encoding: 51 2963 51
Width: 1366
Flags: HW
AnchorPoint: "V" 675 939 basechar 0
AnchorPoint: "N" 675 -484.659 basechar 0
LayerCount: 2
Fore
SplineSet
1254 436 m 0
 1240 370.666666667 1217.66666667 313.333333333 1187 264 c 128
 1156.33333333 214.666666667 1118.83333333 176.833333333 1074.5 150.5 c 128
 1030.16666667 124.166666667 984.666666667 111 938 111 c 0
 841.333333333 111 793 160 793 258 c 1
 787.666666667 234.666666667 785 211.666666667 785 189 c 0
 785 152.333333333 794.666666667 126 814 110 c 0
 830 97.3333333333 850.666666667 87.5 876 80.5 c 128
 901.333333333 73.5 931.333333333 70 966 70 c 2
 1129 70 l 1
 1107 -31 l 1
 982 -31 l 2
 949.333333333 -31 921.833333333 -43.1666666667 899.5 -67.5 c 128
 877.166666667 -91.8333333333 852.333333333 -132.333333333 825 -189 c 2
 768 -301 l 2
 733.333333333 -363.666666667 686.833333333 -412.166666667 628.5 -446.5 c 128
 570.166666667 -480.833333333 494.666666667 -498 402 -498 c 0
 330.666666667 -498 270.833333333 -486.166666667 222.5 -462.5 c 128
 174.166666667 -438.833333333 140.666666667 -406.666666667 122 -366 c 0
 109.333333333 -338.666666667 103 -310.333333333 103 -281 c 0
 103 -265 105 -248 109 -230 c 0
 124.333333333 -160.666666667 154.833333333 -104.666666667 200.5 -62 c 128
 246.166666667 -19.3333333333 302.333333333 2 369 2 c 0
 437 2 487.333333333 -14.3333333333 520 -47 c 0
 544 -72.3333333333 556 -101 556 -133 c 0
 556 -141 556 -141 556 -150 c 0
 554 -158 552.666666667 -164 552 -168 c 0
 538.666666667 -230.666666667 503 -282.666666667 445 -324 c 1
 364 -275 l 1
 403.333333333 -239.666666667 426.666666667 -206 434 -174 c 0
 435.333333333 -166 436 -160.666666667 436 -158 c 0
 436 -143.333333333 430.333333333 -130.333333333 419 -119 c 0
 402.333333333 -105.666666667 379.333333333 -99 350 -99 c 0
 315.333333333 -99 284.666666667 -109.833333333 258 -131.5 c 128
 231.333333333 -153.166666667 213 -186 203 -230 c 0
 201 -240 200 -249.666666667 200 -259 c 0
 200 -295 216.666666667 -326.666666667 250 -354 c 0
 292 -388.666666667 355 -406 439 -406 c 0
 492.333333333 -406 534.666666667 -392.166666667 566 -364.5 c 128
 597.333333333 -336.833333333 622 -301.333333333 640 -258 c 2
 698 -117 l 2
 712 -86.3333333333 727 -61.3333333333 743 -42 c 128
 759 -22.6666666667 777.333333333 -7.33333333333 798 4 c 1
 735.333333333 30 704 80.3333333333 704 155 c 0
 704 177.666666667 707 202.666666667 713 230 c 0
 722.333333333 273.333333333 739.166666667 318.166666667 763.5 364.5 c 128
 787.833333333 410.833333333 814.666666667 449.666666667 844 481 c 128
 873.333333333 512.333333333 901.333333333 533 928 543 c 1
 981 510 l 1
 931.666666667 473.333333333 899 420 883 350 c 0
 880.333333333 336.666666667 879 323 879 309 c 0
 879 295.666666667 881.5 280.833333333 886.5 264.5 c 128
 891.5 248.166666667 905.333333333 240 928 240 c 0
 1001.33333333 240 1051.66666667 304 1079 432 c 0
 1081.66666667 442 1083.66666667 454.166666667 1085 468.5 c 128
 1086.33333333 482.833333333 1087 496 1087 508 c 0
 1087 536.666666667 1083 564 1075 590 c 0
 1061 638.666666667 1036.5 681 1001.5 717 c 128
 966.5 753 925.166666667 780.5 877.5 799.5 c 128
 829.833333333 818.5 780.333333333 828 729 828 c 0
 621 828 524 808.333333333 438 769 c 128
 352 729.666666667 285.333333333 668.666666667 238 586 c 1
 280 612 329 625 385 625 c 0
 458.333333333 625 513 602 549 556 c 0
 574.333333333 524.666666667 587 486.333333333 587 441 c 0
 587 422.333333333 585 403 581 383 c 0
 565.666666667 305.666666667 534 242.666666667 486 194 c 128
 438 145.333333333 378.333333333 121 307 121 c 0
 249.666666667 121 202.833333333 136.166666667 166.5 166.5 c 128
 130.166666667 196.833333333 106 236.333333333 94 285 c 0
 88 309 85 334.666666667 85 362 c 0
 85 385.333333333 88.3333333333 413 95 445 c 0
 125.666666667 592.333333333 197.833333333 708.666666667 311.5 794 c 128
 425.166666667 879.333333333 577.333333333 922 768 922 c 0
 898 922 1002.66666667 899.666666667 1082 855 c 128
 1161.33333333 810.333333333 1214.33333333 751.333333333 1241 678 c 0
 1257 634.666666667 1265 589 1265 541 c 0
 1265 509 1261.33333333 474 1254 436 c 0
409 379 m 0
 410.333333333 384.333333333 411.333333333 390.666666667 412 398 c 128
 412.666666667 405.333333333 413 412 413 418 c 0
 413 441.333333333 408.333333333 461.333333333 399 478 c 0
 385 506 361.333333333 520 328 520 c 0
 262 520 215 493 187 439 c 1
 185 423.666666667 184 409.333333333 184 396 c 0
 184 366 189.333333333 337.333333333 200 310 c 0
 216 270 245.666666667 250 289 250 c 0
 320.333333333 250 345.833333333 262.166666667 365.5 286.5 c 128
 385.166666667 310.833333333 399.666666667 341.666666667 409 379 c 0
EndSplineSet
EndChar

StartChar: u0B95
Encoding: 53 2965 53
Width: 1266
Flags: HW
AnchorPoint: "V" 748 939 basechar 0
AnchorPoint: "N" 748 0 basechar 0
LayerCount: 2
Fore
SplineSet
1115 254 m 0
 1098.33333333 173.333333333 1062.16666667 110.833333333 1006.5 66.5 c 128
 950.833333333 22.1666666667 883.666666667 0 805 0 c 0
 689.666666667 0 623.666666667 32.3333333333 607 97 c 1
 571.666666667 70.3333333333 528.666666667 47.5 478 28.5 c 128
 427.333333333 9.5 375.333333333 0 322 0 c 0
 258 0 204.5 10.1666666667 161.5 30.5 c 128
 118.5 50.8333333333 87.3333333333 83.6666666667 68 129 c 0
 58 154.333333333 53 183.333333333 53 216 c 0
 53 239.333333333 56 265 62 293 c 0
 78 365.666666667 111 423.333333333 161 466 c 128
 211 508.666666667 256.666666667 533 298 539 c 1
 379 922 l 1
 1050 922 l 1
 1030 828 l 1
 830 828 l 1
 769 543 l 1
 849.666666667 543 918.166666667 536.333333333 974.5 523 c 128
 1030.83333333 509.666666667 1072.66666667 482 1100 440 c 0
 1116.66666667 414.666666667 1125 381.666666667 1125 341 c 0
 1125 313.666666667 1121.66666667 284.666666667 1115 254 c 0
597 543 m 1
 658 828 l 1
 451 828 l 1
 390 543 l 1
 597 543 l 1
950 250 m 0
 956 277.333333333 959 301.666666667 959 323 c 0
 959 347 955 366.666666667 947 382 c 0
 933 410.666666667 910.333333333 429 879 437 c 128
 847.666666667 445 804.333333333 449 749 449 c 1
 701 223 l 2
 699 214.333333333 697.666666667 204.333333333 697 193 c 128
 696.333333333 181.666666667 696 175.666666667 696 175 c 0
 696 155 700 138.333333333 708 125 c 0
 721.333333333 104.333333333 748.666666667 94 790 94 c 0
 824.666666667 94 857.5 107.5 888.5 134.5 c 128
 919.5 161.5 940 200 950 250 c 0
528 217 m 2
 577 449 l 1
 327 449 l 2
 296.333333333 449 263.166666667 435.333333333 227.5 408 c 128
 191.833333333 380.666666667 167 337 153 277 c 0
 149 257 147 239 147 223 c 0
 147 137 204.333333333 94 319 94 c 0
 356.333333333 94 398.833333333 106.833333333 446.5 132.5 c 128
 494.166666667 158.166666667 521.333333333 186.333333333 528 217 c 2
EndSplineSet
EndChar

StartChar: u0B95_u0BBF
Encoding: 54 -1 54
Width: 1485
Flags: HW
AnchorPoint: "V" 748 1445.77 basechar 0
AnchorPoint: "N" 748 0 basechar 0
LayerCount: 2
Fore
SplineSet
1280 0 m 1
 1196 0 l 1
 1390 914 l 2
 1392.66666667 926.666666667 1394.66666667 938.333333333 1396 949 c 128
 1397.33333333 959.666666667 1398 971.333333333 1398 984 c 0
 1398 1030 1386.66666667 1072.33333333 1364 1111 c 0
 1329.33333333 1170.33333333 1275.83333333 1216.16666667 1203.5 1248.5 c 128
 1131.16666667 1280.83333333 1046.66666667 1297 950 1297 c 0
 818.666666667 1297 706 1279.83333333 612 1245.5 c 128
 518 1211.16666667 444.166666667 1163.66666667 390.5 1103 c 128
 336.833333333 1042.33333333 301 971 283 889 c 0
 278.333333333 866.333333333 275.166666667 842 273.5 816 c 128
 271.833333333 790 271 761 271 729 c 0
 271 703.666666667 274.5 680 281.5 658 c 128
 288.5 636 298 616 310 598 c 1
 379 922 l 1
 1050 922 l 1
 1030 828 l 1
 830 828 l 1
 769 543 l 1
 849.666666667 543 918.166666667 536.333333333 974.5 523 c 128
 1030.83333333 509.666666667 1072.66666667 482 1100 440 c 0
 1116.66666667 414.666666667 1125 381.666666667 1125 341 c 0
 1125 313.666666667 1121.66666667 284.666666667 1115 254 c 0
 1098.33333333 173.333333333 1062.16666667 110.833333333 1006.5 66.5 c 128
 950.833333333 22.1666666667 883.666666667 0 805 0 c 0
 689.666666667 0 623.666666667 32.3333333333 607 97 c 1
 571.666666667 70.3333333333 528.666666667 47.5 478 28.5 c 128
 427.333333333 9.5 375.333333333 0 322 0 c 0
 258 0 204.5 10.1666666667 161.5 30.5 c 128
 118.5 50.8333333333 87.3333333333 83.6666666667 68 129 c 0
 58 154.333333333 53 183.333333333 53 216 c 0
 53 239.333333333 56 265 62 293 c 0
 74 349.666666667 97.1666666667 397.5 131.5 436.5 c 128
 165.833333333 475.5 202.666666667 504 242 522 c 1
 194.666666667 577.333333333 171 650 171 740 c 0
 171 760.666666667 172.333333333 782 175 804 c 128
 177.666666667 826 181.666666667 851 187 879 c 0
 195.666666667 920.333333333 206.666666667 958.833333333 220 994.5 c 128
 233.333333333 1030.16666667 250.333333333 1066.33333333 271 1103 c 0
 313 1175.66666667 366.166666667 1239 430.5 1293 c 128
 494.833333333 1347 573.666666667 1390.16666667 667 1422.5 c 128
 760.333333333 1454.83333333 866.333333333 1471 985 1471 c 0
 1123.66666667 1471 1233.33333333 1449.66666667 1314 1407 c 0
 1356 1385 1390 1358.5 1416 1327.5 c 128
 1442 1296.5 1461.16666667 1258.83333333 1473.5 1214.5 c 128
 1485.83333333 1170.16666667 1492 1123.33333333 1492 1074 c 0
 1492 1021.33333333 1485 963 1471 899 c 2
 1280 0 l 1
597 543 m 1
 658 828 l 1
 451 828 l 1
 390 543 l 1
 597 543 l 1
950 250 m 0
 956 277.333333333 959 301.666666667 959 323 c 0
 959 347 955 366.666666667 947 382 c 0
 933 410.666666667 910.333333333 429 879 437 c 128
 847.666666667 445 804.333333333 449 749 449 c 1
 701 223 l 2
 699 214.333333333 697.666666667 204.333333333 697 193 c 128
 696.333333333 181.666666667 696 175.666666667 696 175 c 0
 696 155 700 138.333333333 708 125 c 0
 721.333333333 104.333333333 748.666666667 94 790 94 c 0
 824.666666667 94 857.5 107.5 888.5 134.5 c 128
 919.5 161.5 940 200 950 250 c 0
528 217 m 2
 577 449 l 1
 327 449 l 2
 296.333333333 449 263.166666667 435.333333333 227.5 408 c 128
 191.833333333 380.666666667 167 337 153 277 c 0
 149 257 147 239 147 223 c 0
 147 137 204.333333333 94 319 94 c 0
 356.333333333 94 398.833333333 106.833333333 446.5 132.5 c 128
 494.166666667 158.166666667 521.333333333 186.333333333 528 217 c 2
EndSplineSet
EndChar

StartChar: u0B95_u0BC0
Encoding: 55 -1 55
Width: 1266
Flags: HW
AnchorPoint: "V" 748 1488.11 basechar 0
AnchorPoint: "N" 748 0 basechar 0
LayerCount: 2
Fore
SplineSet
1115 254 m 0
 1098.33333333 173.333333333 1062.16666667 110.833333333 1006.5 66.5 c 128
 950.833333333 22.1666666667 883.666666667 0 805 0 c 0
 689.666666667 0 623.666666667 32.3333333333 607 97 c 1
 571.666666667 70.3333333333 528.666666667 47.5 478 28.5 c 128
 427.333333333 9.5 375.333333333 0 322 0 c 0
 258 0 204.5 10.1666666667 161.5 30.5 c 128
 118.5 50.8333333333 87.3333333333 83.6666666667 68 129 c 0
 58 154.333333333 53 183.333333333 53 216 c 0
 53 239.333333333 56 265 62 293 c 0
 74 349.666666667 97.1666666667 397.5 131.5 436.5 c 128
 165.833333333 475.5 202.666666667 504 242 522 c 1
 194.666666667 577.333333333 171 650 171 740 c 0
 171 760.666666667 172.333333333 782 175 804 c 128
 177.666666667 826 181.666666667 851 187 879 c 0
 213 1002.33333333 264.166666667 1113 340.5 1211 c 128
 416.833333333 1309 510.333333333 1385 621 1439 c 128
 731.666666667 1493 850.333333333 1520 977 1520 c 0
 1077 1520 1161.33333333 1498.33333333 1230 1455 c 0
 1282 1423 1308 1373 1308 1305 c 0
 1308 1285 1305.33333333 1261.66666667 1300 1235 c 0
 1286 1171.66666667 1252.33333333 1118 1199 1074 c 128
 1145.66666667 1030 1083 1008 1011 1008 c 0
 964.333333333 1008 926.666666667 1017.16666667 898 1035.5 c 128
 869.333333333 1053.83333333 849 1079.33333333 837 1112 c 0
 834.333333333 1119.33333333 832.333333333 1127.83333333 831 1137.5 c 128
 829.666666667 1147.16666667 829 1157 829 1167 c 0
 829 1179.66666667 830.666666667 1195 834 1213 c 0
 849.333333333 1285 882.666666667 1339.66666667 934 1377 c 1
 891 1379 l 1
 794.333333333 1379 701.833333333 1354.5 613.5 1305.5 c 128
 525.166666667 1256.5 452.333333333 1194.33333333 395 1119 c 128
 337.666666667 1043.66666667 300.333333333 967 283 889 c 0
 278.333333333 866.333333333 275.166666667 842 273.5 816 c 128
 271.833333333 790 271 761 271 729 c 0
 271 703.666666667 274.5 680 281.5 658 c 128
 288.5 636 298 616 310 598 c 1
 379 922 l 1
 1050 922 l 1
 1030 828 l 1
 830 828 l 1
 769 543 l 1
 849.666666667 543 918.166666667 536.333333333 974.5 523 c 128
 1030.83333333 509.666666667 1072.66666667 482 1100 440 c 0
 1116.66666667 414.666666667 1125 381.666666667 1125 341 c 0
 1125 313.666666667 1121.66666667 284.666666667 1115 254 c 0
1153 1213 m 0
 1155 1224.33333333 1156 1234.66666667 1156 1244 c 0
 1156 1266.66666667 1149.66666667 1286.66666667 1137 1304 c 0
 1119 1329.33333333 1091.66666667 1342 1055 1342 c 1
 1022.33333333 1336 993.5 1320.66666667 968.5 1296 c 128
 943.5 1271.33333333 927.666666667 1243 921 1211 c 0
 919 1201.66666667 918 1192.66666667 918 1184 c 0
 918 1164.66666667 924 1146.33333333 936 1129 c 0
 953.333333333 1105.66666667 977.666666667 1094 1009 1094 c 0
 1042.33333333 1094 1073 1105.66666667 1101 1129 c 128
 1129 1152.33333333 1146.33333333 1180.33333333 1153 1213 c 0
597 543 m 1
 658 828 l 1
 451 828 l 1
 390 543 l 1
 597 543 l 1
950 250 m 0
 956 277.333333333 959 301.666666667 959 323 c 0
 959 347 955 366.666666667 947 382 c 0
 933 410.666666667 910.333333333 429 879 437 c 128
 847.666666667 445 804.333333333 449 749 449 c 1
 701 223 l 2
 699 214.333333333 697.666666667 204.333333333 697 193 c 128
 696.333333333 181.666666667 696 175.666666667 696 175 c 0
 696 155 700 138.333333333 708 125 c 0
 721.333333333 104.333333333 748.666666667 94 790 94 c 0
 824.666666667 94 857.5 107.5 888.5 134.5 c 128
 919.5 161.5 940 200 950 250 c 0
528 217 m 2
 577 449 l 1
 327 449 l 2
 296.333333333 449 263.166666667 435.333333333 227.5 408 c 128
 191.833333333 380.666666667 167 337 153 277 c 0
 149 257 147 239 147 223 c 0
 147 137 204.333333333 94 319 94 c 0
 356.333333333 94 398.833333333 106.833333333 446.5 132.5 c 128
 494.166666667 158.166666667 521.333333333 186.333333333 528 217 c 2
EndSplineSet
EndChar

StartChar: u0B95_u0BC1
Encoding: 56 -1 56
Width: 1596
Flags: HW
AnchorPoint: "V" 748 939 basechar 0
AnchorPoint: "N" 748 0 basechar 0
LayerCount: 2
Fore
SplineSet
1438 219 m 0
 1396.66666667 29.6666666667 1314.66666667 -120.833333333 1192 -232.5 c 128
 1069.33333333 -344.166666667 873.666666667 -400 605 -400 c 0
 489.666666667 -400 392.166666667 -383.333333333 312.5 -350 c 128
 232.833333333 -316.666666667 171 -268.5 127 -205.5 c 128
 83 -142.5 56 -67.3333333333 46 20 c 0
 44.6666666667 30 43.6666666667 41.8333333333 43 55.5 c 128
 42.3333333333 69.1666666667 42 82.6666666667 42 96 c 0
 42 162 50.3333333333 235.333333333 67 316 c 128
 83.6666666667 396.666666667 109.666666667 477.333333333 145 558 c 128
 180.333333333 638.666666667 220.333333333 709.833333333 265 771.5 c 128
 309.666666667 833.166666667 359.333333333 884.666666667 414 926 c 1
 465 873 l 1
 413 831 366.833333333 779.833333333 326.5 719.5 c 128
 286.166666667 659.166666667 252.333333333 594.333333333 225 525 c 128
 197.666666667 455.666666667 175.666666667 382.333333333 159 305 c 0
 152.333333333 273.666666667 147.333333333 243.833333333 144 215.5 c 128
 140.666666667 187.166666667 139 158.666666667 139 130 c 0
 139 78.6666666667 145 30.3333333333 157 -15 c 0
 181 -106.333333333 231.333333333 -177.5 308 -228.5 c 128
 384.666666667 -279.5 485 -305 609 -305 c 0
 755.666666667 -305 873.833333333 -281.166666667 963.5 -233.5 c 128
 1053.16666667 -185.833333333 1120.33333333 -123.666666667 1165 -47 c 0
 1187 -9.66666666667 1205.66666667 30 1221 72 c 128
 1236.33333333 114 1250.33333333 161.666666667 1263 215 c 0
 1265.66666667 225 1267.66666667 237 1269 251 c 128
 1270.33333333 265 1271 277.333333333 1271 288 c 0
 1271 328.666666667 1261.66666667 361.666666667 1243 387 c 0
 1213 428.333333333 1154.66666667 449 1068 449 c 1
 1020 223 l 2
 1014 193.666666667 993.833333333 161.666666667 959.5 127 c 128
 925.166666667 92.3333333333 879.5 62.5 822.5 37.5 c 128
 765.5 12.5 705 0 641 0 c 0
 577.666666667 0 524.333333333 10.3333333333 481 31 c 128
 437.666666667 51.6666666667 406.333333333 84.3333333333 387 129 c 0
 377.666666667 152.333333333 373 180.666666667 373 214 c 0
 373 237.333333333 376 263.666666667 382 293 c 0
 398 366.333333333 430.666666667 424.166666667 480 466.5 c 128
 529.333333333 508.833333333 574.333333333 533 615 539 c 1
 696 922 l 1
 1370 922 l 1
 1350 828 l 1
 1149 828 l 1
 1088 543 l 1
 1132 543 1172.5 540.333333333 1209.5 535 c 128
 1246.5 529.666666667 1280 522 1310 512 c 0
 1367.33333333 492.666666667 1407 459 1429 411 c 0
 1441.66666667 385 1448 352 1448 312 c 0
 1448 282.666666667 1444.66666667 251.666666667 1438 219 c 0
916 543 m 1
 977 828 l 1
 770 828 l 1
 709 543 l 1
 916 543 l 1
847 217 m 2
 896 449 l 1
 646 449 l 2
 615.333333333 449 582 435.333333333 546 408 c 128
 510 380.666666667 485.666666667 337 473 277 c 0
 469 257 467 239 467 223 c 0
 467 137 524.333333333 94 639 94 c 0
 675 94 717.166666667 106.833333333 765.5 132.5 c 128
 813.833333333 158.166666667 841 186.333333333 847 217 c 2
EndSplineSet
EndChar

StartChar: u0B95_u0BC2
Encoding: 57 -1 57
Width: 1785
VWidth: 1462
Flags: HW
AnchorPoint: "V" 748 940.714 basechar 0
AnchorPoint: "N" 748 0 basechar 0
LayerCount: 2
Fore
SplineSet
307.142578125 445.713867188 m 0
 269.286132812 445.713867188 173.571289062 410 145 274.286132812 c 0
 122.142578125 165.713867188 154.286132812 93.5712890625 297.142578125 93.5712890625 c 0
 377.857421875 93.5712890625 477.857421875 162.857421875 490 213.571289062 c 0
 539.286132812 445.713867188 l 0
 307.142578125 445.713867188 l 0
562.142578125 552.857421875 m 0
 622.142578125 833.571289062 l 0
 435.713867188 833.571289062 l 0
 376.428710938 552.857421875 l 0
 562.142578125 552.857421875 l 0
834.286132812 88.5712890625 m 0
 869.286132812 88.5712890625 928.571289062 116.428710938 960 263.571289062 c 0
 977.142578125 345 938.571289062 405 907.142578125 422.142578125 c 0
 861.428710938 388.571289062 812.857421875 358.571289062 784.286132812 225 c 0
 758.571289062 105 809.286132812 88.5712890625 834.286132812 88.5712890625 c 0
932.142578125 552.857421875 m 0
 977.142578125 576.428710938 1060 612.142578125 1155 612.142578125 c 0
 1477.85742188 612.142578125 1464.28613281 388.571289062 1447.85742188 310 c 0
 1427.14257812 212.142578125 1358.57128906 138.571289062 1292.85742188 88.5712890625 c 0
 1564.28613281 88.5712890625 l 0
 1541.42871094 -18.5712890625 l 0
 1007.14257812 -18.5712890625 l 0
 1028.57128906 81.4287109375 l 0
 1038.57128906 86.4287109375 l 0
 1221.42871094 182.857421875 1260.71386719 258.571289062 1270 301.428710938 c 0
 1296.42871094 425 1242.14257812 492.857421875 1149.28613281 492.857421875 c 0
 1107.85742188 492.857421875 1062.85742188 490.713867188 1032.14257812 480.713867188 c 0
 1066.42871094 439.286132812 1120.71386719 378.571289062 1090 235.713867188 c 0
 1063.57128906 112.142578125 955 -19.2861328125 835 -19.2861328125 c 0
 755 -19.2861328125 642.857421875 27.142578125 682.857421875 214.286132812 c 0
 708.571289062 330 757.142578125 404.286132812 790.713867188 443.571289062 c 0
 715 443.571289062 l 0
 667.142578125 217.857421875 l 0
 640.713867188 92.857421875 455 -15.7138671875 295.713867188 -15.7138671875 c 0
 111.428710938 -15.7138671875 5 84.2861328125 48.5712890625 290.713867188 c 0
 84.2861328125 459.286132812 215 535 277.142578125 547.857421875 c 0
 360 940.713867188 l 0
 1012.14257812 940.713867188 l 0
 989.286132812 833.571289062 l 0
 798.571289062 833.571289062 l 0
 738.571289062 552.857421875 l 0
 932.142578125 552.857421875 l 0
EndSplineSet
EndChar

StartChar: u0B95_u0BC2.old
Encoding: 58 -1 58
Width: 1905
Flags: HW
AnchorPoint: "V" 748 939 basechar 0
AnchorPoint: "N" 748 0 basechar 0
LayerCount: 2
Fore
SplineSet
1700 0 m 1
 1151 0 l 1
 1170 88 l 1
 1199.33333333 103.333333333 1226.5 118.833333333 1251.5 134.5 c 128
 1276.5 150.166666667 1300 167 1322 185 c 0
 1364.66666667 218.333333333 1391 258.333333333 1401 305 c 0
 1401.66666667 310.333333333 1402.5 315.5 1403.5 320.5 c 128
 1404.5 325.5 1405 331 1405 337 c 0
 1405 364.333333333 1395.66666667 388.333333333 1377 409 c 0
 1353 437 1318.66666667 451 1274 451 c 0
 1224.66666667 451 1182.5 443.833333333 1147.5 429.5 c 128
 1112.5 415.166666667 1090.33333333 396.333333333 1081 373 c 1
 1002 0 l 1
 828 0 l 1
 923 449 l 1
 749 449 l 1
 701 223 l 2
 693 184.333333333 668.666666667 148 628 114 c 128
 587.333333333 80 539.333333333 52.6666666667 484 32 c 0
 456 21.3333333333 428.833333333 13.3333333333 402.5 8 c 128
 376.166666667 2.66666666667 349.333333333 0 322 0 c 0
 258 0 204.5 10.1666666667 161.5 30.5 c 128
 118.5 50.8333333333 87.3333333333 83.6666666667 68 129 c 0
 58 154.333333333 53 183.333333333 53 216 c 0
 53 239.333333333 56 265 62 293 c 0
 78 365.666666667 111 423.333333333 161 466 c 128
 211 508.666666667 256.666666667 533 298 539 c 1
 379 922 l 1
 1050 922 l 1
 1030 828 l 1
 830 828 l 1
 769 543 l 1
 1002 543 l 2
 1016.66666667 543 1031.16666667 539 1045.5 531 c 128
 1059.83333333 523 1070.66666667 510.666666667 1078 494 c 1
 1130.66666667 537.333333333 1220.66666667 559 1348 559 c 0
 1428 559 1493.66666667 538.333333333 1545 497 c 0
 1583.66666667 465 1603 423.333333333 1603 372 c 0
 1603 354.666666667 1601 336 1597 316 c 0
 1588.33333333 272.666666667 1568.16666667 232 1536.5 194 c 128
 1504.83333333 156 1467.66666667 122.666666667 1425 94 c 1
 1720 94 l 1
 1700 0 l 1
597 543 m 1
 658 828 l 1
 451 828 l 1
 390 543 l 1
 597 543 l 1
528 217 m 2
 577 449 l 1
 327 449 l 2
 296.333333333 449 263.166666667 435.333333333 227.5 408 c 128
 191.833333333 380.666666667 167 337 153 277 c 0
 149 257 147 239 147 223 c 0
 147 137 204.333333333 94 319 94 c 0
 356.333333333 94 398.833333333 106.833333333 446.5 132.5 c 128
 494.166666667 158.166666667 521.333333333 186.333333333 528 217 c 2
EndSplineSet
EndChar

StartChar: u0B95_u0BCD
Encoding: 59 -1 59
Width: 1266
Flags: HW
AnchorPoint: "N" 748 0 basechar 0
LayerCount: 2
Fore
SplineSet
877 1204 m 0
 870.333333333 1170.66666667 851.166666667 1140.83333333 819.5 1114.5 c 128
 787.833333333 1088.16666667 754.666666667 1075 720 1075 c 256
 685.333333333 1075 658 1088 638 1114 c 0
 623.333333333 1131.33333333 616 1152.66666667 616 1178 c 0
 616 1186 617 1194.66666667 619 1204 c 0
 625.666666667 1238.66666667 644.666666667 1268.83333333 676 1294.5 c 128
 707.333333333 1320.16666667 740.333333333 1333 775 1333 c 0
 811 1333 838.333333333 1320.33333333 857 1295 c 0
 872.333333333 1276.33333333 880 1255 880 1231 c 0
 880 1222.33333333 879 1213.33333333 877 1204 c 0
1115 254 m 0
 1098.33333333 173.333333333 1062.16666667 110.833333333 1006.5 66.5 c 128
 950.833333333 22.1666666667 883.666666667 0 805 0 c 0
 689.666666667 0 623.666666667 32.3333333333 607 97 c 1
 571.666666667 70.3333333333 528.666666667 47.5 478 28.5 c 128
 427.333333333 9.5 375.333333333 0 322 0 c 0
 258 0 204.5 10.1666666667 161.5 30.5 c 128
 118.5 50.8333333333 87.3333333333 83.6666666667 68 129 c 0
 58 154.333333333 53 183.333333333 53 216 c 0
 53 239.333333333 56 265 62 293 c 0
 78 365.666666667 111 423.333333333 161 466 c 128
 211 508.666666667 256.666666667 533 298 539 c 1
 379 922 l 1
 1050 922 l 1
 1030 828 l 1
 830 828 l 1
 769 543 l 1
 849.666666667 543 918.166666667 536.333333333 974.5 523 c 128
 1030.83333333 509.666666667 1072.66666667 482 1100 440 c 0
 1116.66666667 414.666666667 1125 381.666666667 1125 341 c 0
 1125 313.666666667 1121.66666667 284.666666667 1115 254 c 0
597 543 m 1
 658 828 l 1
 451 828 l 1
 390 543 l 1
 597 543 l 1
950 250 m 0
 956 277.333333333 959 301.666666667 959 323 c 0
 959 347 955 366.666666667 947 382 c 0
 933 410.666666667 910.333333333 429 879 437 c 128
 847.666666667 445 804.333333333 449 749 449 c 1
 701 223 l 2
 699 214.333333333 697.666666667 204.333333333 697 193 c 128
 696.333333333 181.666666667 696 175.666666667 696 175 c 0
 696 155 700 138.333333333 708 125 c 0
 721.333333333 104.333333333 748.666666667 94 790 94 c 0
 824.666666667 94 857.5 107.5 888.5 134.5 c 128
 919.5 161.5 940 200 950 250 c 0
528 217 m 2
 577 449 l 1
 327 449 l 2
 296.333333333 449 263.166666667 435.333333333 227.5 408 c 128
 191.833333333 380.666666667 167 337 153 277 c 0
 149 257 147 239 147 223 c 0
 147 137 204.333333333 94 319 94 c 0
 356.333333333 94 398.833333333 106.833333333 446.5 132.5 c 128
 494.166666667 158.166666667 521.333333333 186.333333333 528 217 c 2
EndSplineSet
EndChar

StartChar: u0B99
Encoding: 60 2969 60
Width: 1426
Flags: HW
AnchorPoint: "V" 881 939 basechar 0
AnchorPoint: "N" 881 0 basechar 0
LayerCount: 2
Fore
SplineSet
1221 0 m 1
 299 0 l 1
 317 84 l 1
 557 84 l 1
 609.666666667 104 653.666666667 137.333333333 689 184 c 128
 724.333333333 230.666666667 748.333333333 284 761 344 c 0
 764.333333333 362 766 377.333333333 766 390 c 0
 766 416.666666667 759.333333333 439.333333333 746 458 c 0
 726.666666667 486 700.333333333 500 667 500 c 0
 621 500 586.666666667 476.666666667 564 430 c 1
 528 260 l 1
 354 260 l 1
 475 828 l 1
 270 828 l 1
 94 0 l 1
 0 0 l 1
 196 922 l 1
 868 922 l 1
 848 828 l 1
 649 828 l 1
 595 576 l 1
 635.666666667 603.333333333 679.666666667 617 727 617 c 0
 769.666666667 617 808 606 842 584 c 0
 877.333333333 563.333333333 903 531.333333333 919 488 c 0
 927.666666667 466 932 440.333333333 932 411 c 0
 932 388.333333333 929 363.333333333 923 336 c 0
 897.666666667 216.666666667 843.333333333 132.666666667 760 84 c 1
 1075 84 l 1
 1253 922 l 1
 1417 922 l 1
 1221 0 l 1
EndSplineSet
EndChar

StartChar: u0B99_u0BBF
Encoding: 61 -1 61
Width: 1616
Flags: HW
AnchorPoint: "V" 881 939 basechar 0
AnchorPoint: "N" 881 0 basechar 0
LayerCount: 2
Fore
SplineSet
1411 0 m 1
 1327 0 l 1
 1544 1020 l 2
 1551.33333333 1053.33333333 1555 1086 1555 1118 c 0
 1555 1139.33333333 1553.33333333 1157.5 1550 1172.5 c 128
 1546.66666667 1187.5 1540.66666667 1201.66666667 1532 1215 c 0
 1504.66666667 1257 1450 1278 1368 1278 c 0
 1308 1278 1253.5 1259.66666667 1204.5 1223 c 128
 1155.5 1186.33333333 1124 1134.33333333 1110 1067 c 0
 1105.33333333 1046.33333333 1103 1026.66666667 1103 1008 c 0
 1103 979.333333333 1109 956 1121 938 c 0
 1142.33333333 906.666666667 1174.33333333 891 1217 891 c 1
 1224 922 l 1
 1386 922 l 1
 1190 0 l 1
 299 0 l 1
 317 84 l 1
 557 84 l 1
 609.666666667 104 653.666666667 137.333333333 689 184 c 128
 724.333333333 230.666666667 748.333333333 284 761 344 c 0
 764.333333333 362 766 377.333333333 766 390 c 0
 766 416.666666667 759.333333333 439.333333333 746 458 c 0
 726.666666667 486 700.333333333 500 667 500 c 0
 621 500 586.666666667 476.666666667 564 430 c 1
 528 260 l 1
 354 260 l 1
 475 828 l 1
 270 828 l 1
 94 0 l 1
 0 0 l 1
 196 922 l 1
 868 922 l 1
 848 828 l 1
 649 828 l 1
 595 576 l 1
 635.666666667 603.333333333 679.666666667 617 727 617 c 0
 769.666666667 617 808 606 842 584 c 0
 877.333333333 563.333333333 903 531.333333333 919 488 c 0
 927.666666667 466 932 440.333333333 932 411 c 0
 932 388.333333333 929 363.333333333 923 336 c 0
 897.666666667 216.666666667 843.333333333 132.666666667 760 84 c 1
 1046 84 l 1
 1197 797 l 1
 1162.33333333 797 1131.33333333 803.833333333 1104 817.5 c 128
 1076.66666667 831.166666667 1053.33333333 851 1034 877 c 0
 1011.33333333 908.333333333 1000 950 1000 1002 c 0
 1000 1028.66666667 1003.66666667 1059.33333333 1011 1094 c 0
 1033.66666667 1204.66666667 1079.66666667 1290 1149 1350 c 128
 1218.33333333 1410 1303.33333333 1440 1404 1440 c 0
 1513.33333333 1440 1586 1406.33333333 1622 1339 c 0
 1641.33333333 1300.33333333 1651 1252.33333333 1651 1195 c 0
 1651 1151 1645 1100.33333333 1633 1043 c 2
 1411 0 l 1
EndSplineSet
EndChar

StartChar: u0B99_u0BC0
Encoding: 62 -1 62
Width: 1610
Flags: HW
AnchorPoint: "V" 881 939 basechar 0
AnchorPoint: "N" 881 0 basechar 0
LayerCount: 2
Fore
SplineSet
1883 1188 m 0
 1869 1123.33333333 1835.33333333 1069.33333333 1782 1026 c 128
 1728.66666667 982.666666667 1665.66666667 961 1593 961 c 0
 1525 961 1475 981 1443 1021 c 0
 1421.66666667 1049 1411 1082 1411 1120 c 0
 1411 1132.66666667 1412.66666667 1148 1416 1166 c 0
 1431.33333333 1235.33333333 1464.33333333 1289.66666667 1515 1329 c 1
 1473 1331 l 2
 1427 1331 1383.66666667 1318.66666667 1343 1294 c 128
 1302.33333333 1269.33333333 1267.16666667 1236.66666667 1237.5 1196 c 128
 1207.83333333 1155.33333333 1188.33333333 1113.66666667 1179 1071 c 0
 1172.33333333 1039 1169 1012.66666667 1169 992 c 0
 1169 978 1169.66666667 967 1171 959 c 128
 1172.33333333 951 1175 940.666666667 1179 928 c 0
 1191 891.333333333 1211.66666667 870.333333333 1241 865 c 1
 1253 922 l 1
 1427 922 l 1
 1231 0 l 1
 299 0 l 1
 317 84 l 1
 557 84 l 1
 609.666666667 104 653.666666667 137.333333333 689 184 c 128
 724.333333333 230.666666667 748.333333333 284 761 344 c 0
 764.333333333 362 766 377.333333333 766 390 c 0
 766 416.666666667 759.333333333 439.333333333 746 458 c 0
 726.666666667 486 700.333333333 500 667 500 c 0
 621 500 586.666666667 476.666666667 564 430 c 1
 528 260 l 1
 354 260 l 1
 475 828 l 1
 270 828 l 1
 94 0 l 1
 0 0 l 1
 196 922 l 1
 868 922 l 1
 848 828 l 1
 649 828 l 1
 595 576 l 1
 635.666666667 603.333333333 679.666666667 617 727 617 c 0
 769.666666667 617 808 606 842 584 c 0
 877.333333333 563.333333333 903 531.333333333 919 488 c 0
 927.666666667 466 932 440.333333333 932 411 c 0
 932 388.333333333 929 363.333333333 923 336 c 0
 897.666666667 216.666666667 843.333333333 132.666666667 760 84 c 1
 1075 84 l 1
 1225 791 l 1
 1193.66666667 791 1164 803.666666667 1136 829 c 128
 1108 854.333333333 1088.66666667 889.333333333 1078 934 c 0
 1073.33333333 952.666666667 1071 974.333333333 1071 999 c 0
 1071 1015.66666667 1071.66666667 1031 1073 1045 c 128
 1074.33333333 1059 1077 1076 1081 1096 c 0
 1099.66666667 1183.33333333 1135.66666667 1255.5 1189 1312.5 c 128
 1242.33333333 1369.5 1302.33333333 1410.5 1369 1435.5 c 128
 1435.66666667 1460.5 1498.66666667 1473 1558 1473 c 0
 1661.33333333 1473 1746.33333333 1451.66666667 1813 1409 c 0
 1865 1375.66666667 1891 1325.33333333 1891 1258 c 0
 1891 1238 1888.33333333 1214.66666667 1883 1188 c 0
1737 1166 m 0
 1739 1176 1740 1185.33333333 1740 1194 c 0
 1740 1216 1733.33333333 1236.33333333 1720 1255 c 0
 1700.66666667 1280.33333333 1673 1293 1637 1293 c 1
 1604.33333333 1287 1576 1272.16666667 1552 1248.5 c 128
 1528 1224.83333333 1512.33333333 1196.66666667 1505 1164 c 0
 1503 1154.66666667 1502 1145.66666667 1502 1137 c 0
 1502 1117.66666667 1507.66666667 1099.33333333 1519 1082 c 0
 1535 1058.66666667 1559 1047 1591 1047 c 0
 1624.33333333 1047 1655.33333333 1058.66666667 1684 1082 c 128
 1712.66666667 1105.33333333 1730.33333333 1133.33333333 1737 1166 c 0
EndSplineSet
EndChar

StartChar: u0B99_u0BC1
Encoding: 63 -1 63
Width: 1426
Flags: HW
AnchorPoint: "V" 881 939 basechar 0
AnchorPoint: "N" 881 0 basechar 0
LayerCount: 2
Fore
SplineSet
1164 -269 m 1
 1000 -269 l 1
 1057 0 l 1
 299 0 l 1
 317 84 l 1
 557 84 l 1
 609.666666667 104 653.666666667 137.333333333 689 184 c 128
 724.333333333 230.666666667 748.333333333 284 761 344 c 0
 764.333333333 362 766 377.333333333 766 390 c 0
 766 416.666666667 759.333333333 439.333333333 746 458 c 0
 726.666666667 486 700.333333333 500 667 500 c 0
 621 500 586.666666667 476.666666667 564 430 c 1
 528 260 l 1
 354 260 l 1
 475 828 l 1
 270 828 l 1
 94 0 l 1
 0 0 l 1
 196 922 l 1
 868 922 l 1
 848 828 l 1
 649 828 l 1
 595 576 l 1
 635.666666667 603.333333333 679.666666667 617 727 617 c 0
 769.666666667 617 808 606 842 584 c 0
 877.333333333 563.333333333 903 531.333333333 919 488 c 0
 927.666666667 466 932 440.333333333 932 411 c 0
 932 388.333333333 929 363.333333333 923 336 c 0
 897.666666667 216.666666667 843.333333333 132.666666667 760 84 c 1
 1075 84 l 1
 1253 922 l 1
 1417 922 l 1
 1164 -269 l 1
EndSplineSet
EndChar

StartChar: u0B99_u0BC2
Encoding: 64 -1 64
Width: 1874
Flags: HW
AnchorPoint: "V" 881 939 basechar 0
AnchorPoint: "N" 881 0 basechar 0
LayerCount: 2
Fore
SplineSet
1716 219 m 0
 1691.33333333 107 1653 8.33333333333 1601 -77 c 128
 1549 -162.333333333 1479.66666667 -236.666666667 1393 -300 c 128
 1306.33333333 -363.333333333 1201.66666667 -412.166666667 1079 -446.5 c 128
 956.333333333 -480.833333333 818.666666667 -498 666 -498 c 0
 538.666666667 -498 443.333333333 -476 380 -432 c 0
 331.333333333 -396.666666667 307 -351 307 -295 c 0
 307 -287.666666667 307.333333333 -280 308 -272 c 128
 308.666666667 -264 310 -256 312 -248 c 0
 327.333333333 -180 357.666666667 -127.833333333 403 -91.5 c 128
 448.333333333 -55.1666666667 506 -37 576 -37 c 0
 645.333333333 -37 696 -56.6666666667 728 -96 c 0
 750 -124 761 -157.666666667 761 -197 c 0
 761 -212.333333333 759 -228.666666667 755 -246 c 0
 742.333333333 -307.333333333 704.666666667 -359.333333333 642 -402 c 1
 655.333333333 -406 671 -408 689 -408 c 0
 858.333333333 -408 1003.33333333 -378.5 1124 -319.5 c 128
 1244.66666667 -260.5 1339 -183.333333333 1407 -88 c 128
 1475 7.33333333333 1520.33333333 108.333333333 1543 215 c 0
 1547.66666667 237.666666667 1550 261.666666667 1550 287 c 2
 1550 305 l 2
 1549.33333333 309.666666667 1549 313.333333333 1549 316 c 0
 1549 332.666666667 1546.16666667 348.5 1540.5 363.5 c 128
 1534.83333333 378.5 1526.66666667 392.666666667 1516 406 c 0
 1495.33333333 430.666666667 1464.33333333 443 1423 443 c 0
 1370.33333333 443 1330.66666667 425.666666667 1304 391 c 1
 1174 -219 l 1
 1010 -219 l 1
 1057 0 l 1
 299 0 l 1
 317 84 l 1
 557 84 l 1
 609.666666667 104 653.666666667 137.333333333 689 184 c 128
 724.333333333 230.666666667 748.333333333 284 761 344 c 0
 764.333333333 362 766 377.333333333 766 390 c 0
 766 416.666666667 759.333333333 439.333333333 746 458 c 0
 726.666666667 486 700.333333333 500 667 500 c 0
 621 500 586.666666667 476.666666667 564 430 c 1
 528 260 l 1
 354 260 l 1
 475 828 l 1
 270 828 l 1
 94 0 l 1
 0 0 l 1
 196 922 l 1
 868 922 l 1
 848 828 l 1
 649 828 l 1
 595 576 l 1
 635.666666667 603.333333333 679.666666667 617 727 617 c 0
 769.666666667 617 808 606 842 584 c 0
 877.333333333 563.333333333 903 531.333333333 919 488 c 0
 927.666666667 466 932 440.333333333 932 411 c 0
 932 388.333333333 929 363.333333333 923 336 c 0
 897.666666667 216.666666667 843.333333333 132.666666667 760 84 c 1
 1075 84 l 1
 1253 922 l 1
 1417 922 l 1
 1330 512 l 1
 1373.33333333 546 1423.33333333 563 1480 563 c 0
 1547.33333333 563 1600.66666667 546 1640 512 c 128
 1679.33333333 478 1704.66666667 434.333333333 1716 381 c 0
 1722 355 1725 329 1725 303 c 0
 1725 276.333333333 1722 248.333333333 1716 219 c 0
635 -242 m 0
 637 -230.666666667 638 -220.333333333 638 -211 c 0
 638 -190.333333333 632.666666667 -172.333333333 622 -157 c 0
 604.666666667 -134.333333333 580.666666667 -123 550 -123 c 0
 516.666666667 -123 485.5 -135.166666667 456.5 -159.5 c 128
 427.5 -183.833333333 409.666666667 -212 403 -244 c 0
 401 -255.333333333 400 -265.666666667 400 -275 c 0
 400 -297.666666667 406.333333333 -317.333333333 419 -334 c 0
 438.333333333 -358.666666667 465.666666667 -371 501 -371 c 1
 534.333333333 -365 563.333333333 -349.833333333 588 -325.5 c 128
 612.666666667 -301.166666667 628.333333333 -273.333333333 635 -242 c 0
EndSplineSet
EndChar

StartChar: u0B99_u0BCD
Encoding: 65 -1 65
Width: 1426
Flags: HW
AnchorPoint: "N" 881 0 basechar 0
LayerCount: 2
Fore
SplineSet
1010 1204 m 0
 1003.33333333 1170.66666667 984.166666667 1140.83333333 952.5 1114.5 c 128
 920.833333333 1088.16666667 887.666666667 1075 853 1075 c 256
 818.333333333 1075 791 1088 771 1114 c 0
 756.333333333 1131.33333333 749 1152.66666667 749 1178 c 0
 749 1186 750 1194.66666667 752 1204 c 0
 758.666666667 1238.66666667 777.666666667 1268.83333333 809 1294.5 c 128
 840.333333333 1320.16666667 873.333333333 1333 908 1333 c 0
 944 1333 971.333333333 1320.33333333 990 1295 c 0
 1005.33333333 1276.33333333 1013 1255 1013 1231 c 0
 1013 1222.33333333 1012 1213.33333333 1010 1204 c 0
1221 0 m 1
 299 0 l 1
 317 84 l 1
 557 84 l 1
 609.666666667 104 653.666666667 137.333333333 689 184 c 128
 724.333333333 230.666666667 748.333333333 284 761 344 c 0
 764.333333333 362 766 377.333333333 766 390 c 0
 766 416.666666667 759.333333333 439.333333333 746 458 c 0
 726.666666667 486 700.333333333 500 667 500 c 0
 621 500 586.666666667 476.666666667 564 430 c 1
 528 260 l 1
 354 260 l 1
 475 828 l 1
 270 828 l 1
 94 0 l 1
 0 0 l 1
 196 922 l 1
 868 922 l 1
 848 828 l 1
 649 828 l 1
 595 576 l 1
 635.666666667 603.333333333 679.666666667 617 727 617 c 0
 769.666666667 617 808 606 842 584 c 0
 877.333333333 563.333333333 903 531.333333333 919 488 c 0
 927.666666667 466 932 440.333333333 932 411 c 0
 932 388.333333333 929 363.333333333 923 336 c 0
 897.666666667 216.666666667 843.333333333 132.666666667 760 84 c 1
 1075 84 l 1
 1253 922 l 1
 1417 922 l 1
 1221 0 l 1
EndSplineSet
EndChar

StartChar: u0B99_u0BCD.alt
Encoding: 66 -1 66
Width: 1419
Flags: HW
AnchorPoint: "N" 881 0 basechar 0
LayerCount: 2
Fore
SplineSet
1089 1193 m 0
 1077 1134.33333333 1045.83333333 1084 995.5 1042 c 128
 945.166666667 1000 890.666666667 979 832 979 c 0
 782 979 740.666666667 995.333333333 708 1028 c 128
 675.333333333 1060.66666667 659 1101.33333333 659 1150 c 0
 659 1159.33333333 660.333333333 1173.33333333 663 1192 c 0
 675 1250.66666667 706.5 1300.66666667 757.5 1342 c 128
 808.5 1383.33333333 863.333333333 1404 922 1404 c 0
 972 1404 1013 1388 1045 1356 c 128
 1077 1324 1093 1283.66666667 1093 1235 c 0
 1093 1216.33333333 1091.66666667 1202.33333333 1089 1193 c 0
1219 -7 m 1
 288 -7 l 1
 308 89 l 1
 551 89 l 1
 603.666666667 107.666666667 646.333333333 139.833333333 679 185.5 c 128
 711.666666667 231.166666667 734.666666667 283.333333333 748 342 c 0
 750.666666667 360.666666667 752 374 752 382 c 0
 752 416 743.166666667 442.5 725.5 461.5 c 128
 707.833333333 480.5 685.666666667 490 659 490 c 0
 617 490 586 468.333333333 566 425 c 1
 530 249 l 1
 344 249 l 1
 464 814 l 1
 274 814 l 1
 98 -9 l 1
 -8 -9 l 1
 190 922 l 1
 871 922 l 1
 849 814 l 1
 651 814 l 1
 602 583 l 1
 640 605.666666667 680.666666667 617 724 617 c 0
 781.333333333 617 829 599.333333333 867 564 c 0
 910.333333333 523.333333333 932 469.666666667 932 403 c 0
 932 392.333333333 931 380.333333333 929 367 c 128
 927 353.666666667 925.333333333 343 924 335 c 0
 912 276.333333333 893.166666667 227 867.5 187 c 128
 841.833333333 147 811.333333333 115 776 91 c 1
 1062 91 l 1
 1240 926 l 1
 1418 926 l 1
 1219 -7 l 1
1001 1200 m 0
 1002.33333333 1205.33333333 1003 1212.66666667 1003 1222 c 0
 1003 1248.66666667 993.5 1271.5 974.5 1290.5 c 128
 955.5 1309.5 931.666666667 1319 903 1319 c 0
 869 1319 837.666666667 1307.5 809 1284.5 c 128
 780.333333333 1261.5 762.666666667 1233 756 1199 c 0
 754.666666667 1193.66666667 754 1185.66666667 754 1175 c 0
 754 1148.33333333 762.833333333 1125.5 780.5 1106.5 c 128
 798.166666667 1087.5 822 1078 852 1078 c 0
 884.666666667 1078 916 1090.16666667 946 1114.5 c 128
 976 1138.83333333 994.333333333 1167.33333333 1001 1200 c 0
EndSplineSet
EndChar

StartChar: u0B95_u0BB7
Encoding: 67 -1 67
Width: 3011
Flags: HW
AnchorPoint: "V" 748 939 basechar 0
AnchorPoint: "N" 748 0 basechar 0
LayerCount: 2
Fore
SplineSet
2853 219 m 0
 2839 155 2809.83333333 102.5 2765.5 61.5 c 128
 2721.16666667 20.5 2659.66666667 0 2581 0 c 2
 2468 0 l 1
 2377 -428 l 1
 2213 -428 l 1
 2304 0 l 1
 1436 0 l 1
 1589.33333333 126.666666667 1682.66666667 267.333333333 1716 422 c 0
 1724.66666667 461.333333333 1729 500 1729 538 c 0
 1729 552 1728 567.166666667 1726 583.5 c 128
 1724 599.833333333 1721.33333333 615 1718 629 c 0
 1704.66666667 689.666666667 1675.33333333 738 1630 774 c 128
 1584.66666667 810 1528 828 1460 828 c 0
 1384.66666667 828 1317.33333333 813.333333333 1258 784 c 128
 1198.66666667 754.666666667 1151 718.166666667 1115 674.5 c 128
 1079 630.833333333 1053.66666667 587 1039 543 c 1
 1233 543 l 2
 1380.33333333 543 1454 489.666666667 1454 383 c 0
 1454 362.333333333 1451.66666667 341.333333333 1447 320 c 0
 1427 226.666666667 1389 150 1333 90 c 128
 1277 30 1213 0 1141 0 c 0
 982.333333333 0 903 89.3333333333 903 268 c 0
 903 298.666666667 904.333333333 327 907 353 c 128
 909.666666667 379 915 411 923 449 c 1
 749 449 l 1
 701 223 l 2
 693 184.333333333 668.666666667 148 628 114 c 128
 587.333333333 80 539.333333333 52.6666666667 484 32 c 0
 456 21.3333333333 428.833333333 13.3333333333 402.5 8 c 128
 376.166666667 2.66666666667 349.333333333 0 322 0 c 0
 258 0 204.5 10.1666666667 161.5 30.5 c 128
 118.5 50.8333333333 87.3333333333 83.6666666667 68 129 c 0
 58 154.333333333 53 183.333333333 53 216 c 0
 53 239.333333333 56 265 62 293 c 0
 78 365.666666667 111 423.333333333 161 466 c 128
 211 508.666666667 256.666666667 533 298 539 c 1
 379 922 l 1
 1050 922 l 1
 1030 828 l 1
 830 828 l 1
 769 543 l 1
 951 543 l 1
 998.333333333 662.333333333 1067.5 755.333333333 1158.5 822 c 128
 1249.5 888.666666667 1357.33333333 922 1482 922 c 0
 1597.33333333 922 1688.16666667 899.666666667 1754.5 855 c 128
 1820.83333333 810.333333333 1863.33333333 751 1882 677 c 0
 1887.33333333 658.333333333 1891 640 1893 622 c 128
 1895 604 1896 583 1896 559 c 0
 1896 517.666666667 1891 474 1881 428 c 0
 1855 304.666666667 1794.66666667 193.333333333 1700 94 c 1
 2324 94 l 1
 2386 385 l 1
 2188 426.333333333 2089 504.666666667 2089 620 c 0
 2089 627.333333333 2089.33333333 635 2090 643 c 128
 2090.66666667 651 2092 659.333333333 2094 668 c 0
 2111.33333333 748 2146.16666667 810.333333333 2198.5 855 c 128
 2250.83333333 899.666666667 2319.33333333 922 2404 922 c 0
 2487.33333333 922 2548 905 2586 871 c 0
 2614.66666667 845 2629 813.333333333 2629 776 c 0
 2629 765 2629 765 2629 755 c 0
 2627 747.666666667 2625.66666667 742.666666667 2625 740 c 2
 2565 457 l 1
 2659 440.333333333 2733.66666667 412.333333333 2789 373 c 0
 2834.33333333 341.666666667 2857 302.333333333 2857 255 c 0
 2857 248 2857 248 2857 242 c 0
 2855 232 2853.66666667 224.333333333 2853 219 c 0
2407 484 m 1
 2456 715 l 2
 2458 723 2459 730.666666667 2459 738 c 0
 2459 759.333333333 2451 777.666666667 2435 793 c 0
 2414.33333333 811.666666667 2382 821 2338 821 c 0
 2297.33333333 821 2263 807.5 2235 780.5 c 128
 2207 753.5 2188 716.666666667 2178 670 c 0
 2176 662 2175 653.666666667 2175 645 c 0
 2175 570.333333333 2252.33333333 516.666666667 2407 484 c 1
2748 228 m 0
 2749.33333333 236 2750 241.666666667 2750 245 c 0
 2750 270.333333333 2734.66666667 291.333333333 2704 308 c 0
 2668 328 2614.66666667 345 2544 359 c 1
 2488 94 l 1
 2603 94 l 2
 2681.66666667 94 2730 138.666666667 2748 228 c 0
1271 316 m 0
 1274.33333333 331.333333333 1276 344.333333333 1276 355 c 0
 1276 417.666666667 1234 449 1150 449 c 2
 1015 449 l 1
 1002.33333333 379.666666667 996 325 996 285 c 0
 996 274 996 274 996 263 c 0
 997.333333333 257.666666667 998 254 998 252 c 0
 1002.66666667 219.333333333 1014.66666667 193 1034 173 c 0
 1054.66666667 153.666666667 1080.33333333 144 1111 144 c 0
 1152.33333333 144 1186.83333333 160.833333333 1214.5 194.5 c 128
 1242.16666667 228.166666667 1261 268.666666667 1271 316 c 0
597 543 m 1
 658 828 l 1
 451 828 l 1
 390 543 l 1
 597 543 l 1
528 217 m 2
 577 449 l 1
 327 449 l 2
 296.333333333 449 263.166666667 435.333333333 227.5 408 c 128
 191.833333333 380.666666667 167 337 153 277 c 0
 149 257 147 239 147 223 c 0
 147 137 204.333333333 94 319 94 c 0
 356.333333333 94 398.833333333 106.833333333 446.5 132.5 c 128
 494.166666667 158.166666667 521.333333333 186.333333333 528 217 c 2
EndSplineSet
EndChar

StartChar: u0B95_u0BB7_u0BBF
Encoding: 68 -1 68
Width: 3232
Flags: HW
AnchorPoint: "V" 748 939 basechar 0
AnchorPoint: "N" 748 0 basechar 0
LayerCount: 2
Fore
SplineSet
3027 0 m 1
 2943 0 l 1
 3166 1049 l 2
 3171.33333333 1075.66666667 3174 1098.66666667 3174 1118 c 0
 3174 1248 3076 1313 2880 1313 c 0
 2663.33333333 1313 2535.66666667 1221.66666667 2497 1039 c 0
 2495 1031.66666667 2493.66666667 1024 2493 1016 c 128
 2492.33333333 1008 2492 999.333333333 2492 990 c 0
 2492 958.666666667 2499.33333333 931.333333333 2514 908 c 1
 2559.33333333 896 2591 874.666666667 2609 844 c 0
 2622.33333333 822.666666667 2629 799.333333333 2629 774 c 0
 2629 764 2629 764 2629 754 c 0
 2627 747.333333333 2625.66666667 742.666666667 2625 740 c 2
 2565 457 l 1
 2659 440.333333333 2733.66666667 412.333333333 2789 373 c 0
 2834.33333333 341.666666667 2857 302.333333333 2857 255 c 0
 2857 248 2857 248 2857 242 c 0
 2855 232 2853.66666667 224.333333333 2853 219 c 0
 2839 155 2809.83333333 102.5 2765.5 61.5 c 128
 2721.16666667 20.5 2659.66666667 0 2581 0 c 2
 2468 0 l 1
 2377 -428 l 1
 2213 -428 l 1
 2304 0 l 1
 1436 0 l 1
 1589.33333333 126.666666667 1682.66666667 267.333333333 1716 422 c 0
 1724.66666667 461.333333333 1729 500 1729 538 c 0
 1729 552 1728 567.166666667 1726 583.5 c 128
 1724 599.833333333 1721.33333333 615 1718 629 c 0
 1704.66666667 689.666666667 1675.33333333 738 1630 774 c 128
 1584.66666667 810 1528 828 1460 828 c 0
 1384.66666667 828 1317.33333333 813.333333333 1258 784 c 128
 1198.66666667 754.666666667 1151 718.166666667 1115 674.5 c 128
 1079 630.833333333 1053.66666667 587 1039 543 c 1
 1233 543 l 2
 1380.33333333 543 1454 489.666666667 1454 383 c 0
 1454 362.333333333 1451.66666667 341.333333333 1447 320 c 0
 1427 226.666666667 1389 150 1333 90 c 128
 1277 30 1213 0 1141 0 c 0
 982.333333333 0 903 89.3333333333 903 268 c 0
 903 298.666666667 904.333333333 327 907 353 c 128
 909.666666667 379 915 411 923 449 c 1
 749 449 l 1
 701 223 l 2
 693 184.333333333 668.666666667 148 628 114 c 128
 587.333333333 80 539.333333333 52.6666666667 484 32 c 0
 456 21.3333333333 428.833333333 13.3333333333 402.5 8 c 128
 376.166666667 2.66666666667 349.333333333 0 322 0 c 0
 258 0 204.5 10.1666666667 161.5 30.5 c 128
 118.5 50.8333333333 87.3333333333 83.6666666667 68 129 c 0
 58 154.333333333 53 183.333333333 53 216 c 0
 53 239.333333333 56 265 62 293 c 0
 78 365.666666667 111 423.333333333 161 466 c 128
 211 508.666666667 256.666666667 533 298 539 c 1
 379 922 l 1
 1050 922 l 1
 1030 828 l 1
 830 828 l 1
 769 543 l 1
 951 543 l 1
 998.333333333 662.333333333 1067.5 755.333333333 1158.5 822 c 128
 1249.5 888.666666667 1357.33333333 922 1482 922 c 0
 1597.33333333 922 1688.16666667 899.666666667 1754.5 855 c 128
 1820.83333333 810.333333333 1863.33333333 751 1882 677 c 0
 1887.33333333 658.333333333 1891 640 1893 622 c 128
 1895 604 1896 583 1896 559 c 0
 1896 517.666666667 1891 474 1881 428 c 0
 1855 304.666666667 1794.66666667 193.333333333 1700 94 c 1
 2324 94 l 1
 2386 385 l 1
 2188 426.333333333 2089 504.666666667 2089 620 c 0
 2089 627.333333333 2089.33333333 635 2090 643 c 128
 2090.66666667 651 2092 659.333333333 2094 668 c 0
 2111.33333333 748 2146.16666667 810.333333333 2198.5 855 c 128
 2250.83333333 899.666666667 2319.33333333 922 2404 922 c 2
 2412 922 l 1
 2404 947.333333333 2400 976 2400 1008 c 0
 2400 1038 2404.33333333 1074.66666667 2413 1118 c 0
 2437 1234 2492.5 1322.16666667 2579.5 1382.5 c 128
 2666.5 1442.83333333 2778.66666667 1473 2916 1473 c 0
 3082.66666667 1473 3186.33333333 1432.66666667 3227 1352 c 0
 3252.33333333 1301.33333333 3265 1244 3265 1180 c 0
 3265 1140 3260 1097 3250 1051 c 2
 3027 0 l 1
2407 484 m 1
 2456 715 l 2
 2458 723 2459 730.666666667 2459 738 c 0
 2459 759.333333333 2451 777.666666667 2435 793 c 0
 2414.33333333 811.666666667 2382 821 2338 821 c 0
 2297.33333333 821 2263 807.5 2235 780.5 c 128
 2207 753.5 2188 716.666666667 2178 670 c 0
 2176 662 2175 653.666666667 2175 645 c 0
 2175 570.333333333 2252.33333333 516.666666667 2407 484 c 1
2748 228 m 0
 2749.33333333 236 2750 241.666666667 2750 245 c 0
 2750 270.333333333 2734.66666667 291.333333333 2704 308 c 0
 2668 328 2614.66666667 345 2544 359 c 1
 2488 94 l 1
 2603 94 l 2
 2681.66666667 94 2730 138.666666667 2748 228 c 0
1271 316 m 0
 1274.33333333 331.333333333 1276 344.333333333 1276 355 c 0
 1276 417.666666667 1234 449 1150 449 c 2
 1015 449 l 1
 1002.33333333 379.666666667 996 325 996 285 c 0
 996 274 996 274 996 263 c 0
 997.333333333 257.666666667 998 254 998 252 c 0
 1002.66666667 219.333333333 1014.66666667 193 1034 173 c 0
 1054.66666667 153.666666667 1080.33333333 144 1111 144 c 0
 1152.33333333 144 1186.83333333 160.833333333 1214.5 194.5 c 128
 1242.16666667 228.166666667 1261 268.666666667 1271 316 c 0
597 543 m 1
 658 828 l 1
 451 828 l 1
 390 543 l 1
 597 543 l 1
528 217 m 2
 577 449 l 1
 327 449 l 2
 296.333333333 449 263.166666667 435.333333333 227.5 408 c 128
 191.833333333 380.666666667 167 337 153 277 c 0
 149 257 147 239 147 223 c 0
 147 137 204.333333333 94 319 94 c 0
 356.333333333 94 398.833333333 106.833333333 446.5 132.5 c 128
 494.166666667 158.166666667 521.333333333 186.333333333 528 217 c 2
EndSplineSet
EndChar

StartChar: u0B95_u0BB7_u0BC0
Encoding: 69 -1 69
Width: 3011
Flags: HW
AnchorPoint: "V" 748 939 basechar 0
AnchorPoint: "N" 748 0 basechar 0
LayerCount: 2
Fore
SplineSet
2853 219 m 0
 2839 155 2809.83333333 102.5 2765.5 61.5 c 128
 2721.16666667 20.5 2659.66666667 0 2581 0 c 2
 2468 0 l 1
 2377 -428 l 1
 2213 -428 l 1
 2304 0 l 1
 1436 0 l 1
 1589.33333333 126.666666667 1682.66666667 267.333333333 1716 422 c 0
 1724.66666667 461.333333333 1729 500 1729 538 c 0
 1729 552 1728 567.166666667 1726 583.5 c 128
 1724 599.833333333 1721.33333333 615 1718 629 c 0
 1704.66666667 689.666666667 1675.33333333 738 1630 774 c 128
 1584.66666667 810 1528 828 1460 828 c 0
 1384.66666667 828 1317.33333333 813.333333333 1258 784 c 128
 1198.66666667 754.666666667 1151 718.166666667 1115 674.5 c 128
 1079 630.833333333 1053.66666667 587 1039 543 c 1
 1233 543 l 2
 1380.33333333 543 1454 489.666666667 1454 383 c 0
 1454 362.333333333 1451.66666667 341.333333333 1447 320 c 0
 1427 226.666666667 1389 150 1333 90 c 128
 1277 30 1213 0 1141 0 c 0
 982.333333333 0 903 89.3333333333 903 268 c 0
 903 298.666666667 904.333333333 327 907 353 c 128
 909.666666667 379 915 411 923 449 c 1
 749 449 l 1
 701 223 l 2
 693 184.333333333 668.666666667 148 628 114 c 128
 587.333333333 80 539.333333333 52.6666666667 484 32 c 0
 456 21.3333333333 428.833333333 13.3333333333 402.5 8 c 128
 376.166666667 2.66666666667 349.333333333 0 322 0 c 0
 258 0 204.5 10.1666666667 161.5 30.5 c 128
 118.5 50.8333333333 87.3333333333 83.6666666667 68 129 c 0
 58 154.333333333 53 183.333333333 53 216 c 0
 53 239.333333333 56 265 62 293 c 0
 78 365.666666667 111 423.333333333 161 466 c 128
 211 508.666666667 256.666666667 533 298 539 c 1
 379 922 l 1
 1050 922 l 1
 1030 828 l 1
 830 828 l 1
 769 543 l 1
 951 543 l 1
 998.333333333 662.333333333 1067.5 755.333333333 1158.5 822 c 128
 1249.5 888.666666667 1357.33333333 922 1482 922 c 0
 1597.33333333 922 1688.16666667 899.666666667 1754.5 855 c 128
 1820.83333333 810.333333333 1863.33333333 751 1882 677 c 0
 1887.33333333 658.333333333 1891 640 1893 622 c 128
 1895 604 1896 583 1896 559 c 0
 1896 517.666666667 1891 474 1881 428 c 0
 1855 304.666666667 1794.66666667 193.333333333 1700 94 c 1
 2324 94 l 1
 2386 385 l 1
 2188 426.333333333 2089 504.666666667 2089 620 c 0
 2089 627.333333333 2089.33333333 635 2090 643 c 128
 2090.66666667 651 2092 659.333333333 2094 668 c 0
 2109.33333333 738.666666667 2138.66666667 795.5 2182 838.5 c 128
 2225.33333333 881.5 2280 908 2346 918 c 1
 2302.66666667 972.666666667 2281 1029.66666667 2281 1089 c 0
 2281 1107 2283 1125 2287 1143 c 0
 2306.33333333 1233 2341.16666667 1306.16666667 2391.5 1362.5 c 128
 2441.83333333 1418.83333333 2498.5 1459.16666667 2561.5 1483.5 c 128
 2624.5 1507.83333333 2685.33333333 1520 2744 1520 c 0
 2844.66666667 1520 2929.66666667 1498.33333333 2999 1455 c 0
 3051 1423 3077 1373 3077 1305 c 0
 3077 1285 3074.33333333 1261.66666667 3069 1235 c 0
 3055 1171.66666667 3021.5 1118 2968.5 1074 c 128
 2915.5 1030 2852.66666667 1008 2780 1008 c 0
 2732.66666667 1008 2694.33333333 1017.5 2665 1036.5 c 128
 2635.66666667 1055.5 2615.66666667 1080.66666667 2605 1112 c 0
 2599 1131.33333333 2596 1151 2596 1171 c 0
 2596 1183.66666667 2597.5 1197.5 2600.5 1212.5 c 128
 2603.5 1227.5 2608 1242.5 2614 1257.5 c 128
 2620 1272.5 2628 1288 2638 1304 c 0
 2656.66666667 1333.33333333 2678.66666667 1357.66666667 2704 1377 c 1
 2661 1379 l 2
 2616.33333333 1379 2574.33333333 1366 2535 1340 c 128
 2495.66666667 1314 2463.16666667 1281.33333333 2437.5 1242 c 128
 2411.83333333 1202.66666667 2394.33333333 1162.33333333 2385 1121 c 0
 2383 1113 2381.66666667 1104.66666667 2381 1096 c 128
 2380.33333333 1087.33333333 2380 1078 2380 1068 c 0
 2380 1015.33333333 2398.33333333 966.666666667 2435 922 c 1
 2468.33333333 922 2498.33333333 916.833333333 2525 906.5 c 128
 2551.66666667 896.166666667 2573.66666667 882 2591 864 c 0
 2616.33333333 837.333333333 2629 807 2629 773 c 0
 2629 765 2629 765 2629 758 c 0
 2627 750 2625.66666667 744 2625 740 c 2
 2565 457 l 1
 2659 440.333333333 2733.66666667 412.333333333 2789 373 c 0
 2834.33333333 341.666666667 2857 302.333333333 2857 255 c 0
 2857 248 2857 248 2857 242 c 0
 2855 232 2853.66666667 224.333333333 2853 219 c 0
2923 1213 m 0
 2925 1223 2926 1232.66666667 2926 1242 c 0
 2926 1264.66666667 2919.33333333 1285.33333333 2906 1304 c 0
 2888 1329.33333333 2861 1342 2825 1342 c 1
 2793 1336 2764.5 1321.16666667 2739.5 1297.5 c 128
 2714.5 1273.83333333 2698 1245 2690 1211 c 0
 2688.66666667 1205 2688 1196.66666667 2688 1186 c 0
 2688 1165.33333333 2694 1146.33333333 2706 1129 c 0
 2723.33333333 1105.66666667 2747.66666667 1094 2779 1094 c 0
 2811.66666667 1094 2841.83333333 1105.33333333 2869.5 1128 c 128
 2897.16666667 1150.66666667 2915 1179 2923 1213 c 0
2407 484 m 1
 2456 715 l 2
 2458 723 2459 730.666666667 2459 738 c 0
 2459 759.333333333 2451 777.666666667 2435 793 c 0
 2414.33333333 811.666666667 2382 821 2338 821 c 0
 2297.33333333 821 2263 807.5 2235 780.5 c 128
 2207 753.5 2188 716.666666667 2178 670 c 0
 2176 662 2175 653.666666667 2175 645 c 0
 2175 570.333333333 2252.33333333 516.666666667 2407 484 c 1
2748 228 m 0
 2749.33333333 236 2750 241.666666667 2750 245 c 0
 2750 270.333333333 2734.66666667 291.333333333 2704 308 c 0
 2668 328 2614.66666667 345 2544 359 c 1
 2488 94 l 1
 2603 94 l 2
 2681.66666667 94 2730 138.666666667 2748 228 c 0
1271 316 m 0
 1274.33333333 331.333333333 1276 344.333333333 1276 355 c 0
 1276 417.666666667 1234 449 1150 449 c 2
 1015 449 l 1
 1002.33333333 379.666666667 996 325 996 285 c 0
 996 274 996 274 996 263 c 0
 997.333333333 257.666666667 998 254 998 252 c 0
 1002.66666667 219.333333333 1014.66666667 193 1034 173 c 0
 1054.66666667 153.666666667 1080.33333333 144 1111 144 c 0
 1152.33333333 144 1186.83333333 160.833333333 1214.5 194.5 c 128
 1242.16666667 228.166666667 1261 268.666666667 1271 316 c 0
597 543 m 1
 658 828 l 1
 451 828 l 1
 390 543 l 1
 597 543 l 1
528 217 m 2
 577 449 l 1
 327 449 l 2
 296.333333333 449 263.166666667 435.333333333 227.5 408 c 128
 191.833333333 380.666666667 167 337 153 277 c 0
 149 257 147 239 147 223 c 0
 147 137 204.333333333 94 319 94 c 0
 356.333333333 94 398.833333333 106.833333333 446.5 132.5 c 128
 494.166666667 158.166666667 521.333333333 186.333333333 528 217 c 2
EndSplineSet
EndChar

StartChar: u0B95_u0BB7_u0BCD
Encoding: 70 -1 70
Width: 3011
Flags: HW
AnchorPoint: "N" 748 0 basechar 0
LayerCount: 2
Fore
SplineSet
2853 219 m 0
 2839 155 2809.83333333 102.5 2765.5 61.5 c 128
 2721.16666667 20.5 2659.66666667 0 2581 0 c 2
 2468 0 l 1
 2377 -428 l 1
 2213 -428 l 1
 2304 0 l 1
 1436 0 l 1
 1589.33333333 126.666666667 1682.66666667 267.333333333 1716 422 c 0
 1724.66666667 461.333333333 1729 500 1729 538 c 0
 1729 552 1728 567.166666667 1726 583.5 c 128
 1724 599.833333333 1721.33333333 615 1718 629 c 0
 1704.66666667 689.666666667 1675.33333333 738 1630 774 c 128
 1584.66666667 810 1528 828 1460 828 c 0
 1384.66666667 828 1317.33333333 813.333333333 1258 784 c 128
 1198.66666667 754.666666667 1151 718.166666667 1115 674.5 c 128
 1079 630.833333333 1053.66666667 587 1039 543 c 1
 1233 543 l 2
 1380.33333333 543 1454 489.666666667 1454 383 c 0
 1454 362.333333333 1451.66666667 341.333333333 1447 320 c 0
 1427 226.666666667 1389 150 1333 90 c 128
 1277 30 1213 0 1141 0 c 0
 982.333333333 0 903 89.3333333333 903 268 c 0
 903 298.666666667 904.333333333 327 907 353 c 128
 909.666666667 379 915 411 923 449 c 1
 749 449 l 1
 701 223 l 2
 693 184.333333333 668.666666667 148 628 114 c 128
 587.333333333 80 539.333333333 52.6666666667 484 32 c 0
 456 21.3333333333 428.833333333 13.3333333333 402.5 8 c 128
 376.166666667 2.66666666667 349.333333333 0 322 0 c 0
 258 0 204.5 10.1666666667 161.5 30.5 c 128
 118.5 50.8333333333 87.3333333333 83.6666666667 68 129 c 0
 58 154.333333333 53 183.333333333 53 216 c 0
 53 239.333333333 56 265 62 293 c 0
 78 365.666666667 111 423.333333333 161 466 c 128
 211 508.666666667 256.666666667 533 298 539 c 1
 379 922 l 1
 1050 922 l 1
 1030 828 l 1
 830 828 l 1
 769 543 l 1
 951 543 l 1
 998.333333333 662.333333333 1067.5 755.333333333 1158.5 822 c 128
 1249.5 888.666666667 1357.33333333 922 1482 922 c 0
 1597.33333333 922 1688.16666667 899.666666667 1754.5 855 c 128
 1820.83333333 810.333333333 1863.33333333 751 1882 677 c 0
 1887.33333333 658.333333333 1891 640 1893 622 c 128
 1895 604 1896 583 1896 559 c 0
 1896 517.666666667 1891 474 1881 428 c 0
 1855 304.666666667 1794.66666667 193.333333333 1700 94 c 1
 2324 94 l 1
 2386 385 l 1
 2188 426.333333333 2089 504.666666667 2089 620 c 0
 2089 627.333333333 2089.33333333 635 2090 643 c 128
 2090.66666667 651 2092 659.333333333 2094 668 c 0
 2111.33333333 748 2146.16666667 810.333333333 2198.5 855 c 128
 2250.83333333 899.666666667 2319.33333333 922 2404 922 c 0
 2487.33333333 922 2548 905 2586 871 c 0
 2614.66666667 845 2629 813.333333333 2629 776 c 0
 2629 765 2629 765 2629 755 c 0
 2627 747.666666667 2625.66666667 742.666666667 2625 740 c 2
 2565 457 l 1
 2659 440.333333333 2733.66666667 412.333333333 2789 373 c 0
 2834.33333333 341.666666667 2857 302.333333333 2857 255 c 0
 2857 248 2857 248 2857 242 c 0
 2855 232 2853.66666667 224.333333333 2853 219 c 0
2407 484 m 1
 2456 715 l 2
 2458 723 2459 730.666666667 2459 738 c 0
 2459 759.333333333 2451 777.666666667 2435 793 c 0
 2414.33333333 811.666666667 2382 821 2338 821 c 0
 2297.33333333 821 2263 807.5 2235 780.5 c 128
 2207 753.5 2188 716.666666667 2178 670 c 0
 2176 662 2175 653.666666667 2175 645 c 0
 2175 570.333333333 2252.33333333 516.666666667 2407 484 c 1
2748 228 m 0
 2749.33333333 236 2750 241.666666667 2750 245 c 0
 2750 270.333333333 2734.66666667 291.333333333 2704 308 c 0
 2668 328 2614.66666667 345 2544 359 c 1
 2488 94 l 1
 2603 94 l 2
 2681.66666667 94 2730 138.666666667 2748 228 c 0
1271 316 m 0
 1274.33333333 331.333333333 1276 344.333333333 1276 355 c 0
 1276 417.666666667 1234 449 1150 449 c 2
 1015 449 l 1
 1002.33333333 379.666666667 996 325 996 285 c 0
 996 274 996 274 996 263 c 0
 997.333333333 257.666666667 998 254 998 252 c 0
 1002.66666667 219.333333333 1014.66666667 193 1034 173 c 0
 1054.66666667 153.666666667 1080.33333333 144 1111 144 c 0
 1152.33333333 144 1186.83333333 160.833333333 1214.5 194.5 c 128
 1242.16666667 228.166666667 1261 268.666666667 1271 316 c 0
597 543 m 1
 658 828 l 1
 451 828 l 1
 390 543 l 1
 597 543 l 1
528 217 m 2
 577 449 l 1
 327 449 l 2
 296.333333333 449 263.166666667 435.333333333 227.5 408 c 128
 191.833333333 380.666666667 167 337 153 277 c 0
 149 257 147 239 147 223 c 0
 147 137 204.333333333 94 319 94 c 0
 356.333333333 94 398.833333333 106.833333333 446.5 132.5 c 128
 494.166666667 158.166666667 521.333333333 186.333333333 528 217 c 2
1727 1204 m 0
 1720.33333333 1170.66666667 1701.16666667 1140.83333333 1669.5 1114.5 c 128
 1637.83333333 1088.16666667 1604.66666667 1075 1570 1075 c 256
 1535.33333333 1075 1508 1088 1488 1114 c 0
 1473.33333333 1131.33333333 1466 1152.66666667 1466 1178 c 0
 1466 1186 1467 1194.66666667 1469 1204 c 0
 1475.66666667 1238.66666667 1494.66666667 1268.83333333 1526 1294.5 c 128
 1557.33333333 1320.16666667 1590.33333333 1333 1625 1333 c 0
 1661 1333 1688.33333333 1320.33333333 1707 1295 c 0
 1722.33333333 1276.33333333 1730 1255 1730 1231 c 0
 1730 1222.33333333 1729 1213.33333333 1727 1204 c 0
EndSplineSet
EndChar

StartChar: u0B9A
Encoding: 71 2970 71
Width: 1059
Flags: HW
AnchorPoint: "V" 748 939 basechar 0
AnchorPoint: "N" 748 94.4575 basechar 0
LayerCount: 2
Fore
SplineSet
949 449 m 1
 749 449 l 1
 701 223 l 2
 693 184.333333333 668.666666667 148 628 114 c 128
 587.333333333 80 539.333333333 52.6666666667 484 32 c 0
 456 21.3333333333 428.833333333 13.3333333333 402.5 8 c 128
 376.166666667 2.66666666667 349.333333333 0 322 0 c 0
 258 0 204.5 10.1666666667 161.5 30.5 c 128
 118.5 50.8333333333 87.3333333333 83.6666666667 68 129 c 0
 58 154.333333333 53 183.333333333 53 216 c 0
 53 239.333333333 56 265 62 293 c 0
 78 365.666666667 111 423.333333333 161 466 c 128
 211 508.666666667 256.666666667 533 298 539 c 1
 379 922 l 1
 1050 922 l 1
 1030 828 l 1
 830 828 l 1
 769 543 l 1
 969 543 l 1
 949 449 l 1
597 543 m 1
 658 828 l 1
 451 828 l 1
 390 543 l 1
 597 543 l 1
528 217 m 2
 577 449 l 1
 327 449 l 2
 296.333333333 449 263.166666667 435.333333333 227.5 408 c 128
 191.833333333 380.666666667 167 337 153 277 c 0
 149 257 147 239 147 223 c 0
 147 137 204.333333333 94 319 94 c 0
 356.333333333 94 398.833333333 106.833333333 446.5 132.5 c 128
 494.166666667 158.166666667 521.333333333 186.333333333 528 217 c 2
EndSplineSet
EndChar

StartChar: u0B9A_u0BBF
Encoding: 72 -1 72
Width: 1286
Flags: HW
AnchorPoint: "V" 748 1461.99 basechar 0
AnchorPoint: "N" 748 94.4575 basechar 0
LayerCount: 2
Fore
SplineSet
1082 0 m 1
 998 0 l 1
 1192 914 l 2
 1194.66666667 924.666666667 1196.66666667 936.833333333 1198 950.5 c 128
 1199.33333333 964.166666667 1200 977 1200 989 c 0
 1200 1031 1191.33333333 1071.33333333 1174 1110 c 0
 1146 1168.66666667 1101.66666667 1214.5 1041 1247.5 c 128
 980.333333333 1280.5 910.333333333 1297 831 1297 c 0
 673.666666667 1297 549.666666667 1259.5 459 1184.5 c 128
 368.333333333 1109.5 309.666666667 1011 283 889 c 0
 278.333333333 866.333333333 275.166666667 842 273.5 816 c 128
 271.833333333 790 271 761 271 729 c 0
 271 703.666666667 274.5 680 281.5 658 c 128
 288.5 636 298 616 310 598 c 1
 379 922 l 1
 1050 922 l 1
 1030 828 l 1
 830 828 l 1
 769 543 l 1
 969 543 l 1
 949 449 l 1
 749 449 l 1
 701 223 l 2
 693 184.333333333 668.666666667 148 628 114 c 128
 587.333333333 80 539.333333333 52.6666666667 484 32 c 0
 456 21.3333333333 428.833333333 13.3333333333 402.5 8 c 128
 376.166666667 2.66666666667 349.333333333 0 322 0 c 0
 258 0 204.5 10.1666666667 161.5 30.5 c 128
 118.5 50.8333333333 87.3333333333 83.6666666667 68 129 c 0
 58 154.333333333 53 183.333333333 53 216 c 0
 53 239.333333333 56 265 62 293 c 0
 74 349.666666667 97.1666666667 397.5 131.5 436.5 c 128
 165.833333333 475.5 202.666666667 504 242 522 c 1
 194.666666667 577.333333333 171 650 171 740 c 0
 171 760.666666667 172.333333333 782 175 804 c 128
 177.666666667 826 181.666666667 851 187 879 c 0
 195 915 205.5 951.5 218.5 988.5 c 128
 231.5 1025.5 246.666666667 1061 264 1095 c 0
 299.333333333 1165 344.833333333 1228.16666667 400.5 1284.5 c 128
 456.166666667 1340.83333333 523.166666667 1386 601.5 1420 c 128
 679.833333333 1454 768 1471 866 1471 c 0
 976 1471 1066.16666667 1449.5 1136.5 1406.5 c 128
 1206.83333333 1363.5 1254 1299 1278 1213 c 0
 1288.66666667 1175 1294 1132 1294 1084 c 0
 1294 1028 1287 966.333333333 1273 899 c 2
 1082 0 l 1
597 543 m 1
 658 828 l 1
 451 828 l 1
 390 543 l 1
 597 543 l 1
528 217 m 2
 577 449 l 1
 327 449 l 2
 296.333333333 449 263.166666667 435.333333333 227.5 408 c 128
 191.833333333 380.666666667 167 337 153 277 c 0
 149 257 147 239 147 223 c 0
 147 137 204.333333333 94 319 94 c 0
 356.333333333 94 398.833333333 106.833333333 446.5 132.5 c 128
 494.166666667 158.166666667 521.333333333 186.333333333 528 217 c 2
EndSplineSet
EndChar

StartChar: u0B9A_u0BC0
Encoding: 73 -1 73
Width: 1057
Flags: HW
AnchorPoint: "V" 748 1488.11 basechar 0
AnchorPoint: "N" 748 94.4575 basechar 0
LayerCount: 2
Fore
SplineSet
1300 1235 m 0
 1286 1171.66666667 1252.33333333 1118 1199 1074 c 128
 1145.66666667 1030 1083 1008 1011 1008 c 0
 964.333333333 1008 926.666666667 1017.16666667 898 1035.5 c 128
 869.333333333 1053.83333333 849 1079.33333333 837 1112 c 0
 834.333333333 1119.33333333 832.333333333 1127.83333333 831 1137.5 c 128
 829.666666667 1147.16666667 829 1157 829 1167 c 0
 829 1179.66666667 830.666666667 1195 834 1213 c 0
 849.333333333 1285 882.666666667 1339.66666667 934 1377 c 1
 891 1379 l 1
 794.333333333 1379 701.833333333 1354.5 613.5 1305.5 c 128
 525.166666667 1256.5 452.333333333 1194.33333333 395 1119 c 128
 337.666666667 1043.66666667 300.333333333 967 283 889 c 0
 278.333333333 866.333333333 275.166666667 842 273.5 816 c 128
 271.833333333 790 271 761 271 729 c 0
 271 703.666666667 274.5 680 281.5 658 c 128
 288.5 636 298 616 310 598 c 1
 379 922 l 1
 1048 922 l 1
 1028 828 l 1
 830 828 l 1
 769 543 l 1
 967 543 l 1
 947 449 l 1
 749 449 l 1
 701 223 l 2
 693 184.333333333 668.666666667 148 628 114 c 128
 587.333333333 80 539.333333333 52.6666666667 484 32 c 0
 456 21.3333333333 428.833333333 13.3333333333 402.5 8 c 128
 376.166666667 2.66666666667 349.333333333 0 322 0 c 0
 258 0 204.5 10.1666666667 161.5 30.5 c 128
 118.5 50.8333333333 87.3333333333 83.6666666667 68 129 c 0
 58 154.333333333 53 183.333333333 53 216 c 0
 53 239.333333333 56 265 62 293 c 0
 74 349.666666667 97.1666666667 397.5 131.5 436.5 c 128
 165.833333333 475.5 202.666666667 504 242 522 c 1
 194.666666667 577.333333333 171 650 171 740 c 0
 171 760.666666667 172.333333333 782 175 804 c 128
 177.666666667 826 181.666666667 851 187 879 c 0
 213 1002.33333333 264.166666667 1113 340.5 1211 c 128
 416.833333333 1309 510.333333333 1385 621 1439 c 128
 731.666666667 1493 850.333333333 1520 977 1520 c 0
 1077 1520 1161.33333333 1498.33333333 1230 1455 c 0
 1282 1423 1308 1373 1308 1305 c 0
 1308 1285 1305.33333333 1261.66666667 1300 1235 c 0
1153 1213 m 0
 1155 1224.33333333 1156 1234.66666667 1156 1244 c 0
 1156 1266.66666667 1149.66666667 1286.66666667 1137 1304 c 0
 1119 1329.33333333 1091.66666667 1342 1055 1342 c 1
 1022.33333333 1336 993.5 1320.66666667 968.5 1296 c 128
 943.5 1271.33333333 927.666666667 1243 921 1211 c 0
 919 1201.66666667 918 1192.66666667 918 1184 c 0
 918 1164.66666667 924 1146.33333333 936 1129 c 0
 953.333333333 1105.66666667 977.666666667 1094 1009 1094 c 0
 1042.33333333 1094 1073 1105.66666667 1101 1129 c 128
 1129 1152.33333333 1146.33333333 1180.33333333 1153 1213 c 0
597 543 m 1
 658 828 l 1
 451 828 l 1
 390 543 l 1
 597 543 l 1
528 217 m 2
 577 449 l 1
 327 449 l 2
 296.333333333 449 263.166666667 435.333333333 227.5 408 c 128
 191.833333333 380.666666667 167 337 153 277 c 0
 149 257 147 239 147 223 c 0
 147 137 204.333333333 94 319 94 c 0
 356.333333333 94 398.833333333 106.833333333 446.5 132.5 c 128
 494.166666667 158.166666667 521.333333333 186.333333333 528 217 c 2
EndSplineSet
EndChar

StartChar: u0B9A_u0BC1
Encoding: 74 -1 74
Width: 1387
Flags: HW
AnchorPoint: "V" 748 939 basechar 0
AnchorPoint: "N" 748 94.4575 basechar 0
LayerCount: 2
Fore
SplineSet
1277 449 m 1
 1097 449 l 1
 1002 0 l 1
 828 0 l 1
 923 449 l 1
 749 449 l 1
 701 223 l 2
 693 184.333333333 668.666666667 148 628 114 c 128
 587.333333333 80 539.333333333 52.6666666667 484 32 c 0
 456 21.3333333333 428.833333333 13.3333333333 402.5 8 c 128
 376.166666667 2.66666666667 349.333333333 0 322 0 c 0
 258 0 204.5 10.1666666667 161.5 30.5 c 128
 118.5 50.8333333333 87.3333333333 83.6666666667 68 129 c 0
 58 154.333333333 53 183.333333333 53 216 c 0
 53 239.333333333 56 265 62 293 c 0
 78 365.666666667 111 423.333333333 161 466 c 128
 211 508.666666667 256.666666667 533 298 539 c 1
 379 922 l 1
 1050 922 l 1
 1030 828 l 1
 830 828 l 1
 769 543 l 1
 1297 543 l 1
 1277 449 l 1
597 543 m 1
 658 828 l 1
 451 828 l 1
 390 543 l 1
 597 543 l 1
528 217 m 2
 577 449 l 1
 327 449 l 2
 296.333333333 449 263.166666667 435.333333333 227.5 408 c 128
 191.833333333 380.666666667 167 337 153 277 c 0
 149 257 147 239 147 223 c 0
 147 137 204.333333333 94 319 94 c 0
 356.333333333 94 398.833333333 106.833333333 446.5 132.5 c 128
 494.166666667 158.166666667 521.333333333 186.333333333 528 217 c 2
EndSplineSet
EndChar

StartChar: u0B9A_u0BC2
Encoding: 75 -1 75
Width: 1575
Flags: HW
AnchorPoint: "V" 748 939 basechar 0
AnchorPoint: "N" 748 94.4575 basechar 0
LayerCount: 2
Fore
SplineSet
1380 45 m 0
 1362.66666667 -35.6666666667 1330.33333333 -109.5 1283 -176.5 c 128
 1235.66666667 -243.5 1177.5 -300.833333333 1108.5 -348.5 c 128
 1039.5 -396.166666667 961.833333333 -433 875.5 -459 c 128
 789.166666667 -485 699 -498 605 -498 c 0
 489.666666667 -498 392.666666667 -487.5 314 -466.5 c 128
 235.333333333 -445.5 178.333333333 -414.333333333 143 -373 c 0
 117 -343 104 -309 104 -271 c 0
 104 -259 105.666666667 -245.333333333 109 -230 c 0
 122.333333333 -170 157.833333333 -124.166666667 215.5 -92.5 c 128
 273.166666667 -60.8333333333 339.333333333 -45 414 -45 c 0
 467.333333333 -45 518 -54.6666666667 566 -74 c 128
 614 -93.3333333333 651.666666667 -118.666666667 679 -150 c 1
 634 -207 l 1
 574.666666667 -149.666666667 493.333333333 -121 390 -121 c 0
 337.333333333 -121 294.5 -130.166666667 261.5 -148.5 c 128
 228.5 -166.833333333 208 -192.666666667 200 -226 c 0
 198 -236 197 -245.333333333 197 -254 c 0
 197 -284 210 -309.666666667 236 -331 c 0
 268.666666667 -357.666666667 314.666666667 -376.833333333 374 -388.5 c 128
 433.333333333 -400.166666667 497.333333333 -406 566 -406 c 0
 671.333333333 -406 770.166666667 -384.666666667 862.5 -342 c 128
 954.833333333 -299.333333333 1030.83333333 -244.166666667 1090.5 -176.5 c 128
 1150.16666667 -108.833333333 1188 -37.6666666667 1204 37 c 0
 1207.33333333 52.3333333333 1210 68.1666666667 1212 84.5 c 128
 1214 100.833333333 1215 115.666666667 1215 129 c 0
 1215 162.333333333 1209 190 1197 212 c 0
 1175.66666667 251.333333333 1146.33333333 271 1109 271 c 0
 1090.33333333 271 1072.66666667 265.333333333 1056 254 c 1
 1002 0 l 1
 828 0 l 1
 923 449 l 1
 749 449 l 1
 701 223 l 2
 693 184.333333333 668.666666667 148 628 114 c 128
 587.333333333 80 539.333333333 52.6666666667 484 32 c 0
 456 21.3333333333 428.833333333 13.3333333333 402.5 8 c 128
 376.166666667 2.66666666667 349.333333333 0 322 0 c 0
 258 0 204.5 10.1666666667 161.5 30.5 c 128
 118.5 50.8333333333 87.3333333333 83.6666666667 68 129 c 0
 58 154.333333333 53 183.333333333 53 216 c 0
 53 239.333333333 56 265 62 293 c 0
 78 365.666666667 111 423.333333333 161 466 c 128
 211 508.666666667 256.666666667 533 298 539 c 1
 379 922 l 1
 1050 922 l 1
 1030 828 l 1
 830 828 l 1
 769 543 l 1
 1297 543 l 1
 1277 449 l 1
 1097 449 l 1
 1077 355 l 1
 1112.33333333 375 1150 385 1190 385 c 0
 1235.33333333 385 1275.33333333 372 1310 346 c 128
 1344.66666667 320 1369 281 1383 229 c 0
 1389 205 1392 179 1392 151 c 0
 1392 118.333333333 1388 83 1380 45 c 0
597 543 m 1
 658 828 l 1
 451 828 l 1
 390 543 l 1
 597 543 l 1
528 217 m 2
 577 449 l 1
 327 449 l 2
 296.333333333 449 263.166666667 435.333333333 227.5 408 c 128
 191.833333333 380.666666667 167 337 153 277 c 0
 149 257 147 239 147 223 c 0
 147 137 204.333333333 94 319 94 c 0
 356.333333333 94 398.833333333 106.833333333 446.5 132.5 c 128
 494.166666667 158.166666667 521.333333333 186.333333333 528 217 c 2
EndSplineSet
EndChar

StartChar: u0B9A_u0BCD
Encoding: 76 -1 76
Width: 1059
Flags: HW
AnchorPoint: "N" 748 94.4575 basechar 0
LayerCount: 2
Fore
SplineSet
877 1204 m 0
 870.333333333 1170.66666667 851.166666667 1140.83333333 819.5 1114.5 c 128
 787.833333333 1088.16666667 754.666666667 1075 720 1075 c 256
 685.333333333 1075 658 1088 638 1114 c 0
 623.333333333 1131.33333333 616 1152.66666667 616 1178 c 0
 616 1186 617 1194.66666667 619 1204 c 0
 625.666666667 1238.66666667 644.666666667 1268.83333333 676 1294.5 c 128
 707.333333333 1320.16666667 740.333333333 1333 775 1333 c 0
 811 1333 838.333333333 1320.33333333 857 1295 c 0
 872.333333333 1276.33333333 880 1255 880 1231 c 0
 880 1222.33333333 879 1213.33333333 877 1204 c 0
949 449 m 1
 749 449 l 1
 701 223 l 2
 693 184.333333333 668.666666667 148 628 114 c 128
 587.333333333 80 539.333333333 52.6666666667 484 32 c 0
 456 21.3333333333 428.833333333 13.3333333333 402.5 8 c 128
 376.166666667 2.66666666667 349.333333333 0 322 0 c 0
 258 0 204.5 10.1666666667 161.5 30.5 c 128
 118.5 50.8333333333 87.3333333333 83.6666666667 68 129 c 0
 58 154.333333333 53 183.333333333 53 216 c 0
 53 239.333333333 56 265 62 293 c 0
 78 365.666666667 111 423.333333333 161 466 c 128
 211 508.666666667 256.666666667 533 298 539 c 1
 379 922 l 1
 1050 922 l 1
 1030 828 l 1
 830 828 l 1
 769 543 l 1
 969 543 l 1
 949 449 l 1
597 543 m 1
 658 828 l 1
 451 828 l 1
 390 543 l 1
 597 543 l 1
528 217 m 2
 577 449 l 1
 327 449 l 2
 296.333333333 449 263.166666667 435.333333333 227.5 408 c 128
 191.833333333 380.666666667 167 337 153 277 c 0
 149 257 147 239 147 223 c 0
 147 137 204.333333333 94 319 94 c 0
 356.333333333 94 398.833333333 106.833333333 446.5 132.5 c 128
 494.166666667 158.166666667 521.333333333 186.333333333 528 217 c 2
EndSplineSet
EndChar

StartChar: u0B9C
Encoding: 77 2972 77
Width: 1325
Flags: HW
AnchorPoint: "V" 840 939 basechar 0
AnchorPoint: "N" 840 -320 basechar 0
LayerCount: 2
Fore
SplineSet
1247 594 m 0
 1238.33333333 552.666666667 1223.5 508.5 1202.5 461.5 c 128
 1181.5 414.5 1155 371.166666667 1123 331.5 c 128
 1091 291.833333333 1054 262 1012 242 c 0
 962.666666667 219.333333333 911.333333333 203.666666667 858 195 c 0
 822 189 789.5 184.333333333 760.5 181 c 128
 731.5 177.666666667 699 176 663 176 c 0
 629 176 599.666666667 175 575 173 c 128
 550.333333333 171 516.833333333 168 474.5 164 c 128
 432.166666667 160 391 150.333333333 351 135 c 1
 320.333333333 126.333333333 289.5 107.666666667 258.5 79 c 128
 227.5 50.3333333333 206 10.3333333333 194 -41 c 0
 191.333333333 -55 189 -69.3333333333 187 -84 c 128
 185 -98.6666666667 184 -111.666666667 184 -123 c 0
 184 -198.333333333 218 -236 286 -236 c 0
 321.333333333 -236 353.666666667 -230.5 383 -219.5 c 128
 412.333333333 -208.5 438.5 -194 461.5 -176 c 128
 484.5 -158 507.666666667 -137 531 -113 c 2
 597 -43 l 1
 656 18 l 2
 673.333333333 36.6666666667 693.5 54 716.5 70 c 128
 739.5 86 767.333333333 98.8333333333 800 108.5 c 128
 832.666666667 118.166666667 869.666666667 123 911 123 c 0
 983.666666667 123 1037 105 1071 69 c 0
 1094.33333333 42.3333333333 1106 8.66666666667 1106 -32 c 0
 1106 -48.6666666667 1104 -66.6666666667 1100 -86 c 0
 1084.66666667 -154 1051.83333333 -210 1001.5 -254 c 128
 951.166666667 -298 885 -320 803 -320 c 0
 744.333333333 -320 695.666666667 -307.666666667 657 -283 c 1
 698 -209 l 1
 726 -220.333333333 761.333333333 -226 804 -226 c 0
 839.333333333 -226 867.666666667 -214.333333333 889 -191 c 0
 910.333333333 -169.666666667 925.666666667 -140.333333333 935 -103 c 0
 939 -83 941 -65.6666666667 941 -51 c 0
 941 -32.3333333333 937.333333333 -17.6666666667 930 -7 c 0
 917.333333333 11.6666666667 887.333333333 21 840 21 c 0
 823.333333333 21 804.666666667 14.3333333333 784 1 c 0
 775.333333333 -4.33333333333 765.333333333 -12 754 -22 c 128
 742.666666667 -32 730.666666667 -43 718 -55 c 2
 657 -117 l 2
 607 -167.666666667 567.666666667 -205.666666667 539 -231 c 0
 523.666666667 -244.333333333 507 -256.833333333 489 -268.5 c 128
 471 -280.166666667 450.666666667 -291.666666667 428 -303 c 0
 384.666666667 -323.666666667 338 -334 288 -334 c 0
 174 -334 97.6666666667 -309.333333333 59 -260 c 0
 33 -228 20 -185.333333333 20 -132 c 0
 20 -102.666666667 23.3333333333 -72.3333333333 30 -41 c 0
 46 31 73 85 111 121 c 128
 149 157 197 185 255 205 c 0
 327 231.666666667 405 248.666666667 489 256 c 2
 733 277 l 1
 771 277 804.833333333 280.666666667 834.5 288 c 128
 864.166666667 295.333333333 893.333333333 305.333333333 922 318 c 0
 965.333333333 336.666666667 1000.66666667 377 1028 439 c 0
 1042 468.333333333 1054.16666667 497.833333333 1064.5 527.5 c 128
 1074.83333333 557.166666667 1083 585 1089 611 c 0
 1091.66666667 624.333333333 1093.66666667 636.5 1095 647.5 c 128
 1096.33333333 658.5 1097 670 1097 682 c 0
 1097 714 1091 742 1079 766 c 0
 1059.66666667 807.333333333 1022.33333333 828 967 828 c 0
 931 828 900.333333333 812.333333333 875 781 c 0
 862.333333333 765.666666667 852.5 750.666666667 845.5 736 c 128
 838.5 721.333333333 833 706 829 690 c 2
 773 428 l 1
 609 428 l 1
 663 680 l 2
 664.333333333 685.333333333 665 693.333333333 665 704 c 0
 665 716 663 729 659 743 c 0
 651.666666667 766.333333333 636.333333333 786.333333333 613 803 c 0
 587.666666667 819.666666667 554.666666667 828 514 828 c 0
 462.666666667 828 411.833333333 815.666666667 361.5 791 c 128
 311.166666667 766.333333333 275.333333333 736.333333333 254 701 c 1
 293.333333333 735 340 752 394 752 c 0
 433.333333333 752 465.833333333 741.833333333 491.5 721.5 c 128
 517.166666667 701.166666667 535 674 545 640 c 0
 547.666666667 631.333333333 549.666666667 622.666666667 551 614 c 128
 552.333333333 605.333333333 553 595.666666667 553 585 c 0
 553 575 552.166666667 564.833333333 550.5 554.5 c 128
 548.833333333 544.166666667 547.333333333 535.666666667 546 529 c 0
 532 460.333333333 501 407 453 369 c 128
 405 331 347.666666667 312 281 312 c 0
 171.666666667 312 117 372 117 492 c 0
 117 528.666666667 122.333333333 572.166666667 133 622.5 c 128
 143.666666667 672.833333333 167.833333333 721.166666667 205.5 767.5 c 128
 243.166666667 813.833333333 293.333333333 851.166666667 356 879.5 c 128
 418.666666667 907.833333333 487 922 561 922 c 0
 690.333333333 922 768.666666667 889.333333333 796 824 c 1
 847.333333333 889.333333333 917 922 1005 922 c 0
 1107.66666667 922 1179.33333333 893.666666667 1220 837 c 0
 1246 799.666666667 1259 753 1259 697 c 0
 1259 665.666666667 1255 631.333333333 1247 594 c 0
398 533 m 0
 399.333333333 541 400 548.333333333 400 555 c 0
 400 567 398.5 578.166666667 395.5 588.5 c 128
 392.5 598.833333333 387.333333333 607.666666667 380 615 c 0
 365.333333333 628.333333333 347.333333333 635 326 635 c 0
 286.666666667 635 250 614.666666667 216 574 c 1
 212 554.666666667 210 537.333333333 210 522 c 0
 210 502 213.666666667 483.666666667 221 467 c 0
 234.333333333 438.333333333 257 424 289 424 c 0
 315.666666667 424 339 435 359 457 c 128
 379 479 392 504.333333333 398 533 c 0
EndSplineSet
EndChar

StartChar: u0B9C_u0BBF
Encoding: 78 -1 78
Width: 1585
Flags: HW
AnchorPoint: "V" 840 939 basechar 0
AnchorPoint: "N" 840 -320 basechar 0
LayerCount: 2
Fore
SplineSet
1381 0 m 1
 1297 0 l 1
 1520 1049 l 2
 1522.66666667 1059.66666667 1524.66666667 1072.33333333 1526 1087 c 128
 1527.33333333 1101.66666667 1528 1115 1528 1127 c 0
 1528 1168.33333333 1519.66666667 1204.66666667 1503 1236 c 0
 1475.66666667 1287.33333333 1419.33333333 1313 1334 1313 c 0
 1252.66666667 1313 1186.33333333 1289.33333333 1135 1242 c 128
 1083.66666667 1194.66666667 1048.66666667 1127 1030 1039 c 0
 1026.66666667 1021 1025 1006 1025 994 c 0
 1025 966.666666667 1031.33333333 942.666666667 1044 922 c 1
 1131.33333333 914 1192.33333333 882 1227 826 c 0
 1247.66666667 791.333333333 1258 748.666666667 1258 698 c 0
 1258 679.333333333 1257.33333333 662.666666667 1256 648 c 128
 1254.66666667 633.333333333 1251.66666667 615.333333333 1247 594 c 0
 1238.33333333 552.666666667 1223.5 508.5 1202.5 461.5 c 128
 1181.5 414.5 1155 371.166666667 1123 331.5 c 128
 1091 291.833333333 1054 262 1012 242 c 0
 962.666666667 219.333333333 911.333333333 203.666666667 858 195 c 0
 822 189 789.5 184.333333333 760.5 181 c 128
 731.5 177.666666667 699 176 663 176 c 0
 629 176 599.666666667 175 575 173 c 128
 550.333333333 171 516.833333333 168 474.5 164 c 128
 432.166666667 160 391 150.333333333 351 135 c 1
 320.333333333 126.333333333 289.5 107.666666667 258.5 79 c 128
 227.5 50.3333333333 206 10.3333333333 194 -41 c 0
 191.333333333 -55 189 -69.3333333333 187 -84 c 128
 185 -98.6666666667 184 -111.666666667 184 -123 c 0
 184 -198.333333333 218 -236 286 -236 c 0
 321.333333333 -236 353.666666667 -230.5 383 -219.5 c 128
 412.333333333 -208.5 438.5 -194 461.5 -176 c 128
 484.5 -158 507.666666667 -137 531 -113 c 2
 597 -43 l 1
 656 18 l 2
 673.333333333 36.6666666667 693.5 54 716.5 70 c 128
 739.5 86 767.333333333 98.8333333333 800 108.5 c 128
 832.666666667 118.166666667 869.666666667 123 911 123 c 0
 983.666666667 123 1037 105 1071 69 c 0
 1094.33333333 42.3333333333 1106 8.66666666667 1106 -32 c 0
 1106 -48.6666666667 1104 -66.6666666667 1100 -86 c 0
 1084.66666667 -154 1051.83333333 -210 1001.5 -254 c 128
 951.166666667 -298 885 -320 803 -320 c 0
 744.333333333 -320 695.666666667 -307.666666667 657 -283 c 1
 698 -209 l 1
 726 -220.333333333 761.333333333 -226 804 -226 c 0
 839.333333333 -226 867.666666667 -214.333333333 889 -191 c 0
 910.333333333 -169.666666667 925.666666667 -140.333333333 935 -103 c 0
 939 -83 941 -65.6666666667 941 -51 c 0
 941 -32.3333333333 937.333333333 -17.6666666667 930 -7 c 0
 917.333333333 11.6666666667 887.333333333 21 840 21 c 0
 823.333333333 21 804.666666667 14.3333333333 784 1 c 0
 775.333333333 -4.33333333333 765.333333333 -12 754 -22 c 128
 742.666666667 -32 730.666666667 -43 718 -55 c 2
 657 -117 l 2
 607 -167.666666667 567.666666667 -205.666666667 539 -231 c 0
 523.666666667 -244.333333333 507 -256.833333333 489 -268.5 c 128
 471 -280.166666667 450.666666667 -291.666666667 428 -303 c 0
 384.666666667 -323.666666667 338 -334 288 -334 c 0
 174 -334 97.6666666667 -309.333333333 59 -260 c 0
 33 -228 20 -185.333333333 20 -132 c 0
 20 -102.666666667 23.3333333333 -72.3333333333 30 -41 c 0
 46 31 73 85 111 121 c 128
 149 157 197 185 255 205 c 0
 327 231.666666667 405 248.666666667 489 256 c 2
 733 277 l 1
 771 277 804.833333333 280.666666667 834.5 288 c 128
 864.166666667 295.333333333 893.333333333 305.333333333 922 318 c 0
 965.333333333 336.666666667 1000.66666667 377 1028 439 c 0
 1042 468.333333333 1054.16666667 497.833333333 1064.5 527.5 c 128
 1074.83333333 557.166666667 1083 585 1089 611 c 0
 1091.66666667 624.333333333 1093.66666667 636.5 1095 647.5 c 128
 1096.33333333 658.5 1097 670 1097 682 c 0
 1097 714 1091 742 1079 766 c 0
 1059.66666667 807.333333333 1022.33333333 828 967 828 c 0
 931 828 900.333333333 812.333333333 875 781 c 0
 862.333333333 765.666666667 852.5 750.666666667 845.5 736 c 128
 838.5 721.333333333 833 706 829 690 c 2
 773 428 l 1
 609 428 l 1
 663 680 l 2
 664.333333333 685.333333333 665 693.333333333 665 704 c 0
 665 716 663 729 659 743 c 0
 651.666666667 766.333333333 636.333333333 786.333333333 613 803 c 0
 587.666666667 819.666666667 554.666666667 828 514 828 c 0
 462.666666667 828 411.833333333 815.666666667 361.5 791 c 128
 311.166666667 766.333333333 275.333333333 736.333333333 254 701 c 1
 293.333333333 735 340 752 394 752 c 0
 433.333333333 752 465.833333333 741.833333333 491.5 721.5 c 128
 517.166666667 701.166666667 535 674 545 640 c 0
 547.666666667 631.333333333 549.666666667 622.666666667 551 614 c 128
 552.333333333 605.333333333 553 595.666666667 553 585 c 0
 553 575 552.166666667 564.833333333 550.5 554.5 c 128
 548.833333333 544.166666667 547.333333333 535.666666667 546 529 c 0
 532 460.333333333 501 407 453 369 c 128
 405 331 347.666666667 312 281 312 c 0
 171.666666667 312 117 372 117 492 c 0
 117 528.666666667 122.333333333 572.166666667 133 622.5 c 128
 143.666666667 672.833333333 167.833333333 721.166666667 205.5 767.5 c 128
 243.166666667 813.833333333 293.333333333 851.166666667 356 879.5 c 128
 418.666666667 907.833333333 487 922 561 922 c 0
 690.333333333 922 768.666666667 889.333333333 796 824 c 1
 832.666666667 872.666666667 883 903.333333333 947 916 c 1
 939 947.333333333 935 979.666666667 935 1013 c 0
 935 1045.66666667 939 1080.66666667 947 1118 c 0
 961 1185.33333333 985.5 1245.33333333 1020.5 1298 c 128
 1055.5 1350.66666667 1102.83333333 1393 1162.5 1425 c 128
 1222.16666667 1457 1291.33333333 1473 1370 1473 c 0
 1538.66666667 1473 1623 1386.66666667 1623 1214 c 0
 1623 1187.33333333 1621.66666667 1162.16666667 1619 1138.5 c 128
 1616.33333333 1114.83333333 1611.33333333 1085.66666667 1604 1051 c 2
 1381 0 l 1
380 615 m 0
 365.333333333 628.333333333 347.333333333 635 326 635 c 0
 286.666666667 635 250 614.666666667 216 574 c 1
 212 554.666666667 210 537.333333333 210 522 c 0
 210 502 213.666666667 483.666666667 221 467 c 0
 234.333333333 438.333333333 257 424 289 424 c 0
 315.666666667 424 339 435 359 457 c 128
 379 479 392 504.333333333 398 533 c 0
 399.333333333 541 400 548.333333333 400 555 c 0
 400 567 398.5 578.166666667 395.5 588.5 c 128
 392.5 598.833333333 387.333333333 607.666666667 380 615 c 0
EndSplineSet
EndChar

StartChar: u0B9C_u0BC0
Encoding: 79 -1 79
Width: 1391
Flags: HW
AnchorPoint: "V" 840 939 basechar 0
AnchorPoint: "N" 840 -320 basechar 0
LayerCount: 2
Fore
SplineSet
1674 1235 m 0
 1660 1171 1626.16666667 1117.16666667 1572.5 1073.5 c 128
 1518.83333333 1029.83333333 1456 1008 1384 1008 c 0
 1337.33333333 1008 1299.66666667 1017.16666667 1271 1035.5 c 128
 1242.33333333 1053.83333333 1222 1079.33333333 1210 1112 c 0
 1204 1131.33333333 1201 1151 1201 1171 c 0
 1201 1183.66666667 1202.66666667 1197.66666667 1206 1213 c 0
 1220.66666667 1283.66666667 1254.33333333 1338.33333333 1307 1377 c 1
 1264 1379 l 1
 1198 1379 1139 1352.33333333 1087 1299 c 128
 1035 1245.66666667 1002 1186.33333333 988 1121 c 0
 986 1113.66666667 984.666666667 1106 984 1098 c 128
 983.333333333 1090 983 1080.66666667 983 1070 c 0
 983 1018 1001.33333333 968.666666667 1038 922 c 1
 1081.33333333 922 1118.5 913.666666667 1149.5 897 c 128
 1180.5 880.333333333 1205.66666667 856.666666667 1225 826 c 0
 1247 792.666666667 1258 749.333333333 1258 696 c 0
 1258 662 1254 626.166666667 1246 588.5 c 128
 1238 550.833333333 1223.5 508.5 1202.5 461.5 c 128
 1181.5 414.5 1155 371.166666667 1123 331.5 c 128
 1091 291.833333333 1054 262 1012 242 c 0
 962.666666667 219.333333333 911.333333333 203.666666667 858 195 c 0
 822 189 789.5 184.333333333 760.5 181 c 128
 731.5 177.666666667 699 176 663 176 c 0
 629 176 599.666666667 175 575 173 c 128
 550.333333333 171 516.833333333 168 474.5 164 c 128
 432.166666667 160 391 150.333333333 351 135 c 1
 320.333333333 126.333333333 289.5 107.666666667 258.5 79 c 128
 227.5 50.3333333333 206 10.3333333333 194 -41 c 0
 191.333333333 -55 189 -69.3333333333 187 -84 c 128
 185 -98.6666666667 184 -111.666666667 184 -123 c 0
 184 -198.333333333 218 -236 286 -236 c 0
 321.333333333 -236 353.666666667 -230.5 383 -219.5 c 128
 412.333333333 -208.5 438.5 -194 461.5 -176 c 128
 484.5 -158 507.666666667 -137 531 -113 c 2
 597 -43 l 1
 656 18 l 2
 673.333333333 36.6666666667 693.5 54 716.5 70 c 128
 739.5 86 767.333333333 98.8333333333 800 108.5 c 128
 832.666666667 118.166666667 869.666666667 123 911 123 c 0
 983.666666667 123 1037 105 1071 69 c 0
 1094.33333333 42.3333333333 1106 8.66666666667 1106 -32 c 0
 1106 -48.6666666667 1104 -66.6666666667 1100 -86 c 0
 1084.66666667 -154 1051.83333333 -210 1001.5 -254 c 128
 951.166666667 -298 885 -320 803 -320 c 0
 744.333333333 -320 695.666666667 -307.666666667 657 -283 c 1
 698 -209 l 1
 726 -220.333333333 761.333333333 -226 804 -226 c 0
 839.333333333 -226 867.666666667 -214.333333333 889 -191 c 0
 910.333333333 -169.666666667 925.666666667 -140.333333333 935 -103 c 0
 939 -83 941 -65.6666666667 941 -51 c 0
 941 -32.3333333333 937.333333333 -17.6666666667 930 -7 c 0
 917.333333333 11.6666666667 887.333333333 21 840 21 c 0
 823.333333333 21 804.666666667 14.3333333333 784 1 c 0
 775.333333333 -4.33333333333 765.333333333 -12 754 -22 c 128
 742.666666667 -32 730.666666667 -43 718 -55 c 2
 657 -117 l 2
 607 -167.666666667 567.666666667 -205.666666667 539 -231 c 0
 523.666666667 -244.333333333 507 -256.833333333 489 -268.5 c 128
 471 -280.166666667 450.666666667 -291.666666667 428 -303 c 0
 384.666666667 -323.666666667 338 -334 288 -334 c 0
 174 -334 97.6666666667 -309.333333333 59 -260 c 0
 33 -228 20 -185.333333333 20 -132 c 0
 20 -102.666666667 23.3333333333 -72.3333333333 30 -41 c 0
 46 31 73 85 111 121 c 128
 149 157 197 185 255 205 c 0
 327 231.666666667 405 248.666666667 489 256 c 2
 733 277 l 1
 771 277 804.833333333 280.666666667 834.5 288 c 128
 864.166666667 295.333333333 893.333333333 305.333333333 922 318 c 0
 965.333333333 336.666666667 1000.66666667 377 1028 439 c 0
 1042 468.333333333 1054.16666667 497.833333333 1064.5 527.5 c 128
 1074.83333333 557.166666667 1083 585 1089 611 c 0
 1091.66666667 624.333333333 1093.66666667 636.5 1095 647.5 c 128
 1096.33333333 658.5 1097 670 1097 682 c 0
 1097 714 1091 742 1079 766 c 0
 1059.66666667 807.333333333 1022.33333333 828 967 828 c 0
 931 828 900.333333333 812.333333333 875 781 c 0
 862.333333333 765.666666667 852.5 750.666666667 845.5 736 c 128
 838.5 721.333333333 833 706 829 690 c 2
 773 428 l 1
 609 428 l 1
 663 680 l 2
 664.333333333 685.333333333 665 693.333333333 665 704 c 0
 665 716 663 729 659 743 c 0
 651.666666667 766.333333333 636.333333333 786.333333333 613 803 c 0
 587.666666667 819.666666667 554.666666667 828 514 828 c 0
 462.666666667 828 411.833333333 815.666666667 361.5 791 c 128
 311.166666667 766.333333333 275.333333333 736.333333333 254 701 c 1
 293.333333333 735 340 752 394 752 c 0
 433.333333333 752 465.833333333 741.833333333 491.5 721.5 c 128
 517.166666667 701.166666667 535 674 545 640 c 0
 547.666666667 631.333333333 549.666666667 622.666666667 551 614 c 128
 552.333333333 605.333333333 553 595.666666667 553 585 c 0
 553 575 552.166666667 564.833333333 550.5 554.5 c 128
 548.833333333 544.166666667 547.333333333 535.666666667 546 529 c 0
 532 460.333333333 501 407 453 369 c 128
 405 331 347.666666667 312 281 312 c 0
 171.666666667 312 117 372 117 492 c 0
 117 528.666666667 122.333333333 572.166666667 133 622.5 c 128
 143.666666667 672.833333333 167.833333333 721.166666667 205.5 767.5 c 128
 243.166666667 813.833333333 293.333333333 851.166666667 356 879.5 c 128
 418.666666667 907.833333333 487 922 561 922 c 0
 690.333333333 922 768.666666667 889.333333333 796 824 c 1
 832.666666667 872.666666667 883.666666667 903.333333333 949 916 c 1
 907 971.333333333 886 1028.33333333 886 1087 c 0
 886 1105 888 1123.66666667 892 1143 c 0
 920 1274.33333333 978.833333333 1370 1068.5 1430 c 128
 1158.16666667 1490 1251.66666667 1520 1349 1520 c 0
 1452.33333333 1520 1537.33333333 1498.66666667 1604 1456 c 0
 1656 1422.66666667 1682 1372.33333333 1682 1305 c 0
 1682 1285 1679.33333333 1261.66666667 1674 1235 c 0
1526 1213 m 0
 1528 1223 1529 1232.66666667 1529 1242 c 0
 1529 1264.66666667 1522.33333333 1285.33333333 1509 1304 c 0
 1491 1329.33333333 1464 1342 1428 1342 c 1
 1395.33333333 1336 1366.5 1320.66666667 1341.5 1296 c 128
 1316.5 1271.33333333 1300.66666667 1243 1294 1211 c 0
 1292 1201.66666667 1291 1192.66666667 1291 1184 c 0
 1291 1164.66666667 1297 1146.33333333 1309 1129 c 0
 1326.33333333 1105.66666667 1350.66666667 1094 1382 1094 c 0
 1414 1094 1444 1105.33333333 1472 1128 c 128
 1500 1150.66666667 1518 1179 1526 1213 c 0
380 615 m 0
 365.333333333 628.333333333 347.333333333 635 326 635 c 0
 286.666666667 635 250 614.666666667 216 574 c 1
 212 554.666666667 210 537.333333333 210 522 c 0
 210 502 213.666666667 483.666666667 221 467 c 0
 234.333333333 438.333333333 257 424 289 424 c 0
 315.666666667 424 339 435 359 457 c 128
 379 479 392 504.333333333 398 533 c 0
 399.333333333 541 400 548.333333333 400 555 c 0
 400 567 398.5 578.166666667 395.5 588.5 c 128
 392.5 598.833333333 387.333333333 607.666666667 380 615 c 0
EndSplineSet
EndChar

StartChar: u0B9C_u0BCD
Encoding: 80 -1 80
Width: 1325
Flags: HW
AnchorPoint: "N" 840 -320 basechar 0
LayerCount: 2
Fore
SplineSet
1247 594 m 0
 1238.33333333 552.666666667 1223.5 508.5 1202.5 461.5 c 128
 1181.5 414.5 1155 371.166666667 1123 331.5 c 128
 1091 291.833333333 1054 262 1012 242 c 0
 962.666666667 219.333333333 911.333333333 203.666666667 858 195 c 0
 822 189 789.5 184.333333333 760.5 181 c 128
 731.5 177.666666667 699 176 663 176 c 0
 629 176 599.666666667 175 575 173 c 128
 550.333333333 171 516.833333333 168 474.5 164 c 128
 432.166666667 160 391 150.333333333 351 135 c 1
 320.333333333 126.333333333 289.5 107.666666667 258.5 79 c 128
 227.5 50.3333333333 206 10.3333333333 194 -41 c 0
 191.333333333 -55 189 -69.3333333333 187 -84 c 128
 185 -98.6666666667 184 -111.666666667 184 -123 c 0
 184 -198.333333333 218 -236 286 -236 c 0
 321.333333333 -236 353.666666667 -230.5 383 -219.5 c 128
 412.333333333 -208.5 438.5 -194 461.5 -176 c 128
 484.5 -158 507.666666667 -137 531 -113 c 2
 597 -43 l 1
 656 18 l 2
 673.333333333 36.6666666667 693.5 54 716.5 70 c 128
 739.5 86 767.333333333 98.8333333333 800 108.5 c 128
 832.666666667 118.166666667 869.666666667 123 911 123 c 0
 983.666666667 123 1037 105 1071 69 c 0
 1094.33333333 42.3333333333 1106 8.66666666667 1106 -32 c 0
 1106 -48.6666666667 1104 -66.6666666667 1100 -86 c 0
 1084.66666667 -154 1051.83333333 -210 1001.5 -254 c 128
 951.166666667 -298 885 -320 803 -320 c 0
 744.333333333 -320 695.666666667 -307.666666667 657 -283 c 1
 698 -209 l 1
 726 -220.333333333 761.333333333 -226 804 -226 c 0
 839.333333333 -226 867.666666667 -214.333333333 889 -191 c 0
 910.333333333 -169.666666667 925.666666667 -140.333333333 935 -103 c 0
 939 -83 941 -65.6666666667 941 -51 c 0
 941 -32.3333333333 937.333333333 -17.6666666667 930 -7 c 0
 917.333333333 11.6666666667 887.333333333 21 840 21 c 0
 823.333333333 21 804.666666667 14.3333333333 784 1 c 0
 775.333333333 -4.33333333333 765.333333333 -12 754 -22 c 128
 742.666666667 -32 730.666666667 -43 718 -55 c 2
 657 -117 l 2
 607 -167.666666667 567.666666667 -205.666666667 539 -231 c 0
 523.666666667 -244.333333333 507 -256.833333333 489 -268.5 c 128
 471 -280.166666667 450.666666667 -291.666666667 428 -303 c 0
 384.666666667 -323.666666667 338 -334 288 -334 c 0
 174 -334 97.6666666667 -309.333333333 59 -260 c 0
 33 -228 20 -185.333333333 20 -132 c 0
 20 -102.666666667 23.3333333333 -72.3333333333 30 -41 c 0
 46 31 73 85 111 121 c 128
 149 157 197 185 255 205 c 0
 327 231.666666667 405 248.666666667 489 256 c 2
 733 277 l 1
 771 277 804.833333333 280.666666667 834.5 288 c 128
 864.166666667 295.333333333 893.333333333 305.333333333 922 318 c 0
 965.333333333 336.666666667 1000.66666667 377 1028 439 c 0
 1042 468.333333333 1054.16666667 497.833333333 1064.5 527.5 c 128
 1074.83333333 557.166666667 1083 585 1089 611 c 0
 1091.66666667 624.333333333 1093.66666667 636.5 1095 647.5 c 128
 1096.33333333 658.5 1097 670 1097 682 c 0
 1097 714 1091 742 1079 766 c 0
 1059.66666667 807.333333333 1022.33333333 828 967 828 c 0
 931 828 900.333333333 812.333333333 875 781 c 0
 862.333333333 765.666666667 852.5 750.666666667 845.5 736 c 128
 838.5 721.333333333 833 706 829 690 c 2
 773 428 l 1
 609 428 l 1
 663 680 l 2
 664.333333333 685.333333333 665 693.333333333 665 704 c 0
 665 716 663 729 659 743 c 0
 651.666666667 766.333333333 636.333333333 786.333333333 613 803 c 0
 587.666666667 819.666666667 554.666666667 828 514 828 c 0
 462.666666667 828 411.833333333 815.666666667 361.5 791 c 128
 311.166666667 766.333333333 275.333333333 736.333333333 254 701 c 1
 293.333333333 735 340 752 394 752 c 0
 433.333333333 752 465.833333333 741.833333333 491.5 721.5 c 128
 517.166666667 701.166666667 535 674 545 640 c 0
 547.666666667 631.333333333 549.666666667 622.666666667 551 614 c 128
 552.333333333 605.333333333 553 595.666666667 553 585 c 0
 553 575 552.166666667 564.833333333 550.5 554.5 c 128
 548.833333333 544.166666667 547.333333333 535.666666667 546 529 c 0
 532 460.333333333 501 407 453 369 c 128
 405 331 347.666666667 312 281 312 c 0
 171.666666667 312 117 372 117 492 c 0
 117 528.666666667 122.333333333 572.166666667 133 622.5 c 128
 143.666666667 672.833333333 167.833333333 721.166666667 205.5 767.5 c 128
 243.166666667 813.833333333 293.333333333 851.166666667 356 879.5 c 128
 418.666666667 907.833333333 487 922 561 922 c 0
 690.333333333 922 768.666666667 889.333333333 796 824 c 1
 847.333333333 889.333333333 917 922 1005 922 c 0
 1107.66666667 922 1179.33333333 893.666666667 1220 837 c 0
 1246 799.666666667 1259 753 1259 697 c 0
 1259 665.666666667 1255 631.333333333 1247 594 c 0
401 563 m 0
 401 584.333333333 393.833333333 601.666666667 379.5 615 c 128
 365.166666667 628.333333333 347.333333333 635 326 635 c 0
 286.666666667 635 250 614.666666667 216 574 c 1
 212 554.666666667 210 537.333333333 210 522 c 0
 210 502 213.666666667 483.666666667 221 467 c 0
 234.333333333 438.333333333 257 424 289 424 c 0
 315.666666667 424 339 435 359 457 c 128
 379 479 392 504.333333333 398 533 c 0
 400 540.333333333 401 550.333333333 401 563 c 0
969 1204 m 0
 962.333333333 1170.66666667 943.166666667 1140.83333333 911.5 1114.5 c 128
 879.833333333 1088.16666667 846.666666667 1075 812 1075 c 256
 777.333333333 1075 750 1088 730 1114 c 0
 715.333333333 1131.33333333 708 1152.66666667 708 1178 c 0
 708 1186 709 1194.66666667 711 1204 c 0
 717.666666667 1238.66666667 736.666666667 1268.83333333 768 1294.5 c 128
 799.333333333 1320.16666667 832.333333333 1333 867 1333 c 0
 903 1333 930.333333333 1320.33333333 949 1295 c 0
 964.333333333 1276.33333333 972 1255 972 1231 c 0
 972 1222.33333333 971 1213.33333333 969 1204 c 0
EndSplineSet
EndChar

StartChar: u0B9E
Encoding: 81 2974 81
Width: 1794
Flags: HW
AnchorPoint: "V" 1198 939 basechar 0
AnchorPoint: "N" 1198 -358.936 basechar 0
LayerCount: 2
Fore
SplineSet
1636 219 m 0
 1626 173 1613.5 131.166666667 1598.5 93.5 c 128
 1583.5 55.8333333333 1564 17.3333333333 1540 -22 c 0
 1495.33333333 -94.6666666667 1435 -159.666666667 1359 -217 c 128
 1283 -274.333333333 1189.83333333 -319.166666667 1079.5 -351.5 c 128
 969.166666667 -383.833333333 844.666666667 -400 706 -400 c 0
 582.666666667 -400 475.5 -384 384.5 -352 c 128
 293.5 -320 220.5 -273.333333333 165.5 -212 c 128
 110.5 -150.666666667 74.3333333333 -75.3333333333 57 14 c 0
 53.6666666667 30.6666666667 51 49 49 69 c 128
 47 89 46 109.333333333 46 130 c 0
 46 184.666666667 52.6666666667 245.333333333 66 312 c 0
 83.3333333333 395.333333333 109.666666667 477.333333333 145 558 c 128
 180.333333333 638.666666667 220.333333333 709.833333333 265 771.5 c 128
 309.666666667 833.166666667 359.333333333 884.666666667 414 926 c 1
 465 873 l 1
 413 831 366.833333333 779.833333333 326.5 719.5 c 128
 286.166666667 659.166666667 252.333333333 594.333333333 225 525 c 128
 197.666666667 455.666666667 175.666666667 382.333333333 159 305 c 0
 148.333333333 253.666666667 143 207.666666667 143 167 c 0
 143 103.666666667 154.333333333 43 177 -15 c 0
 214.333333333 -107.666666667 279 -179.166666667 371 -229.5 c 128
 463 -279.833333333 575.666666667 -305 709 -305 c 0
 857 -305 984.666666667 -280.5 1092 -231.5 c 128
 1199.33333333 -182.5 1283 -118.666666667 1343 -40 c 128
 1403 38.6666666667 1443 123.666666667 1463 215 c 0
 1467.66666667 238.333333333 1470 262.333333333 1470 287 c 0
 1470 316.333333333 1466 344 1458 370 c 0
 1442.66666667 418.666666667 1404.66666667 443 1344 443 c 0
 1290.66666667 443 1250.66666667 425.666666667 1224 391 c 1
 1141 0 l 1
 967 0 l 1
 1143 828 l 1
 873 828 l 2
 767.666666667 828 678.333333333 800 605 744 c 0
 534.333333333 690 485.333333333 627 458 555 c 1
 510 595 573 615 647 615 c 0
 699.666666667 615 744.333333333 602.333333333 781 577 c 128
 817.666666667 551.666666667 843 517 857 473 c 0
 863.666666667 450.333333333 867 424.333333333 867 395 c 0
 867 378.333333333 866.666666667 365.666666667 866 357 c 128
 865.333333333 348.333333333 863 336 859 320 c 0
 837.666666667 221.333333333 801.166666667 143.333333333 749.5 86 c 128
 697.833333333 28.6666666667 632.333333333 0 553 0 c 0
 489 0 436.833333333 16.6666666667 396.5 50 c 128
 356.166666667 83.3333333333 330.333333333 132.333333333 319 197 c 0
 315 220.333333333 313 245 313 271 c 0
 313 317 319 368.666666667 331 426 c 0
 347 502.666666667 371.666666667 571.5 405 632.5 c 128
 438.333333333 693.5 479 745.666666667 527 789 c 128
 575 832.333333333 628.666666667 865.333333333 688 888 c 128
 747.333333333 910.666666667 809.333333333 922 874 922 c 2
 1538 922 l 1
 1518 828 l 1
 1317 828 l 1
 1250 512 l 1
 1293.33333333 546 1343.33333333 563 1400 563 c 0
 1468 563 1521.33333333 545.833333333 1560 511.5 c 128
 1598.66666667 477.166666667 1624 433.333333333 1636 380 c 0
 1642 354 1645 328 1645 302 c 0
 1645 274.666666667 1642 247 1636 219 c 0
684 316 m 0
 687.333333333 331.333333333 689 345 689 357 c 0
 689 385 681.666666667 412 667 438 c 0
 645.666666667 475.333333333 616 494 578 494 c 0
 542.666666667 494 510.5 483.833333333 481.5 463.5 c 128
 452.5 443.166666667 431 418.333333333 417 389 c 1
 413.666666667 374.333333333 411 359 409 343 c 128
 407 327 406 312 406 298 c 0
 406 268 410.666666667 240 420 214 c 0
 436.666666667 167.333333333 471 144 523 144 c 0
 561.666666667 144 595.333333333 160.333333333 624 193 c 128
 652.666666667 225.666666667 672.666666667 266.666666667 684 316 c 0
EndSplineSet
EndChar

StartChar: u0B9E_u0BBF
Encoding: 82 -1 82
Width: 1985
Flags: HW
AnchorPoint: "V" 1198 939 basechar 0
AnchorPoint: "N" 1198 -358.936 basechar 0
LayerCount: 2
Fore
SplineSet
1780 0 m 1
 1696 0 l 1
 1919 1049 l 2
 1925 1076.33333333 1928 1102 1928 1126 c 0
 1928 1170 1918 1208 1898 1240 c 0
 1868 1288.66666667 1793.33333333 1313 1674 1313 c 0
 1570 1313 1488.33333333 1289.66666667 1429 1243 c 128
 1369.66666667 1196.33333333 1330.33333333 1128.33333333 1311 1039 c 0
 1307 1021.66666667 1305 1005 1305 989 c 0
 1305 965.666666667 1310.33333333 943.333333333 1321 922 c 1
 1538 922 l 1
 1518 828 l 1
 1317 828 l 1
 1257 545 l 1
 1302.33333333 579 1353 596 1409 596 c 0
 1437.66666667 596 1463.33333333 590.833333333 1486 580.5 c 128
 1508.66666667 570.166666667 1530.33333333 553 1551 529 c 0
 1580.33333333 495.666666667 1599.66666667 447.666666667 1609 385 c 0
 1612.33333333 361.666666667 1614 339 1614 317 c 0
 1614 274.333333333 1608.33333333 224.666666667 1597 168 c 0
 1580.33333333 90 1548.5 16.1666666667 1501.5 -53.5 c 128
 1454.5 -123.166666667 1393.66666667 -183.5 1319 -234.5 c 128
 1244.33333333 -285.5 1153 -326 1045 -356 c 0
 991 -370.666666667 934.666666667 -381.666666667 876 -389 c 128
 817.333333333 -396.333333333 753.666666667 -400 685 -400 c 0
 547 -400 425.166666667 -371.666666667 319.5 -315 c 128
 213.833333333 -258.333333333 137.333333333 -175.333333333 90 -66 c 0
 62.6666666667 -1.33333333333 49 70.3333333333 49 149 c 0
 49 174.333333333 50.3333333333 200.833333333 53 228.5 c 128
 55.6666666667 256.166666667 60 284 66 312 c 0
 83.3333333333 395.333333333 109.666666667 477.333333333 145 558 c 128
 180.333333333 638.666666667 220.333333333 709.833333333 265 771.5 c 128
 309.666666667 833.166666667 359.333333333 884.666666667 414 926 c 1
 465 873 l 1
 413 831 366.833333333 779.833333333 326.5 719.5 c 128
 286.166666667 659.166666667 252.333333333 594.333333333 225 525 c 128
 197.666666667 455.666666667 175.666666667 382.333333333 159 305 c 0
 149.666666667 259.666666667 145 217.666666667 145 179 c 0
 145 136.333333333 150.166666667 96.1666666667 160.5 58.5 c 128
 170.833333333 20.8333333333 185.333333333 -14.1666666667 204 -46.5 c 128
 222.666666667 -78.8333333333 245.333333333 -109 272 -137 c 0
 324.666666667 -191.666666667 388.333333333 -233.333333333 463 -262 c 128
 537.666666667 -290.666666667 619.666666667 -305 709 -305 c 0
 853 -305 976.5 -281.833333333 1079.5 -235.5 c 128
 1182.5 -189.166666667 1262.83333333 -128.833333333 1320.5 -54.5 c 128
 1378.16666667 19.8333333333 1416.66666667 99.6666666667 1436 185 c 0
 1444.66666667 223.666666667 1449 260 1449 294 c 0
 1449 302.666666667 1448.83333333 312 1448.5 322 c 128
 1448.16666667 332 1446 345 1442 361 c 0
 1434 394.333333333 1420.33333333 421 1401 441 c 128
 1381.66666667 461 1357.66666667 471 1329 471 c 0
 1293 471 1260.66666667 456.666666667 1232 428 c 1
 1141 0 l 1
 967 0 l 1
 1143 828 l 1
 873 828 l 2
 767.666666667 828 678.333333333 800 605 744 c 0
 534.333333333 690 485.333333333 627 458 555 c 1
 510 595 573 615 647 615 c 0
 699.666666667 615 744.333333333 602.333333333 781 577 c 128
 817.666666667 551.666666667 843 517 857 473 c 0
 863.666666667 450.333333333 867 424.333333333 867 395 c 0
 867 378.333333333 866.666666667 365.666666667 866 357 c 128
 865.333333333 348.333333333 863 336 859 320 c 0
 837.666666667 221.333333333 801.166666667 143.333333333 749.5 86 c 128
 697.833333333 28.6666666667 632.333333333 0 553 0 c 0
 489 0 436.833333333 16.6666666667 396.5 50 c 128
 356.166666667 83.3333333333 330.333333333 132.333333333 319 197 c 0
 315 220.333333333 313 245 313 271 c 0
 313 317 319 368.666666667 331 426 c 0
 347 502.666666667 371.666666667 571.5 405 632.5 c 128
 438.333333333 693.5 479 745.666666667 527 789 c 128
 575 832.333333333 628.666666667 865.333333333 688 888 c 128
 747.333333333 910.666666667 809.333333333 922 874 922 c 2
 1224 922 l 1
 1217.33333333 950.666666667 1214 981.666666667 1214 1015 c 0
 1214 1030.33333333 1215 1047 1217 1065 c 128
 1219 1083 1221.66666667 1100.66666667 1225 1118 c 0
 1241 1194 1269.66666667 1258.33333333 1311 1311 c 128
 1352.33333333 1363.66666667 1406.66666667 1403.83333333 1474 1431.5 c 128
 1541.33333333 1459.16666667 1620 1473 1710 1473 c 0
 1822 1473 1902.5 1451.16666667 1951.5 1407.5 c 128
 2000.5 1363.83333333 2025 1313.33333333 2025 1256 c 0
 2025 1226 2023.16666667 1193.66666667 2019.5 1159 c 128
 2015.83333333 1124.33333333 2010.33333333 1088.33333333 2003 1051 c 2
 1780 0 l 1
684 316 m 0
 687.333333333 331.333333333 689 345 689 357 c 0
 689 385 681.666666667 412 667 438 c 0
 645.666666667 475.333333333 616 494 578 494 c 0
 542.666666667 494 510.5 483.833333333 481.5 463.5 c 128
 452.5 443.166666667 431 418.333333333 417 389 c 1
 413.666666667 374.333333333 411 359 409 343 c 128
 407 327 406 312 406 298 c 0
 406 268 410.666666667 240 420 214 c 0
 436.666666667 167.333333333 471 144 523 144 c 0
 561.666666667 144 595.333333333 160.333333333 624 193 c 128
 652.666666667 225.666666667 672.666666667 266.666666667 684 316 c 0
EndSplineSet
EndChar

StartChar: u0B9E_u0BC0
Encoding: 83 -1 83
Width: 1794
Flags: HW
AnchorPoint: "V" 1198 1362.23 basechar 0
AnchorPoint: "N" 1198 -358.936 basechar 0
LayerCount: 2
Fore
SplineSet
1879 1235 m 0
 1865 1171 1831.16666667 1117.16666667 1777.5 1073.5 c 128
 1723.83333333 1029.83333333 1660.66666667 1008 1588 1008 c 0
 1542 1008 1504.66666667 1017.16666667 1476 1035.5 c 128
 1447.33333333 1053.83333333 1427 1079.33333333 1415 1112 c 0
 1409 1131.33333333 1406 1151 1406 1171 c 0
 1406 1183.66666667 1407.5 1197.5 1410.5 1212.5 c 128
 1413.5 1227.5 1418 1242.5 1424 1257.5 c 128
 1430 1272.5 1438 1288 1448 1304 c 0
 1466 1334 1487.33333333 1358.33333333 1512 1377 c 1
 1471 1379 l 2
 1426.33333333 1379 1385.16666667 1366.66666667 1347.5 1342 c 128
 1309.83333333 1317.33333333 1276.33333333 1284.33333333 1247 1243 c 1
 1221 1201.66666667 1203.66666667 1161 1195 1121 c 0
 1191 1101 1189 1081.66666667 1189 1063 c 0
 1189 1011 1205.66666667 964 1239 922 c 1
 1538 922 l 1
 1518 828 l 1
 1317 828 l 1
 1250 512 l 1
 1293.33333333 546 1343.33333333 563 1400 563 c 0
 1468 563 1521.33333333 545.833333333 1560 511.5 c 128
 1598.66666667 477.166666667 1624 433.333333333 1636 380 c 0
 1642 354 1645 328 1645 302 c 0
 1645 274.666666667 1642 247 1636 219 c 0
 1626 173 1613.5 131.166666667 1598.5 93.5 c 128
 1583.5 55.8333333333 1564 17.3333333333 1540 -22 c 0
 1495.33333333 -94.6666666667 1435 -159.666666667 1359 -217 c 128
 1283 -274.333333333 1189.83333333 -319.166666667 1079.5 -351.5 c 128
 969.166666667 -383.833333333 844.666666667 -400 706 -400 c 0
 582.666666667 -400 475.5 -384 384.5 -352 c 128
 293.5 -320 220.5 -273.333333333 165.5 -212 c 128
 110.5 -150.666666667 74.3333333333 -75.3333333333 57 14 c 0
 53.6666666667 30.6666666667 51 49 49 69 c 128
 47 89 46 109.333333333 46 130 c 0
 46 184.666666667 52.6666666667 245.333333333 66 312 c 0
 83.3333333333 395.333333333 109.666666667 477.333333333 145 558 c 128
 180.333333333 638.666666667 220.333333333 709.833333333 265 771.5 c 128
 309.666666667 833.166666667 359.333333333 884.666666667 414 926 c 1
 465 873 l 1
 413 831 366.833333333 779.833333333 326.5 719.5 c 128
 286.166666667 659.166666667 252.333333333 594.333333333 225 525 c 128
 197.666666667 455.666666667 175.666666667 382.333333333 159 305 c 0
 148.333333333 253.666666667 143 207.666666667 143 167 c 0
 143 103.666666667 154.333333333 43 177 -15 c 0
 214.333333333 -107.666666667 279 -179.166666667 371 -229.5 c 128
 463 -279.833333333 575.666666667 -305 709 -305 c 0
 857 -305 984.666666667 -280.5 1092 -231.5 c 128
 1199.33333333 -182.5 1283 -118.666666667 1343 -40 c 128
 1403 38.6666666667 1443 123.666666667 1463 215 c 0
 1467.66666667 238.333333333 1470 262.333333333 1470 287 c 0
 1470 316.333333333 1466 344 1458 370 c 0
 1442.66666667 418.666666667 1404.66666667 443 1344 443 c 0
 1290.66666667 443 1250.66666667 425.666666667 1224 391 c 1
 1141 0 l 1
 967 0 l 1
 1143 828 l 1
 873 828 l 2
 767.666666667 828 678.333333333 800 605 744 c 0
 534.333333333 690 485.333333333 627 458 555 c 1
 510 595 573 615 647 615 c 0
 699.666666667 615 744.333333333 602.333333333 781 577 c 128
 817.666666667 551.666666667 843 517 857 473 c 0
 863.666666667 450.333333333 867 424.333333333 867 395 c 0
 867 378.333333333 866.666666667 365.666666667 866 357 c 128
 865.333333333 348.333333333 863 336 859 320 c 0
 837.666666667 221.333333333 801.166666667 143.333333333 749.5 86 c 128
 697.833333333 28.6666666667 632.333333333 0 553 0 c 0
 489 0 436.833333333 16.6666666667 396.5 50 c 128
 356.166666667 83.3333333333 330.333333333 132.333333333 319 197 c 0
 315 220.333333333 313 245 313 271 c 0
 313 317 319 368.666666667 331 426 c 0
 347 502.666666667 371.666666667 571.5 405 632.5 c 128
 438.333333333 693.5 479 745.666666667 527 789 c 128
 575 832.333333333 628.666666667 865.333333333 688 888 c 128
 747.333333333 910.666666667 809.333333333 922 874 922 c 2
 1147 922 l 1
 1109.66666667 972.666666667 1091 1026.66666667 1091 1084 c 0
 1091 1103.33333333 1093 1123 1097 1143 c 0
 1125 1274.33333333 1183.83333333 1370 1273.5 1430 c 128
 1363.16666667 1490 1456.66666667 1520 1554 1520 c 0
 1616 1520 1674.5 1511.5 1729.5 1494.5 c 128
 1784.5 1477.5 1826.66666667 1448 1856 1406 c 0
 1876 1378 1886 1342.66666667 1886 1300 c 0
 1886 1286.66666667 1885.66666667 1276.33333333 1885 1269 c 128
 1884.33333333 1261.66666667 1882.33333333 1250.33333333 1879 1235 c 0
1733 1213 m 0
 1735 1223 1736 1232.66666667 1736 1242 c 0
 1736 1264 1729 1284.66666667 1715 1304 c 0
 1695.66666667 1329.33333333 1668.33333333 1342 1633 1342 c 1
 1600.33333333 1336 1571.66666667 1320.66666667 1547 1296 c 128
 1522.33333333 1271.33333333 1506.66666667 1243 1500 1211 c 0
 1498.66666667 1205 1498 1196.66666667 1498 1186 c 0
 1498 1165.33333333 1503.66666667 1146.33333333 1515 1129 c 0
 1531 1105.66666667 1555 1094 1587 1094 c 0
 1620.33333333 1094 1651 1105.33333333 1679 1128 c 128
 1707 1150.66666667 1725 1179 1733 1213 c 0
684 316 m 0
 687.333333333 331.333333333 689 345 689 357 c 0
 689 385 681.666666667 412 667 438 c 0
 645.666666667 475.333333333 616 494 578 494 c 0
 542.666666667 494 510.5 483.833333333 481.5 463.5 c 128
 452.5 443.166666667 431 418.333333333 417 389 c 1
 413.666666667 374.333333333 411 359 409 343 c 128
 407 327 406 312 406 298 c 0
 406 268 410.666666667 240 420 214 c 0
 436.666666667 167.333333333 471 144 523 144 c 0
 561.666666667 144 595.333333333 160.333333333 624 193 c 128
 652.666666667 225.666666667 672.666666667 266.666666667 684 316 c 0
EndSplineSet
EndChar

StartChar: u0B9E_u0BC1
Encoding: 84 -1 84
Width: 2173
Flags: HW
AnchorPoint: "V" 1198 939 basechar 0
AnchorPoint: "N" 1198 -358.936 basechar 0
LayerCount: 2
Fore
SplineSet
1936 -150 m 1
 1461 -150 l 1
 1405 -218.666666667 1338.33333333 -279.166666667 1261 -331.5 c 128
 1183.66666667 -383.833333333 1096.33333333 -424.666666667 999 -454 c 128
 901.666666667 -483.333333333 797 -498 685 -498 c 0
 527.666666667 -498 397.833333333 -478.666666667 295.5 -440 c 128
 193.166666667 -401.333333333 118.333333333 -355.666666667 71 -303 c 0
 39.6666666667 -269.666666667 17 -242 3 -220 c 0
 -15.6666666667 -191.333333333 -25 -164.666666667 -25 -140 c 0
 -25 -135.333333333 -24.3333333333 -128.333333333 -23 -119 c 0
 -13.6666666667 -77 16 -56 66 -56 c 2
 1340 -56 l 1
 1403.33333333 37.3333333333 1444.33333333 127.666666667 1463 215 c 0
 1467.66666667 238.333333333 1470 262.333333333 1470 287 c 0
 1470 316.333333333 1466 344 1458 370 c 0
 1442.66666667 418.666666667 1404.66666667 443 1344 443 c 0
 1290.66666667 443 1250.66666667 425.666666667 1224 391 c 1
 1141 0 l 1
 967 0 l 1
 1143 828 l 1
 873 828 l 2
 767.666666667 828 678.333333333 800 605 744 c 0
 534.333333333 690 485.333333333 627 458 555 c 1
 510 595 573 615 647 615 c 0
 699.666666667 615 744.333333333 602.333333333 781 577 c 128
 817.666666667 551.666666667 843 517 857 473 c 0
 863.666666667 450.333333333 867 424.333333333 867 395 c 0
 867 378.333333333 866.666666667 365.666666667 866 357 c 128
 865.333333333 348.333333333 863 336 859 320 c 0
 837.666666667 221.333333333 801.166666667 143.333333333 749.5 86 c 128
 697.833333333 28.6666666667 632.333333333 0 553 0 c 0
 489 0 436.833333333 16.6666666667 396.5 50 c 128
 356.166666667 83.3333333333 330.333333333 132.333333333 319 197 c 0
 315 220.333333333 313 245 313 271 c 0
 313 317 319 368.666666667 331 426 c 0
 347 502.666666667 371.666666667 571.5 405 632.5 c 128
 438.333333333 693.5 479 745.666666667 527 789 c 128
 575 832.333333333 628.666666667 865.333333333 688 888 c 128
 747.333333333 910.666666667 809.333333333 922 874 922 c 2
 1538 922 l 1
 1518 828 l 1
 1317 828 l 1
 1250 512 l 1
 1293.33333333 546 1343.33333333 563 1400 563 c 0
 1468 563 1521.33333333 545.833333333 1560 511.5 c 128
 1598.66666667 477.166666667 1624 433.333333333 1636 380 c 0
 1642 354 1645 328 1645 302 c 0
 1645 274.666666667 1642 247 1636 219 c 0
 1615.33333333 121.666666667 1578.66666667 30 1526 -56 c 1
 1784 -56 l 1
 1992 922 l 1
 2164 922 l 1
 1936 -150 l 1
684 316 m 0
 687.333333333 331.333333333 689 345 689 357 c 0
 689 385 681.666666667 412 667 438 c 0
 645.666666667 475.333333333 616 494 578 494 c 0
 542.666666667 494 510.5 483.833333333 481.5 463.5 c 128
 452.5 443.166666667 431 418.333333333 417 389 c 1
 413.666666667 374.333333333 411 359 409 343 c 128
 407 327 406 312 406 298 c 0
 406 268 410.666666667 240 420 214 c 0
 436.666666667 167.333333333 471 144 523 144 c 0
 561.666666667 144 595.333333333 160.333333333 624 193 c 128
 652.666666667 225.666666667 672.666666667 266.666666667 684 316 c 0
1267 -150 m 1
 118 -150 l 2
 98.6666666667 -150 88 -154.666666667 86 -164 c 0
 85.3333333333 -168 93.3333333333 -181 110 -203 c 0
 130 -229.666666667 152 -252.333333333 176 -271 c 0
 222 -307 288.5 -338.5 375.5 -365.5 c 128
 462.5 -392.5 566.666666667 -406 688 -406 c 0
 806 -406 913.833333333 -382.666666667 1011.5 -336 c 128
 1109.16666667 -289.333333333 1194.33333333 -227.333333333 1267 -150 c 1
EndSplineSet
EndChar

StartChar: u0B9E_u0BC2
Encoding: 85 -1 85
Width: 2673
Flags: HW
AnchorPoint: "V" 1198 939 basechar 0
AnchorPoint: "N" 1198 -358.936 basechar 0
LayerCount: 2
Fore
SplineSet
2644 828 m 1
 2443 828 l 1
 2235 -150 l 1
 2063 -150 l 1
 2271 828 l 1
 2065 828 l 1
 1857 -150 l 1
 1459 -150 l 1
 1402.33333333 -219.333333333 1336.33333333 -279.833333333 1261 -331.5 c 128
 1185.66666667 -383.166666667 1098.5 -423.833333333 999.5 -453.5 c 128
 900.5 -483.166666667 795.666666667 -498 685 -498 c 0
 527.666666667 -498 397.833333333 -478.666666667 295.5 -440 c 128
 193.166666667 -401.333333333 118.333333333 -356 71 -304 c 128
 23.6666666667 -252 -6.66666666667 -202.666666667 -20 -156 c 0
 -23.3333333333 -148 -25 -140.666666667 -25 -134 c 0
 -25 -130.666666667 -24.3333333333 -125.666666667 -23 -119 c 0
 -13.6666666667 -77 16 -56 66 -56 c 2
 1340 -56 l 1
 1403.33333333 37.3333333333 1444.33333333 127.666666667 1463 215 c 0
 1467.66666667 238.333333333 1470 262.333333333 1470 287 c 0
 1470 316.333333333 1466 344 1458 370 c 0
 1442.66666667 418.666666667 1404.66666667 443 1344 443 c 0
 1290.66666667 443 1250.66666667 425.666666667 1224 391 c 1
 1141 0 l 1
 967 0 l 1
 1143 828 l 1
 873 828 l 2
 767.666666667 828 678.333333333 800 605 744 c 0
 534.333333333 690 485.333333333 627 458 555 c 1
 510 595 573 615 647 615 c 0
 699.666666667 615 744.333333333 602.333333333 781 577 c 128
 817.666666667 551.666666667 843 517 857 473 c 0
 863.666666667 450.333333333 867 424.333333333 867 395 c 0
 867 378.333333333 866.666666667 365.666666667 866 357 c 128
 865.333333333 348.333333333 863 336 859 320 c 0
 837.666666667 221.333333333 801.166666667 143.333333333 749.5 86 c 128
 697.833333333 28.6666666667 632.333333333 0 553 0 c 0
 489 0 436.833333333 16.6666666667 396.5 50 c 128
 356.166666667 83.3333333333 330.333333333 132.333333333 319 197 c 0
 315 220.333333333 313 245 313 271 c 0
 313 317 319 368.666666667 331 426 c 0
 347 502.666666667 371.666666667 571.5 405 632.5 c 128
 438.333333333 693.5 479 745.666666667 527 789 c 128
 575 832.333333333 628.666666667 865.333333333 688 888 c 128
 747.333333333 910.666666667 809.333333333 922 874 922 c 2
 1538 922 l 1
 1518 828 l 1
 1317 828 l 1
 1250 512 l 1
 1293.33333333 546 1343.33333333 563 1400 563 c 0
 1468 563 1521.33333333 545.833333333 1560 511.5 c 128
 1598.66666667 477.166666667 1624 433.333333333 1636 380 c 0
 1642 354 1645 328 1645 302 c 0
 1645 274.666666667 1642 247 1636 219 c 0
 1612.66666667 114.333333333 1576 22.6666666667 1526 -56 c 1
 1784 -56 l 1
 1992 922 l 1
 2664 922 l 1
 2644 828 l 1
684 316 m 0
 687.333333333 331.333333333 689 345 689 357 c 0
 689 385 681.666666667 412 667 438 c 0
 645.666666667 475.333333333 616 494 578 494 c 0
 542.666666667 494 510.5 483.833333333 481.5 463.5 c 128
 452.5 443.166666667 431 418.333333333 417 389 c 1
 413.666666667 374.333333333 411 359 409 343 c 128
 407 327 406 312 406 298 c 0
 406 268 410.666666667 240 420 214 c 0
 436.666666667 167.333333333 471 144 523 144 c 0
 561.666666667 144 595.333333333 160.333333333 624 193 c 128
 652.666666667 225.666666667 672.666666667 266.666666667 684 316 c 0
1267 -150 m 1
 108 -150 l 2
 91.3333333333 -150 81.3333333333 -158 78 -174 c 1
 90.6666666667 -202.666666667 120.833333333 -235 168.5 -271 c 128
 216.166666667 -307 284.5 -338.5 373.5 -365.5 c 128
 462.5 -392.5 567.333333333 -406 688 -406 c 0
 912 -406 1105 -320.666666667 1267 -150 c 1
EndSplineSet
EndChar

StartChar: u0B9E_u0BCD
Encoding: 86 -1 86
Width: 1794
Flags: HW
AnchorPoint: "N" 1198 -358.936 basechar 0
LayerCount: 2
Fore
SplineSet
1327 1204 m 0
 1320.33333333 1170 1301.16666667 1140 1269.5 1114 c 128
 1237.83333333 1088 1204.66666667 1075 1170 1075 c 0
 1136 1075 1109 1088 1089 1114 c 0
 1073.66666667 1132.66666667 1066 1153.66666667 1066 1177 c 0
 1066 1185.66666667 1067 1194.66666667 1069 1204 c 0
 1075.66666667 1237.33333333 1094.66666667 1267.66666667 1126 1295 c 0
 1158.66666667 1320.33333333 1191.66666667 1333 1225 1333 c 0
 1261 1333 1288.66666667 1320.33333333 1308 1295 c 0
 1322.66666667 1277.66666667 1330 1256.33333333 1330 1231 c 0
 1330 1222.33333333 1329 1213.33333333 1327 1204 c 0
1636 219 m 0
 1626 173 1613.5 131.166666667 1598.5 93.5 c 128
 1583.5 55.8333333333 1564 17.3333333333 1540 -22 c 0
 1495.33333333 -94.6666666667 1435 -159.666666667 1359 -217 c 128
 1283 -274.333333333 1189.83333333 -319.166666667 1079.5 -351.5 c 128
 969.166666667 -383.833333333 844.666666667 -400 706 -400 c 0
 582.666666667 -400 475.5 -384 384.5 -352 c 128
 293.5 -320 220.5 -273.333333333 165.5 -212 c 128
 110.5 -150.666666667 74.3333333333 -75.3333333333 57 14 c 0
 53.6666666667 30.6666666667 51 49 49 69 c 128
 47 89 46 109.333333333 46 130 c 0
 46 184.666666667 52.6666666667 245.333333333 66 312 c 0
 83.3333333333 395.333333333 109.666666667 477.333333333 145 558 c 128
 180.333333333 638.666666667 220.333333333 709.833333333 265 771.5 c 128
 309.666666667 833.166666667 359.333333333 884.666666667 414 926 c 1
 465 873 l 1
 413 831 366.833333333 779.833333333 326.5 719.5 c 128
 286.166666667 659.166666667 252.333333333 594.333333333 225 525 c 128
 197.666666667 455.666666667 175.666666667 382.333333333 159 305 c 0
 148.333333333 253.666666667 143 207.666666667 143 167 c 0
 143 103.666666667 154.333333333 43 177 -15 c 0
 214.333333333 -107.666666667 279 -179.166666667 371 -229.5 c 128
 463 -279.833333333 575.666666667 -305 709 -305 c 0
 857 -305 984.666666667 -280.5 1092 -231.5 c 128
 1199.33333333 -182.5 1283 -118.666666667 1343 -40 c 128
 1403 38.6666666667 1443 123.666666667 1463 215 c 0
 1467.66666667 238.333333333 1470 262.333333333 1470 287 c 0
 1470 316.333333333 1466 344 1458 370 c 0
 1442.66666667 418.666666667 1404.66666667 443 1344 443 c 0
 1290.66666667 443 1250.66666667 425.666666667 1224 391 c 1
 1141 0 l 1
 967 0 l 1
 1143 828 l 1
 873 828 l 2
 767.666666667 828 678.333333333 800 605 744 c 0
 534.333333333 690 485.333333333 627 458 555 c 1
 510 595 573 615 647 615 c 0
 699.666666667 615 744.333333333 602.333333333 781 577 c 128
 817.666666667 551.666666667 843 517 857 473 c 0
 863.666666667 450.333333333 867 424.333333333 867 395 c 0
 867 378.333333333 866.666666667 365.666666667 866 357 c 128
 865.333333333 348.333333333 863 336 859 320 c 0
 837.666666667 221.333333333 801.166666667 143.333333333 749.5 86 c 128
 697.833333333 28.6666666667 632.333333333 0 553 0 c 0
 489 0 436.833333333 16.6666666667 396.5 50 c 128
 356.166666667 83.3333333333 330.333333333 132.333333333 319 197 c 0
 315 220.333333333 313 245 313 271 c 0
 313 317 319 368.666666667 331 426 c 0
 347 502.666666667 371.666666667 571.5 405 632.5 c 128
 438.333333333 693.5 479 745.666666667 527 789 c 128
 575 832.333333333 628.666666667 865.333333333 688 888 c 128
 747.333333333 910.666666667 809.333333333 922 874 922 c 2
 1538 922 l 1
 1518 828 l 1
 1317 828 l 1
 1250 512 l 1
 1293.33333333 546 1343.33333333 563 1400 563 c 0
 1468 563 1521.33333333 545.833333333 1560 511.5 c 128
 1598.66666667 477.166666667 1624 433.333333333 1636 380 c 0
 1642 354 1645 328 1645 302 c 0
 1645 274.666666667 1642 247 1636 219 c 0
684 316 m 0
 687.333333333 331.333333333 689 345 689 357 c 0
 689 385 681.666666667 412 667 438 c 0
 645.666666667 475.333333333 616 494 578 494 c 0
 542.666666667 494 510.5 483.833333333 481.5 463.5 c 128
 452.5 443.166666667 431 418.333333333 417 389 c 1
 413.666666667 374.333333333 411 359 409 343 c 128
 407 327 406 312 406 298 c 0
 406 268 410.666666667 240 420 214 c 0
 436.666666667 167.333333333 471 144 523 144 c 0
 561.666666667 144 595.333333333 160.333333333 624 193 c 128
 652.666666667 225.666666667 672.666666667 266.666666667 684 316 c 0
EndSplineSet
EndChar

StartChar: u0B9F
Encoding: 87 2975 87
Width: 1467
Flags: HW
AnchorPoint: "V" 819 939 basechar 0
AnchorPoint: "N" 819 0 basechar 0
LayerCount: 2
Fore
SplineSet
1262 0 m 1
 0 0 l 1
 196 922 l 1
 360 922 l 1
 184 94 l 1
 1282 94 l 1
 1262 0 l 1
EndSplineSet
EndChar

StartChar: u0B9F_u0BBF
Encoding: 88 -1 88
Width: 1307
Flags: HW
AnchorPoint: "V" 819 939 basechar 0
AnchorPoint: "N" 819 0 basechar 0
LayerCount: 2
Fore
SplineSet
1102 0 m 1
 901 0 l 1
 810 -428 l 1
 647 -428 l 1
 738 0 l 1
 0 0 l 1
 196 922 l 1
 360 922 l 1
 182 84 l 1
 606 84 l 1
 548.666666667 145.333333333 509.333333333 224.666666667 488 322 c 0
 478 362 473 403 473 445 c 0
 473 484.333333333 477.666666667 526.666666667 487 572 c 0
 509 678.666666667 556.333333333 763.333333333 629 826 c 1
 697 890 779.333333333 922 876 922 c 0
 946.666666667 922 996.666666667 899.333333333 1026 854 c 0
 1044.66666667 824.666666667 1054 789.666666667 1054 749 c 0
 1054 729 1051.66666667 708.666666667 1047 688 c 2
 919 84 l 1
 1120 84 l 1
 1102 0 l 1
757 90 m 1
 887 699 l 2
 888.333333333 703 889 707.333333333 889 712 c 128
 889 719 889 719 889 722 c 0
 889 739.333333333 884.333333333 752.666666667 875 762 c 0
 861 777.333333333 843.666666667 785 823 785 c 0
 770.333333333 785 723.333333333 763 682 719 c 0
 655.333333333 691 634.833333333 662.666666667 620.5 634 c 128
 606.166666667 605.333333333 594.833333333 571.666666667 586.5 533 c 128
 578.166666667 494.333333333 574 460.333333333 574 431 c 0
 574 397 578.666666667 363.333333333 588 330 c 0
 624 218 680.333333333 138 757 90 c 1
EndSplineSet
EndChar

